<svg width="10" height="21" viewBox="0 0 10 21" fill="none" xmlns="http://www.w3.org/2000/svg">
<path d="M0.31933 11.1846H2.4893V20.6613C2.4893 20.8484 2.6322 21 2.80859 21H6.48787C6.66426 21 6.80716 20.8484 6.80716 20.6613V11.2293H9.30176C9.46396 11.2293 9.60044 11.1001 9.61896 10.9292L9.99784 7.4404C10.0082 7.34442 9.97959 7.24828 9.91904 7.17626C9.85845 7.10419 9.77172 7.06293 9.68071 7.06293H6.80732V4.87594C6.80732 4.21669 7.14192 3.88238 7.802 3.88238C7.89607 3.88238 9.68071 3.88238 9.68071 3.88238C9.8571 3.88238 10 3.7307 10 3.54367V0.341209C10 0.154096 9.8571 0.00250195 9.68071 0.00250195H7.09154C7.07329 0.00155859 7.03273 0 6.97295 0C6.52371 0 4.96217 0.0935566 3.72865 1.29732C2.36194 2.63132 2.55194 4.22851 2.59733 4.50544V7.06285H0.319292C0.142904 7.06285 0 7.21444 0 7.40156V10.8458C3.86645e-05 11.0329 0.142943 11.1846 0.31933 11.1846Z" fill="#385C8E"/>
</svg>
