<?xml version="1.0" encoding="utf-8"?>
<!-- Generator: Adobe Illustrator 16.0.0, SVG Export Plug-In . SVG Version: 6.00 Build 0)  -->
<!DOCTYPE svg PUBLIC "-//W3C//DTD SVG 1.1//EN" "http://www.w3.org/Graphics/SVG/1.1/DTD/svg11.dtd">
<svg version="1.1"
	 id="svg2" xmlns:sodipodi="http://sodipodi.sourceforge.net/DTD/sodipodi-0.dtd" xmlns:svg="http://www.w3.org/2000/svg" xmlns:cc="http://creativecommons.org/ns#" xmlns:rdf="http://www.w3.org/1999/02/22-rdf-syntax-ns#" xmlns:inkscape="http://www.inkscape.org/namespaces/inkscape" xmlns:dc="http://purl.org/dc/elements/1.1/" inkscape:version="0.48.1 " sodipodi:docname="AJAX.svg"
	 xmlns="http://www.w3.org/2000/svg" xmlns:xlink="http://www.w3.org/1999/xlink" x="0px" y="0px" width="71.999px"
	 height="22.057px" viewBox="-0.81 -0.354 71.999 22.057" enable-background="new -0.81 -0.354 71.999 22.057" xml:space="preserve"
	>
<sodipodi:namedview  fit-margin-top="0" inkscape:cx="50.329457" id="namedview30" showgrid="false" objecttolerance="10" inkscape:cy="13.826428" gridtolerance="10" inkscape:zoom="10.026645" guidetolerance="10" pagecolor="#ffffff" fit-margin-left="0" bordercolor="#666666" borderopacity="1" inkscape:pageshadow="2" fit-margin-right="0.2" inkscape:window-height="1004" inkscape:pageopacity="0" inkscape:window-width="1280" inkscape:current-layer="g6" inkscape:window-y="-8" inkscape:window-x="-8" fit-margin-bottom="0" inkscape:window-maximized="1">
	</sodipodi:namedview>
<polygon id="polygon10" fill="#FF5900" points="59.14,7.418 62.118,10.7 64.985,7.418 71.107,7.418 65.124,14.146 71.189,20.929 
	64.82,20.929 61.87,17.621 58.947,20.929 52.797,20.929 58.809,14.174 52.797,7.418 "/>
<polygon id="polygon12" fill="#FF5900" points="52.797,7.418 52.797,11.983 45.988,11.983 45.988,16.172 52.797,16.172 
	52.797,20.929 40.984,20.929 40.984,-0.354 52.797,-0.354 52.797,4.39 45.988,4.39 45.988,7.418 "/>
<path id="path14" inkscape:connector-curvature="0" fill="#2A007C" d="M36.001-0.354v8.71h-0.055
	c-1.104-1.268-2.482-1.709-4.081-1.709c-3.276,0-5.744,2.228-6.61,5.172c-0.989-3.244-3.537-5.233-7.315-5.233
	c-3.068,0-5.491,1.377-6.755,3.621V7.418H4.843V4.39h6.921v-4.744H-0.81v21.283h5.653v-8.946h5.635
	c-0.168,0.657-0.258,1.361-0.258,2.104c0,4.439,3.392,7.555,7.72,7.555c3.64,0,6.039-1.709,7.307-4.824h-4.845
	c-0.655,0.938-1.152,1.215-2.462,1.215c-1.519,0-2.829-1.326-2.829-2.897h9.865c0.428,3.526,3.175,6.567,6.944,6.567
	c1.626,0,3.115-0.8,4.025-2.15H36v1.38h4.983V-0.354H36.001z M15.269,12.046c0.314-1.352,1.363-2.235,2.672-2.235
	c1.441,0,2.436,0.856,2.698,2.235C20.749,12.046,15.269,12.046,15.269,12.046z M32.976,17.689c-1.837,0-2.979-1.712-2.979-3.499
	c0-1.91,0.993-3.747,2.979-3.747c2.059,0,2.879,1.837,2.879,3.747C35.855,16.001,34.986,17.689,32.976,17.689z"/>
</svg>
