<svg width="19" height="19" viewBox="0 0 19 19" fill="none" xmlns="http://www.w3.org/2000/svg">
<path d="M17.913 7.68939L10.32 7.68903C9.98467 7.68903 9.71289 7.96077 9.71289 8.29606V10.7217C9.71289 11.0569 9.98467 11.3287 10.3199 11.3287H14.5959C14.1277 12.5439 13.2537 13.5615 12.1388 14.2081L13.962 17.3643C16.8868 15.6728 18.6159 12.7049 18.6159 9.38259C18.6159 8.90954 18.581 8.57137 18.5113 8.19059C18.4583 7.90129 18.2071 7.68939 17.913 7.68939Z" fill="#167EE6"/>
<path d="M9.30756 14.9733C7.215 14.9733 5.38822 13.83 4.40709 12.1381L1.25098 13.9573C2.8571 16.7409 5.86589 18.6155 9.30756 18.6155C10.9959 18.6155 12.589 18.1609 13.9614 17.3687V17.3643L12.1382 14.2081C11.3042 14.6918 10.3391 14.9733 9.30756 14.9733Z" fill="#12B347"/>
<path d="M13.9615 17.3687V17.3643L12.1382 14.2081C11.3042 14.6917 10.3392 14.9733 9.30762 14.9733V18.6154C10.996 18.6154 12.5892 18.1609 13.9615 17.3687Z" fill="#0F993E"/>
<path d="M3.64215 9.30773C3.64215 8.27628 3.92364 7.3113 4.40724 6.47735L1.25112 4.6582C0.454551 6.02625 0 7.61504 0 9.30773C0 11.0004 0.454551 12.5892 1.25112 13.9573L4.40724 12.1381C3.92364 11.3042 3.64215 10.3392 3.64215 9.30773Z" fill="#FFD500"/>
<path d="M9.30756 3.64215C10.6721 3.64215 11.9255 4.12702 12.9046 4.93356C13.1461 5.13251 13.4971 5.11815 13.7184 4.89691L15.437 3.17826C15.688 2.92724 15.6701 2.51635 15.402 2.28373C13.7617 0.860709 11.6275 0 9.30756 0C5.86589 0 2.8571 1.87452 1.25098 4.65818L4.40709 6.47733C5.38822 4.78547 7.215 3.64215 9.30756 3.64215Z" fill="#FF4B26"/>
<path d="M12.9046 4.93356C13.1461 5.13251 13.4972 5.11815 13.7184 4.89691L15.4371 3.17826C15.6881 2.92724 15.6702 2.51635 15.4021 2.28373C13.7618 0.860672 11.6275 0 9.30762 0V3.64215C10.6721 3.64215 11.9256 4.12702 12.9046 4.93356Z" fill="#D93F21"/>
</svg>
