<svg width="17" height="17" viewBox="0 0 17 17" fill="none" xmlns="http://www.w3.org/2000/svg">
<path d="M8.23968 11.396C7.75363 11.396 7.36011 11.8011 7.36011 12.2872C7.36011 12.7617 7.74204 13.1783 8.23968 13.1783C8.73733 13.1783 9.13085 12.7617 9.13085 12.2872C9.13085 11.8011 8.72581 11.396 8.23968 11.396Z" fill="#226ED2"/>
<path d="M8.3901 4.64844C6.82766 4.64844 6.11011 5.5743 6.11011 6.19929C6.11011 6.65068 6.49201 6.859 6.80452 6.859C7.42947 6.859 7.17487 5.96783 8.35537 5.96783C8.93407 5.96783 9.39702 6.22246 9.39702 6.75484C9.39702 7.37985 8.74889 7.73861 8.36696 8.06267C8.03134 8.352 7.59153 8.82654 7.59153 9.82187C7.59153 10.4237 7.75353 10.5973 8.22807 10.5973C8.79518 10.5973 8.91089 10.3427 8.91089 10.1228C8.91089 9.52095 8.92251 9.17375 9.55905 8.6761C9.87152 8.43305 10.8553 7.64604 10.8553 6.55811C10.8553 5.47018 9.87152 4.64844 8.3901 4.64844Z" fill="#226ED2"/>
<path d="M8.5 0C3.80229 0 0 3.80166 0 8.5V16.3359C0 16.7027 0.297301 17 0.664062 17H8.5C13.1977 17 17 13.1983 17 8.5C17 3.80229 13.1983 0 8.5 0ZM8.5 15.6719H1.32812V8.5C1.32812 4.53631 4.53578 1.32812 8.5 1.32812C12.4637 1.32812 15.6719 4.53578 15.6719 8.5C15.6719 12.4637 12.4642 15.6719 8.5 15.6719Z" fill="#226ED2"/>
</svg>
