<svg width="41" height="41" viewBox="0 0 41 41" fill="none" xmlns="http://www.w3.org/2000/svg">
<path d="M40.6534 23.4216L38.34 4.34197C38.2265 3.4148 37.7498 2.57053 37.0145 1.99441C36.2792 1.41829 35.3454 1.15737 34.418 1.26889L5.16376 4.81636C4.27974 4.92503 3.46951 5.36398 2.89563 6.04513C2.32176 6.72629 2.02668 7.59926 2.06962 8.4889C1.53771 8.79902 1.09633 9.24307 0.789414 9.77683C0.482499 10.3106 0.320764 10.9154 0.320312 11.5311V30.7499C0.321351 31.6841 0.692903 32.5797 1.35345 33.2402C2.014 33.9007 2.9096 34.2723 3.84375 34.2733H15.9384C15.9558 34.4109 16.0029 34.543 16.0763 34.6606C16.1496 34.7783 16.2476 34.8787 16.3634 34.9549L18.3299 36.2483L19.1601 38.4505C19.2321 38.6401 19.362 38.8022 19.5315 38.9137C19.701 39.0252 19.9013 39.0803 20.1039 39.0713L22.4548 38.9621L24.4205 40.2552C24.5901 40.3667 24.7905 40.4217 24.9932 40.4123C25.1959 40.4029 25.3905 40.3296 25.5489 40.2028L27.3867 38.7329L29.7375 38.6237C29.9402 38.6143 30.1347 38.541 30.2932 38.4142C30.4517 38.2875 30.5659 38.1138 30.6196 37.9181L31.2422 35.6484L32.9612 34.2733H33.3125C34.2467 34.2723 35.1423 33.9007 35.8028 33.2402C36.4634 32.5797 36.8349 31.6841 36.8359 30.7499V27.4339L37.5807 27.3435C38.5082 27.2309 39.3531 26.7544 39.9294 26.019C40.5057 25.2835 40.7662 24.3492 40.6537 23.4216H40.6534ZM2.24219 15.0546H34.9141V18.2577H2.24219V15.0546ZM34.9141 13.1327H2.24219V11.5311C2.24268 11.1065 2.41157 10.6995 2.71181 10.3992C3.01206 10.099 3.41914 9.93007 3.84375 9.92958H33.3125C33.7371 9.93007 34.1442 10.099 34.4444 10.3992C34.7447 10.6995 34.9136 11.1065 34.9141 11.5311V13.1327ZM29.7979 34.3428C29.6394 34.4696 29.5252 34.6433 29.4715 34.8389L28.951 36.7363L26.9856 36.8276C26.7829 36.837 26.5884 36.9104 26.4299 37.0372L24.8936 38.2662L23.2499 37.1851C23.0931 37.082 22.9095 37.027 22.7218 37.027C22.707 37.027 22.6921 37.027 22.6772 37.028L20.7118 37.1193L20.0177 35.2783C19.946 35.0885 19.8161 34.9261 19.6466 34.8146L18.0029 33.7335L18.5234 31.8362C18.5771 31.6405 18.5675 31.4328 18.4959 31.2429L17.8014 29.4015L19.3377 28.1724C19.4963 28.0456 19.6105 27.8718 19.6641 27.6759L20.1847 25.7786L22.15 25.6873C22.3527 25.6779 22.5473 25.6046 22.7058 25.4778L24.2421 24.2487L25.8857 25.3297C26.0552 25.4413 26.2557 25.4963 26.4585 25.4868L28.4238 25.3956L29.118 27.2365C29.1896 27.4264 29.3195 27.5888 29.489 27.7003L31.1327 28.7813L30.6122 30.6787C30.5585 30.8744 30.5681 31.082 30.6397 31.2719L31.3339 33.1129L29.7979 34.3428ZM33.3125 32.3515H33.1008L32.5482 30.8868L33.1708 28.6173C33.2245 28.4216 33.2149 28.2139 33.1433 28.024C33.0717 27.8341 32.9418 27.6718 32.7723 27.5602L30.8062 26.2668L29.9759 24.0647C29.9041 23.8749 29.7741 23.7127 29.6046 23.6012C29.4351 23.4897 29.2348 23.4346 29.0321 23.4437L26.6812 23.553L24.7152 22.2595C24.5456 22.148 24.3451 22.093 24.1424 22.1024C23.9397 22.1118 23.7452 22.1851 23.5867 22.3119L21.7492 23.7822L19.3983 23.8914C19.1956 23.9009 19.0011 23.9742 18.8426 24.101C18.6842 24.2278 18.5699 24.4015 18.5162 24.5972L17.8936 26.8667L16.0557 28.3368C15.8973 28.4636 15.783 28.6372 15.7293 28.8328C15.6756 29.0284 15.6852 29.236 15.7567 29.4259L16.5871 31.628L16.389 32.3515H3.84375C3.41914 32.351 3.01206 32.1821 2.71181 31.8818C2.41157 31.5816 2.24268 31.1745 2.24219 30.7499V20.1796H34.9141V30.7499C34.9136 31.1745 34.7447 31.5816 34.4444 31.8818C34.1442 32.1821 33.7371 32.351 33.3125 32.3515ZM38.4164 24.8335C38.0581 25.3385 37.4144 25.4581 36.8359 25.4981V11.5311C36.8349 10.597 36.4634 9.7014 35.8028 9.04085C35.1423 8.3803 34.2467 8.00875 33.3125 8.00771H4.01672C4.08188 7.67578 4.25028 7.37294 4.49786 7.14245C4.74544 6.91195 5.05953 6.7656 5.39526 6.7243L34.6498 3.17676C35.0713 3.12612 35.4957 3.24473 35.8299 3.50657C36.1641 3.7684 36.3808 4.15209 36.4325 4.57348L38.7459 23.6531C38.7718 23.8619 38.756 24.0737 38.6994 24.2763C38.6428 24.4789 38.5466 24.6683 38.4164 24.8335Z" fill="#9C9C9C"/>
<path d="M6.40625 23.3828H3.84375C3.58889 23.3828 3.34448 23.4841 3.16426 23.6643C2.98405 23.8445 2.88281 24.0889 2.88281 24.3438C2.88281 24.5986 2.98405 24.843 3.16426 25.0232C3.34448 25.2034 3.58889 25.3047 3.84375 25.3047H6.40625C6.66111 25.3047 6.90552 25.2034 7.08574 25.0232C7.26595 24.843 7.36719 24.5986 7.36719 24.3438C7.36719 24.0889 7.26595 23.8445 7.08574 23.6643C6.90552 23.4841 6.66111 23.3828 6.40625 23.3828Z" fill="#9C9C9C"/>
<path d="M15.375 23.3828H10.25C9.99514 23.3828 9.75073 23.4841 9.57051 23.6643C9.3903 23.8445 9.28906 24.0889 9.28906 24.3438C9.28906 24.5986 9.3903 24.843 9.57051 25.0232C9.75073 25.2034 9.99514 25.3047 10.25 25.3047H15.375C15.6299 25.3047 15.8743 25.2034 16.0545 25.0232C16.2347 24.843 16.3359 24.5986 16.3359 24.3438C16.3359 24.0889 16.2347 23.8445 16.0545 23.6643C15.8743 23.4841 15.6299 23.3828 15.375 23.3828Z" fill="#9C9C9C"/>
<path d="M26.4511 28.0153L21.3261 33.1403C20.4316 34.0095 21.8166 35.3937 22.6851 34.4993L27.8101 29.3743C27.9904 29.1941 28.0916 28.9497 28.0916 28.6948C28.0916 28.44 27.9904 28.1956 27.8101 28.0153C27.6299 27.8351 27.3855 27.7339 27.1306 27.7339C26.8758 27.7339 26.6313 27.8351 26.4511 28.0153Z" fill="#9C9C9C"/>
<path d="M26.8101 34.4609C27.3408 34.4609 27.771 34.0307 27.771 33.5C27.771 32.9693 27.3408 32.5391 26.8101 32.5391C26.2793 32.5391 25.8491 32.9693 25.8491 33.5C25.8491 34.0307 26.2793 34.4609 26.8101 34.4609Z" fill="#9C9C9C"/>
<path d="M22.3257 29.9766C22.8564 29.9766 23.2866 29.5463 23.2866 29.0156C23.2866 28.4849 22.8564 28.0547 22.3257 28.0547C21.795 28.0547 21.3647 28.4849 21.3647 29.0156C21.3647 29.5463 21.795 29.9766 22.3257 29.9766Z" fill="#9C9C9C"/>
</svg>
