<svg width="44" height="44" viewBox="0 0 44 44" fill="none" xmlns="http://www.w3.org/2000/svg">
<g clip-path="url(#clip0)">
<path d="M33.7223 18.3937C33.7223 9.90537 26.841 3.02441 18.3527 3.02441C9.86435 3.02441 2.9834 9.90537 2.9834 18.3937C2.9834 26.882 9.86435 33.7633 18.3527 33.7633C26.8369 33.7536 33.7123 26.8782 33.7223 18.3937ZM4.44711 18.3937C4.44711 10.7141 10.6731 4.48812 18.3527 4.48812C26.0327 4.48812 32.2583 10.7141 32.2583 18.3937C32.2583 26.0737 26.0327 32.2996 18.3527 32.2996C10.6765 32.2906 4.45576 26.0702 4.44711 18.3937Z" fill="#9C9C9C"/>
<path d="M39.4896 35.3914L39.4882 35.3893L39.4862 35.3876L37.9359 33.8374C37.6624 33.5618 37.2899 33.407 36.9018 33.4081H36.9004C36.7737 33.4098 36.6477 33.4282 36.5259 33.4624L34.6865 31.6231C34.8226 31.1204 34.6803 30.5831 34.313 30.2137L33.1879 29.0838C38.774 21.3366 37.473 10.598 30.1985 4.40912C22.9239 -1.7798 12.1157 -1.34325 5.36388 5.41204C-1.38794 12.1673 -1.81895 22.9759 4.37377 30.2473C10.5661 37.5188 21.3054 38.8142 29.0498 33.2242L30.1722 34.3542C30.5381 34.7278 31.0788 34.8711 31.5815 34.7274L33.4208 36.5671C33.2775 37.0698 33.4212 37.6109 33.7951 37.9761L35.3467 39.5274L35.3481 39.5295L35.3502 39.5309L38.971 43.1517C39.7067 43.9102 40.7937 44.2131 41.8157 43.9448C42.8377 43.6765 43.6357 42.8786 43.904 41.8566C44.1723 40.835 43.869 39.7476 43.1108 39.0123L39.4896 35.3914ZM1.5194 18.3936C1.51386 10.9771 6.36335 4.43058 13.46 2.27483C20.5566 0.119425 28.2279 2.86232 32.3483 9.02908C36.4691 15.1958 36.0682 23.3328 31.3613 29.0644C31.3437 29.0862 31.3257 29.1073 31.308 29.1288C30.6402 29.933 29.8997 30.6738 29.0958 31.342C29.0695 31.3638 29.0432 31.386 29.0169 31.4078C23.9871 35.5361 17.0275 36.3937 11.146 33.6102C5.26453 30.8265 1.51559 24.9007 1.5194 18.3936ZM30.5059 32.0551C30.6454 31.9309 30.7818 31.8038 30.9175 31.6754C31.1647 31.4413 31.4053 31.2007 31.6393 30.9532C31.7664 30.8189 31.8924 30.6839 32.0153 30.5457C32.1039 30.4464 32.1998 30.3539 32.2864 30.2525L33.2768 31.2475L33.2782 31.2495L31.2083 33.3194V33.3198L30.2172 32.3224C30.3169 32.2372 30.4079 32.1424 30.5059 32.0551ZM33.7954 32.8019L35.3478 34.3542L34.313 35.389L32.7607 33.8367L33.7954 32.8019ZM36.9004 34.8714L37.9356 35.9069L35.8657 37.9768L34.8306 36.9413L36.9004 34.8714ZM42.0757 42.1169C41.4965 42.6698 40.585 42.6698 40.0058 42.1169L36.9008 39.0116L38.9703 36.942L42.0757 40.047C42.3502 40.3212 42.5043 40.6937 42.5043 41.0818C42.5043 41.4699 42.3502 41.8424 42.0757 42.1169Z" fill="#9C9C9C"/>
<path d="M21.8659 28.4058C22.2363 27.8418 22.6753 27.3267 23.1731 26.8718C24.3308 25.9478 24.9311 24.4927 24.7621 23.0211C25.5944 22.4277 26.1611 21.5324 26.3415 20.5267C26.6302 18.04 25.9492 17.7212 25.6927 17.6011C25.5383 17.5287 25.37 17.4899 25.1994 17.4875C25.2004 17.3677 25.1973 17.2351 25.1966 17.1101C26.8642 16.3271 27.8668 15.2407 27.8668 14.0024C27.8668 12.502 26.4211 11.2093 23.9046 10.4054C23.7159 9.42429 23.4213 8.46637 23.0267 7.54826C22.8494 7.15464 22.5077 6.85899 22.0926 6.74024C21.6775 6.6215 21.2309 6.69178 20.8726 6.93238C20.7567 7.01028 20.6303 7.1034 20.4922 7.20414C19.8978 7.73901 19.1482 8.06963 18.3523 8.14718C17.5568 8.06963 16.8066 7.73901 16.2125 7.2038C16.0747 7.10305 15.948 7.01028 15.8321 6.93238C15.4737 6.69178 15.0275 6.6215 14.6128 6.7399C14.1977 6.85864 13.8563 7.15429 13.6794 7.54757C13.2841 8.46568 12.9895 9.42394 12.8004 10.4054C10.2836 11.2093 8.83789 12.502 8.83789 14.0024C8.83789 15.2407 9.84082 16.3271 11.5084 17.1098C11.5077 17.2344 11.5043 17.3667 11.5053 17.4865C11.3346 17.4892 11.1667 17.5283 11.0123 17.6011C10.7555 17.7212 10.0745 18.04 10.366 20.5513C10.5519 21.5477 11.1169 22.4332 11.9429 23.0207C11.7736 24.4924 12.3739 25.9475 13.5316 26.8718C14.0298 27.3267 14.4687 27.8418 14.8388 28.4058C15.4256 29.2401 16.0325 30.1035 17.4848 30.1035H19.2199C20.6725 30.1035 21.2791 29.2401 21.8659 28.4058ZM13.0023 18.4288C12.9884 18.1847 12.9759 17.9362 12.9718 17.6679C14.2205 18.0331 15.5066 18.2571 16.8055 18.3353C16.8758 18.3405 16.9461 18.345 17.0167 18.3495C17.186 18.3596 17.355 18.3696 17.5274 18.3758C17.5589 18.3769 17.5893 18.3803 17.6208 18.3814V19.4622C16.9281 19.7582 16.1772 19.8932 15.4249 19.8572C14.4237 19.835 13.5063 19.2939 13.0023 18.4288ZM19.0842 18.3814C19.116 18.3803 19.1462 18.3769 19.1777 18.3758C19.3501 18.3696 19.519 18.3596 19.6883 18.3495C19.7593 18.345 19.8292 18.3405 19.8995 18.3353C21.1984 18.2571 22.4845 18.0331 23.7332 17.6679C23.7291 17.9362 23.717 18.1847 23.7028 18.4288C23.1984 19.2939 22.281 19.8347 21.2801 19.8572C20.5278 19.8925 19.7776 19.7585 19.0842 19.465V18.3814ZM15.0175 8.14891C15.1175 8.21607 15.2269 8.29604 15.3456 8.38294C16.1859 9.11133 17.2424 9.54303 18.3523 9.61123C19.4622 9.54303 20.5192 9.11167 21.3594 8.38328C21.4778 8.29604 21.5872 8.21607 21.6938 8.15237C22.1117 9.14352 22.4063 10.1825 22.5711 11.2456C22.597 11.4045 22.6175 11.562 22.6372 11.7196C22.6514 11.8307 22.6677 11.9401 22.6791 12.0536C22.7005 12.2669 22.7137 12.4774 22.7241 12.6865C22.7269 12.7439 22.7334 12.7997 22.7355 12.8575C21.6093 13.4654 20.3731 13.8431 19.0991 13.9684C18.8567 13.9902 18.6075 14.0024 18.3523 14.0024C17.6451 13.9996 16.9406 13.9106 16.2544 13.7375C15.4589 13.5395 14.6913 13.2435 13.9692 12.8558C13.9709 12.7986 13.9775 12.7436 13.9803 12.6868C13.991 12.4767 14.0041 12.2659 14.0256 12.0519C14.037 11.939 14.0533 11.8303 14.0675 11.7199C14.0872 11.5624 14.108 11.4045 14.1333 11.2456C14.2981 10.1804 14.5951 9.14006 15.0175 8.14891ZM10.3019 14.0024C10.3019 13.3197 11.1574 12.5909 12.5546 12.0353C12.5501 12.0838 12.5519 12.1301 12.5481 12.1783C12.5183 12.5387 12.4975 12.9022 12.4975 13.2705C12.4975 13.5153 12.6197 13.7438 12.8233 13.8795C14.4892 14.898 16.3998 15.4463 18.3523 15.4661C20.3049 15.4463 22.2155 14.898 23.8814 13.8795C24.085 13.7438 24.2075 13.5153 24.2075 13.2705C24.2075 12.9022 24.1864 12.5387 24.157 12.1779C24.1532 12.1298 24.1546 12.0838 24.1504 12.0353C25.5476 12.5909 26.4031 13.3197 26.4031 14.0024C26.4031 14.6851 25.5591 15.4086 24.1511 15.9653C24.0538 16.0041 23.9506 16.039 23.8496 16.0757C22.3886 16.5697 20.8636 16.8491 19.3224 16.9045C19.2791 16.9066 19.2369 16.9104 19.1932 16.9125C18.9177 16.9239 18.6373 16.9294 18.3523 16.9298C18.0674 16.9301 17.7874 16.9242 17.5118 16.9125C17.4678 16.9104 17.4256 16.9066 17.3823 16.9045C15.8411 16.8491 14.3161 16.5697 12.8551 16.0757C12.7544 16.039 12.6509 16.0041 12.5539 15.9653C11.1456 15.4086 10.3019 14.6857 10.3019 14.0024ZM16.036 27.5635C15.6004 26.9043 15.0836 26.3026 14.4978 25.7723C13.3221 24.7389 13.363 23.9084 13.4201 22.759L13.426 22.6406C13.4381 22.381 13.3118 22.1341 13.0943 21.9922C13.0511 21.9638 13.0047 21.9403 12.9562 21.9222C12.3691 21.5889 11.954 21.0187 11.8169 20.3578C11.7733 19.9794 11.7577 19.5982 11.7702 19.2178C12.5408 20.506 13.9242 21.3022 15.4249 21.3213C16.4341 21.3673 17.4391 21.1662 18.3523 20.7348C19.266 21.1662 20.271 21.3673 21.2801 21.3213C22.7809 21.3019 24.1643 20.5056 24.9345 19.2174C24.947 19.5882 24.9328 19.959 24.892 20.3277C24.7621 21.0007 24.3443 21.5833 23.7485 21.9222C23.7 21.9403 23.654 21.9638 23.6107 21.9922C23.3929 22.1341 23.2669 22.381 23.279 22.6406L23.2849 22.759C23.342 23.908 23.3825 24.7389 22.2069 25.7723C21.6211 26.3026 21.1042 26.9043 20.6687 27.5635C20.0944 28.3812 19.8804 28.6398 19.2199 28.6398H17.4848C16.8242 28.6398 16.6106 28.3812 16.036 27.5635Z" fill="#9C9C9C"/>
<path d="M21.0664 24.4665C20.7818 24.1812 20.3203 24.1788 20.033 24.4613C19.7768 24.7265 19.4462 24.9079 19.0844 24.9809C18.6804 24.9809 18.3525 25.3084 18.3525 25.7128C18.3525 26.1172 18.6804 26.4447 19.0844 26.4447C19.8356 26.3716 20.5367 26.0365 21.0657 25.4985C21.3509 25.2136 21.3509 24.7514 21.0664 24.4665Z" fill="#9C9C9C"/>
</g>
<defs>
<clipPath id="clip0">
<rect width="44" height="44" fill="white"/>
</clipPath>
</defs>
</svg>
