<svg width="41" height="41" viewBox="0 0 41 41" fill="none" xmlns="http://www.w3.org/2000/svg">
<g clip-path="url(#clip0)">
<path d="M39.5991 26.137H39.489V5.46127C39.489 4.46814 38.681 3.66016 37.6879 3.66016H27.2836C26.952 3.66016 26.6832 3.9289 26.6832 4.2605C26.6832 4.59211 26.9521 4.86085 27.2836 4.86085H37.688C38.019 4.86085 38.2883 5.13015 38.2883 5.46119V26.1369H36.036C34.5852 24.8337 32.7136 24.1163 30.7632 24.1163C28.8128 24.1163 26.9411 24.8339 25.4905 26.1369H16.2788V5.46127C16.2788 5.13023 16.5481 4.86093 16.8791 4.86093H24.335C24.6666 4.86093 24.9354 4.59219 24.9354 4.26058C24.9354 3.92898 24.6665 3.66024 24.335 3.66024H16.8791C15.886 3.66024 15.078 4.46822 15.078 5.46135V8.18145H9.34912C8.36496 8.18145 7.42981 8.60706 6.7835 9.34931L4.79075 11.6375C4.57302 11.8876 4.59913 12.2668 4.84921 12.4846C4.96292 12.5837 5.10338 12.6322 5.24328 12.6322C5.4108 12.6322 5.5776 12.5624 5.69628 12.4261L7.68902 10.1378C8.10727 9.65753 8.71234 9.38214 9.34912 9.38214H11.9297V17.953H2.81114V16.863C2.81114 16.1383 3.07324 15.4382 3.54922 14.8917L3.82437 14.5758C4.0421 14.3257 4.01592 13.9465 3.76583 13.7287C3.51583 13.5109 3.13658 13.5372 2.91877 13.7872L2.6437 14.1031C1.97737 14.8682 1.61037 15.8484 1.61037 16.863V26.137H1.40081C0.628453 26.137 0 26.7653 0 27.5378V31.2106C0 31.9831 0.628453 32.6115 1.40089 32.6115H4.39997C4.6993 35.2679 6.95855 37.3394 9.69346 37.3394C12.4284 37.3394 14.6876 35.2679 14.9869 32.6115H15.5787C15.9103 32.6115 16.1791 32.3428 16.1791 32.0112C16.1791 31.6796 15.9102 31.4108 15.5787 31.4108H14.9869C14.6876 28.7545 12.4284 26.6829 9.69346 26.6829C6.95855 26.6829 4.6993 28.7545 4.39997 31.4108H1.40089C1.29054 31.4108 1.20077 31.3211 1.20077 31.2107V27.5379C1.20077 27.4275 1.29054 27.3377 1.40089 27.3377H4.43633C4.72389 27.3377 4.9984 27.233 5.2094 27.0426C6.4414 25.93 8.03376 25.3171 9.69346 25.3171C11.353 25.3171 12.9455 25.9299 14.1776 27.0427C14.3884 27.233 14.6629 27.3377 14.9506 27.3377H25.5062C25.7938 27.3377 26.0683 27.233 26.2793 27.0426C27.5112 25.93 29.1038 25.3171 30.7634 25.3171C32.423 25.3171 34.0154 25.9299 35.2475 27.0427C35.4583 27.233 35.7328 27.3377 36.0205 27.3377H39.5994C39.7097 27.3377 39.7995 27.4275 39.7995 27.5379V31.2107C39.7995 31.3211 39.7097 31.4108 39.5994 31.4108H36.0569C35.7576 28.7545 33.4984 26.6829 30.7635 26.6829C28.0285 26.6829 25.7693 28.7545 25.47 31.4108H18.3709C18.0393 31.4108 17.7705 31.6796 17.7705 32.0112C17.7705 32.3428 18.0394 32.6115 18.3709 32.6115H25.47C25.7693 35.2679 28.0285 37.3394 30.7635 37.3394C33.4984 37.3394 35.7576 35.2679 36.0569 32.6115H39.5994C40.3718 32.6115 41.0002 31.9831 41.0002 31.2106V27.5378C41 26.7653 40.3715 26.137 39.5991 26.137ZM9.69338 27.8836C11.9693 27.8836 13.8209 29.7352 13.8209 32.0112C13.8209 34.2872 11.9694 36.1387 9.69338 36.1387C7.4174 36.1387 5.56583 34.2872 5.56583 32.0112C5.56583 29.7352 7.41748 27.8836 9.69338 27.8836ZM2.81114 21.6373H4.80741C5.12428 21.6373 5.38205 21.8951 5.38205 22.2119V22.4631C5.38205 22.7799 5.12428 23.0376 4.80741 23.0376H2.81114V21.6373ZM9.69338 24.1164C7.74299 24.1164 5.87125 24.8339 4.42063 26.137H2.81106V24.2384H4.80733C5.78629 24.2384 6.58266 23.4419 6.58266 22.4631V22.2119C6.58266 21.233 5.78621 20.4365 4.80733 20.4365H2.81114V19.1537H12.1298C12.6816 19.1537 13.1304 18.7048 13.1304 18.1531V9.38214H15.078V26.137H14.966C13.5153 24.8337 11.6438 24.1164 9.69338 24.1164ZM30.7632 36.1386C28.4873 36.1386 26.6357 34.2871 26.6357 32.0111C26.6357 29.7351 28.4872 27.8835 30.7632 27.8835C33.0392 27.8835 34.8908 29.7351 34.8908 32.0111C34.8908 34.2871 33.0391 36.1386 30.7632 36.1386Z" fill="#9C9C9C"/>
<path d="M9.69317 34.2999C10.9553 34.2999 11.982 33.2732 11.982 32.011C11.982 30.7489 10.9553 29.7222 9.69317 29.7222C8.43106 29.7222 7.4043 30.7489 7.4043 32.011C7.4043 33.2732 8.43114 34.2999 9.69317 34.2999ZM9.69317 30.9229C10.2932 30.9229 10.7814 31.4109 10.7814 32.011C10.7814 32.6111 10.2932 33.0992 9.69317 33.0992C9.09314 33.0992 8.60499 32.6111 8.60499 32.011C8.60499 31.4109 9.09322 30.9229 9.69317 30.9229Z" fill="#9C9C9C"/>
<path d="M30.7635 29.7222C29.5014 29.7222 28.4746 30.7489 28.4746 32.011C28.4746 33.2732 29.5014 34.2999 30.7635 34.2999C32.0256 34.2999 33.0524 33.2732 33.0524 32.011C33.0524 30.7489 32.0256 29.7222 30.7635 29.7222ZM30.7635 33.0992C30.1635 33.0992 29.6753 32.6111 29.6753 32.011C29.6753 31.4109 30.1635 30.9229 30.7635 30.9229C31.3635 30.9229 31.8517 31.4109 31.8517 32.011C31.8517 32.6111 31.3635 33.0992 30.7635 33.0992Z" fill="#9C9C9C"/>
<path d="M10.0854 20.4868H8.53199C8.20038 20.4868 7.93164 20.7556 7.93164 21.0872C7.93164 21.4188 8.20046 21.6875 8.53199 21.6875H10.0854C10.417 21.6875 10.6858 21.4188 10.6858 21.0872C10.6858 20.7556 10.4169 20.4868 10.0854 20.4868Z" fill="#9C9C9C"/>
<path d="M20.8974 13.6821C21.229 13.6821 21.4977 13.4134 21.4977 13.0818C21.4977 12.7502 21.2289 12.4814 20.8974 12.4814H18.864C18.5324 12.4814 18.2637 12.7502 18.2637 13.0818V18.0986C18.2637 18.4302 18.5325 18.699 18.864 18.699C19.1956 18.699 19.4644 18.4302 19.4644 18.0986V16.143H20.7358C21.0674 16.143 21.3362 15.8743 21.3362 15.5427C21.3362 15.2111 21.0674 14.9423 20.7358 14.9423H19.4644V13.6822H20.8974V13.6821Z" fill="#9C9C9C"/>
<path d="M30.996 13.6914C31.3277 13.6914 31.5964 13.4227 31.5964 13.0911C31.5964 12.7595 31.3276 12.4907 30.996 12.4907H28.886C28.5544 12.4907 28.2856 12.7595 28.2856 13.0911V18.0988C28.2856 18.4304 28.5545 18.6991 28.886 18.6991H30.996C31.3277 18.6991 31.5964 18.4304 31.5964 18.0988C31.5964 17.7671 31.3276 17.4984 30.996 17.4984H29.4864V16.1953H30.8405C31.1721 16.1953 31.4409 15.9266 31.4409 15.595C31.4409 15.2633 31.1721 14.9946 30.8405 14.9946H29.4864V13.6916H30.996V13.6914Z" fill="#9C9C9C"/>
<path d="M35.6943 13.6914C36.0259 13.6914 36.2946 13.4227 36.2946 13.0911C36.2946 12.7595 36.0258 12.4907 35.6943 12.4907H33.5842C33.2526 12.4907 32.9839 12.7595 32.9839 13.0911V18.0988C32.9839 18.4304 33.2527 18.6991 33.5842 18.6991H35.6943C36.0259 18.6991 36.2946 18.4304 36.2946 18.0988C36.2946 17.7671 36.0258 17.4984 35.6943 17.4984H34.1847V16.1953H35.5388C35.8704 16.1953 36.1391 15.9266 36.1391 15.595C36.1391 15.2633 35.8703 14.9946 35.5388 14.9946H34.1847V13.6916H35.6943V13.6914Z" fill="#9C9C9C"/>
<path d="M26.8578 14.3815C26.8578 13.3262 25.9659 12.4678 24.8697 12.4678H23.5268C23.5265 12.4678 23.5262 12.4678 23.526 12.4678C23.5257 12.4678 23.5254 12.4678 23.5252 12.4678C23.1935 12.4678 22.9248 12.7365 22.9248 13.0681V18.1219C22.9248 18.4535 23.1936 18.7223 23.5252 18.7223C23.8568 18.7223 24.1255 18.4535 24.1255 18.1219V16.6082L25.8068 18.5186C25.9255 18.6534 26.0912 18.7223 26.2577 18.7223C26.3986 18.7223 26.5401 18.6729 26.6541 18.5726C26.903 18.3536 26.9272 17.9742 26.7082 17.7253L25.3906 16.2282C26.2349 16.0072 26.8578 15.2632 26.8578 14.3815ZM24.8697 15.0946C24.6982 15.0946 24.4026 15.0959 24.1329 15.0971C24.1316 14.8336 24.1296 13.9444 24.1289 13.6685H24.8697C25.2965 13.6685 25.6571 13.995 25.6571 14.3815C25.6571 14.768 25.2965 15.0946 24.8697 15.0946Z" fill="#9C9C9C"/>
</g>
<defs>
<clipPath id="clip0">
<rect width="41" height="41" fill="white"/>
</clipPath>
</defs>
</svg>
