<svg width="43" height="43" viewBox="0 0 43 43" fill="none" xmlns="http://www.w3.org/2000/svg">
<g clip-path="url(#clip0)">
<path d="M40.6166 24.3507C40.1604 24.2627 39.7206 24.5611 39.6329 25.0165C37.9635 33.6804 30.3376 39.9686 21.5005 39.9686C12.8495 39.9686 5.35942 33.9425 3.48144 25.5609L3.70064 25.7801C3.86466 25.9441 4.07958 26.0261 4.29449 26.0261C4.50941 26.0261 4.72433 25.9441 4.88826 25.7801C5.21631 25.4522 5.21631 24.9205 4.88835 24.5924L3.16121 22.8652C3.00374 22.7077 2.79008 22.6191 2.56736 22.6191C2.34463 22.6191 2.13097 22.7077 1.9735 22.8652L0.246447 24.5924C-0.081512 24.9204 -0.081512 25.4521 0.246531 25.7801C0.574406 26.1082 1.10628 26.1081 1.43424 25.7801L1.74515 25.4691C3.61943 34.8524 11.9055 41.6483 21.5005 41.6483C31.1413 41.6483 39.4608 34.7873 41.2823 25.3344C41.3701 24.8789 41.072 24.4385 40.6166 24.3507Z" fill="#9C9C9C"/>
<path d="M42.7542 17.2197C42.4264 16.8917 41.8945 16.8918 41.5665 17.2198L41.2556 17.5307C39.3814 8.14749 31.0953 1.35156 21.5003 1.35156C11.8595 1.35156 3.53999 8.21258 1.71845 17.6655C1.63069 18.1211 1.92875 18.5614 2.3842 18.6492C2.84023 18.7367 3.28006 18.4387 3.36782 17.9834C5.03735 9.3195 12.6632 3.03125 21.5003 3.03125C30.1513 3.03125 37.6414 9.05738 39.5193 17.439L39.3001 17.2198C38.9723 16.8919 38.4406 16.8918 38.1124 17.2197C37.7844 17.5477 37.7844 18.0794 38.1123 18.4074L39.8394 20.1347C39.9969 20.2922 40.2105 20.3807 40.4333 20.3807C40.656 20.3807 40.8696 20.2922 41.0271 20.1347L42.7542 18.4074C43.0824 18.0795 43.0824 17.5477 42.7542 17.2197Z" fill="#9C9C9C"/>
<path d="M21.5003 35.6965C29.3284 35.6965 35.697 29.3279 35.697 21.4999C35.697 13.6718 29.3284 7.30322 21.5003 7.30322C13.6723 7.30322 7.30371 13.6718 7.30371 21.4999C7.30371 29.3279 13.6723 35.6965 21.5003 35.6965ZM21.5003 8.98291C28.4023 8.98291 34.0173 14.5979 34.0173 21.4999C34.0173 28.4018 28.4023 34.0168 21.5003 34.0168C14.5984 34.0168 8.9834 28.4018 8.9834 21.4999C8.9834 14.5979 14.5984 8.98291 21.5003 8.98291Z" fill="#9C9C9C"/>
<path d="M22.3867 25.2023C22.4885 25.2429 22.5934 25.262 22.6967 25.262C23.0307 25.262 23.3464 25.0615 23.4774 24.7323L25.8016 18.8887C25.973 18.4577 25.7626 17.9693 25.3317 17.7979C24.9008 17.6266 24.4123 17.8369 24.2409 18.268L21.9166 24.1115C21.7452 24.5426 21.9557 25.0309 22.3867 25.2023Z" fill="#9C9C9C"/>
<path d="M27.1327 19.4178H29.061L27.0099 24.0836C26.8232 24.5083 27.0161 25.0038 27.4407 25.1905C27.5507 25.2388 27.6654 25.2618 27.7783 25.2618C28.1013 25.2617 28.4093 25.0743 28.5475 24.7597L31.1164 18.9161C31.2306 18.6563 31.206 18.3566 31.0509 18.1191C30.8958 17.8815 30.6314 17.7383 30.3477 17.7383H27.1328C26.6691 17.7383 26.293 18.1144 26.293 18.5781C26.2929 19.0417 26.6689 19.4178 27.1327 19.4178Z" fill="#9C9C9C"/>
<path d="M16.3823 23.1238C16.5334 23.3797 16.8083 23.5367 17.1055 23.5367H19.1822C19.1799 23.8462 19.1774 24.1428 19.1751 24.4143C19.1711 24.8781 19.5439 25.2573 20.0077 25.2614H20.0151C20.4755 25.2614 20.8507 24.8901 20.8548 24.4287C20.8567 24.209 20.8592 23.897 20.8621 23.5322C21.285 23.4886 21.615 23.1313 21.615 22.6968C21.615 22.2661 21.2909 21.9112 20.8733 21.8626C20.8808 20.4956 20.8837 19.1193 20.8665 18.9132C20.8216 18.3731 20.4917 17.9311 20.0261 17.7868C19.5612 17.6431 19.0723 17.8166 18.7181 18.2511C18.3856 18.659 16.9654 21.2123 16.3702 22.2911C16.2266 22.5514 16.2312 22.8679 16.3823 23.1238ZM19.1985 20.6842C19.1973 21.0469 19.1955 21.4461 19.1932 21.857H18.534C18.7673 21.4412 18.9942 21.0405 19.1985 20.6842Z" fill="#9C9C9C"/>
<path d="M15.8743 25.3053C16.3381 25.2996 16.7093 24.9188 16.7035 24.455C16.6978 23.9949 16.3229 23.6257 15.864 23.6257C15.8604 23.6257 15.8568 23.6257 15.8531 23.6258C15.3933 23.6315 14.9103 23.6358 14.4738 23.6379C14.776 23.2288 15.1639 22.6928 15.6539 21.9926C16.0405 21.4403 16.2932 20.9152 16.4053 20.4321C16.4328 20.3249 16.4556 20.1733 16.4559 20.0163C16.4577 18.7287 15.4084 17.6812 14.1207 17.6812C13.0074 17.6812 12.0439 18.4733 11.8294 19.5646C11.74 20.0197 12.0364 20.4611 12.4916 20.5506C12.947 20.6402 13.3882 20.3435 13.4776 19.8883C13.5376 19.5826 13.8081 19.3608 14.1207 19.3608C14.4678 19.3608 14.7527 19.6321 14.7748 19.9737L14.7601 20.0887C14.71 20.2802 14.5849 20.5906 14.2779 21.0294C13.3543 22.3489 12.8033 23.0703 12.5074 23.4578C12.1279 23.9547 11.9188 24.2284 12.0585 24.6829C12.1407 24.9501 12.3505 25.1632 12.6203 25.2533C12.7325 25.2907 12.8222 25.3205 13.9692 25.3205C14.4195 25.3205 15.0328 25.3159 15.8743 25.3053Z" fill="#9C9C9C"/>
</g>
<defs>
<clipPath id="clip0">
<rect width="43" height="43" fill="white"/>
</clipPath>
</defs>
</svg>
