<?xml version="1.0" encoding="utf-8"?>
<!-- Generator: Adobe Illustrator 16.0.0, SVG Export Plug-In . SVG Version: 6.00 Build 0)  -->
<!DOCTYPE svg PUBLIC "-//W3C//DTD SVG 1.1//EN" "http://www.w3.org/Graphics/SVG/1.1/DTD/svg11.dtd">
<svg version="1.1" id="Layer_1" xmlns="http://www.w3.org/2000/svg" xmlns:xlink="http://www.w3.org/1999/xlink" x="0px" y="0px"
	 width="235.5px" height="282.377px" viewBox="0 0 235.5 282.377" enable-background="new 0 0 235.5 282.377" xml:space="preserve">
<g>
	<g>
		<g>
			<g>
				<defs>
					<path id="SVGID_1_" d="M230.938,30.514c-23.854-13.176-50.916-19.393-72.649-22.319c-23.731-3.188-41.101-2.46-41.015-2.584
						c0.052,0.066-4.582-0.098-12.35,0.167C97,6.054,85.81,6.774,72.986,8.654C62.873,10.14,51.75,12.343,40.41,15.604
						c-12.352,3.559-24.952,8.381-36.775,14.909c0,9.165,0,18.331,0,27.496c0,2.659,0,7.823,0,10.478c0,7.525,0,12.553,0,20.082
						c0,25.544,0,51.092,0,76.636c0.007,27.27,9.397,51.234,29.949,68.316c4.658,3.939,11.807,8.438,20.016,13.004
						c6.962,3.865,14.69,7.783,22.284,11.467c8.957,4.332,17.735,8.314,24.884,11.475c9.811,4.334,16.56,7.107,16.505,7.053
						c-0.082,0.072,14.932-6.104,32.683-14.389c18.897-8.828,40.882-20.027,51.021-28.607c20.562-17.08,29.963-41.049,29.963-68.326
						c0-25.535,0-51.083,0-76.626c0-7.529,0-13.387,0-20.915c0-2.659,0-6.985,0-9.645C230.938,48.845,230.938,39.678,230.938,30.514
						"/>
				</defs>
				<clipPath id="SVGID_2_">
					<use xlink:href="#SVGID_1_"  overflow="visible"/>
				</clipPath>
				
					<linearGradient id="SVGID_3_" gradientUnits="userSpaceOnUse" x1="56.7402" y1="672.2979" x2="292.2402" y2="672.2979" gradientTransform="matrix(1 0 0 1 -56.7402 -532.5547)">
					<stop  offset="0" style="stop-color:#FFD66B"/>
					<stop  offset="0.2821" style="stop-color:#FDE2D2"/>
					<stop  offset="0.4908" style="stop-color:#E9AA70"/>
					<stop  offset="1" style="stop-color:#DC931D"/>
				</linearGradient>
				<rect y="3.243" clip-path="url(#SVGID_2_)" fill="url(#SVGID_3_)" width="235.5" height="273"/>
			</g>
		</g>
	</g>
	<g>
		<g>
			<g>
				<defs>
					<path id="SVGID_4_" d="M222.023,32.271c-33.25-3.497-69.892-4.414-106.362,2.855c-10.585,2.128-21.157,4.938-31.589,8.591
						c-11.147,3.908-22.126,8.768-32.784,14.768C37.661,66.16,24.575,75.699,12.363,87.462c-0.002,2.517-0.009,5.033-0.016,7.547
						c-0.018,12.074-0.029,24.159-0.034,36.245c-0.009,11.342,0,22.69,0.009,34.04c0.018,25.301,9.11,46.588,26.897,61.365
						c10.938,5.662,21.878,11.326,32.822,16.992c8.355,4.332,16.716,8.654,25.074,12.986c6.721,3.477,13.441,6.953,20.162,10.441
						c13.396-5.584,62.211-27.025,78.068-40.422c17.791-14.777,26.871-36.064,26.891-61.365c0.027-24.387,0.015-48.789-0.026-73.15
						c-0.036-16.551-0.081-33.086-0.146-49.569C222.047,39.14,222.038,35.704,222.023,32.271"/>
				</defs>
				<clipPath id="SVGID_5_">
					<use xlink:href="#SVGID_4_"  overflow="visible"/>
				</clipPath>
				
					<linearGradient id="SVGID_6_" gradientUnits="userSpaceOnUse" x1="63.7334" y1="655.1553" x2="164.7336" y2="678.1553" gradientTransform="matrix(1 0 0 1 -56.7402 -532.5547)">
					<stop  offset="0" style="stop-color:#DBC9B8"/>
					<stop  offset="0.3114" style="stop-color:#775024"/>
					<stop  offset="1" style="stop-color:#4E2700"/>
				</linearGradient>
				<rect x="11" y="26.743" clip-path="url(#SVGID_5_)" fill="url(#SVGID_6_)" width="215" height="242.5"/>
			</g>
		</g>
	</g>
	<path fill="#3F1800" d="M117.277,267.081l-78.058-40.422C55.07,240.056,103.885,261.497,117.277,267.081"/>
	<path fill="#3F1800" d="M232.396,165.194c0,14.096-2.492,27.068-7.381,38.572c-5.139,12.01-12.898,22.402-23.104,30.869
		c-10.269,8.697-32.569,19.996-49.466,27.939c-9.668,4.549-18.491,8.445-24.207,10.914c-3.415,1.48-9.393,3.971-10.965,4.615v0.807
		c1.576-0.66,7.83-3.275,11.264-4.758c5.711-2.469,14.552-6.369,24.216-10.914c24.64-11.596,41.347-21.02,49.642-28.039
		c10.271-8.543,18.117-19.037,23.276-31.154c4.946-11.592,7.459-24.648,7.459-38.854V29.219l-0.731,0.425v135.553"/>
	<path fill="#3F1800" d="M2.925,29.233C44.485,6.257,95.884,4.038,116.036,4.148h1.237h1.261
		c20.149-0.109,71.545,2.11,113.104,25.085l0.758,0.411l0.731-0.425l-1.146-0.624C190.273,5.534,138.745,3.311,118.518,3.419h-1.246
		h-1.237C95.821,3.312,44.277,5.534,2.571,28.587L1.43,29.211l0.736,0.432L2.925,29.233"/>
	<path fill="#3F1800" d="M8.894,204.048c5.175,12.117,13.011,22.611,23.296,31.164c8.281,7.012,24.973,16.438,49.62,28.029
		c9.661,4.545,18.51,8.445,24.22,10.914c3.42,1.48,9.691,4.098,11.246,4.758v-0.805c-1.555-0.646-7.533-3.137-10.957-4.617
		c-5.71-2.467-14.547-6.365-24.209-10.914c-16.895-7.943-39.183-19.242-49.445-27.926c-10.206-8.48-17.972-18.875-23.098-30.885
		c-4.895-11.504-7.38-24.479-7.38-38.572L2.168,29.644l-0.736-0.432l0.021,135.983C1.459,179.399,3.962,192.456,8.894,204.048"/>
	<path fill="#3F1800" d="M212.32,97.174l0.541,0.438l0.736-0.357l-0.822-0.66c-3.551-2.818-11.269-7.504-23.176-7.275l0.025,0.727
		C201.297,89.824,208.855,94.411,212.32,97.174"/>
	<path fill="#3F1800" d="M210.387,116.863c-3.572-3.786-9.826-7.887-16.676-8.003l-0.004,0.733
		c6.618,0.118,12.682,4.086,16.143,7.775l3.799,4.032l-0.728-1.844L210.387,116.863"/>
	<path fill="#3F1800" d="M183.465,117.066l0.723,0.015c0.172-6.912,6.715-7.536,9.521-7.486l0.004-0.733
		C191.361,108.821,183.654,109.285,183.465,117.066"/>
	<polyline fill="#3F1800" points="212.921,119.558 213.648,121.401 213.6,97.256 212.861,97.613 212.921,119.558 	"/>
	<path fill="#3F1800" d="M148.831,103.219c6.587,8.582,10.053,21.094,10.058,36.207h0.731c0-15.271-3.528-27.946-10.211-36.645
		c-6.943-9.053-17.249-13.832-29.804-13.851v0.734C131.926,89.677,142.032,94.364,148.831,103.219"/>
	<path fill="#3F1800" d="M161.255,117.608c0-10.123,4.894-16.534,9.009-20.153c5.215-4.572,12.279-7.271,19.363-7.407l-0.025-0.727
		c-7.237,0.142-14.477,2.901-19.814,7.583c-4.229,3.718-9.268,10.315-9.268,20.704c0,0.058,0,0.132,0,0.187h0.735
		C161.255,117.733,161.255,117.665,161.255,117.608"/>
	<path fill="#3F1800" d="M181.307,148.532l0.369-0.623c-17.019-10.088-20.365-18.689-20.421-30.116h-0.735
		C160.568,129.493,163.984,138.271,181.307,148.532"/>
	<path fill="#3F1800" d="M194.326,129.608l1.59,0.956l0.37-0.62l-1.581-0.956c-6.993-4.163-10.63-6.573-10.518-11.907l-0.725-0.015
		C183.329,123.073,187.698,125.661,194.326,129.608"/>
	<path fill="#3F1800" d="M185.688,191.218l0.006,0.729c9.646-0.096,17.688-3.42,23.264-9.613c4.697-5.236,7.439-12.275,7.691-19.797
		l-0.739-0.023C215.441,176.634,205.914,190.995,185.688,191.218"/>
	<path fill="#3F1800" d="M181.676,147.909l-0.369,0.623c8.811,5.25,11.258,8.068,11.365,13.211l0.732-0.02
		C193.282,156.335,190.657,153.241,181.676,147.909"/>
	<path fill="#3F1800" d="M190.955,168.69c1.6-1.635,2.458-3.947,2.458-6.662c0-0.104-0.009-0.203-0.009-0.305l-0.732,0.02
		c0.005,0.096,0.005,0.186,0.005,0.285c0,2.523-0.78,4.646-2.241,6.152c-1.726,1.768-4.332,2.688-7.549,2.688v0.73
		C186.302,171.601,189.1,170.589,190.955,168.69"/>
	<path fill="#3F1800" d="M212.43,145.767c2.633,4.668,3.668,9.68,3.479,16.744l0.739,0.021c0.334-12.354-2.959-22.105-20.36-32.592
		l-0.37,0.621C204.125,135.507,209.375,140.351,212.43,145.767"/>
	<path fill="#3F1800" d="M149.283,176.597c-6.578,9.533-16.106,14.57-27.551,14.588v0.721c11.701,0,21.434-5.146,28.146-14.893
		c6.37-9.244,9.741-22.246,9.741-37.587h-0.73C158.889,154.628,155.566,167.481,149.283,176.597"/>
	<path fill="#3F1800" d="M164.57,163.767c5.229,4.693,12.582,7.834,18.316,7.834v-0.73c-5.566,0-12.725-3.064-17.813-7.635
		l-3.655-3.285l0.73,1.641L164.57,163.767"/>
	<path fill="#3F1800" d="M162.811,184.892l-0.72-0.426l-0.739,0.412l1.092,0.637c7.106,4.223,15.365,6.512,23.25,6.432l-0.006-0.73
		C177.939,191.29,169.803,189.048,162.811,184.892"/>
	<polyline fill="#3F1800" points="162.148,161.589 161.418,159.95 161.352,184.878 162.091,184.468 162.148,161.589 	"/>
	<path fill="#3F1800" d="M114.717,110.5l-0.74-0.524c0,1.854,0,58.889,0,60.891l0.74-0.557
		C114.717,167.345,114.717,113.281,114.717,110.5"/>
	<path fill="#3F1800" d="M114.717,170.308l-0.74,0.559c1.265,0.375,3.107,0.809,5.172,0.809v-0.729
		C117.428,170.946,115.878,170.634,114.717,170.308"/>
	<path fill="#3F1800" d="M130.984,164.263c2.738-5.223,4.121-13.381,4.121-24.287h-0.725c-0.009,10.779-1.352,18.839-4.039,23.949
		c-2.523,4.775-6.074,7.021-11.193,7.021v0.727C124.498,171.673,128.37,169.247,130.984,164.263"/>
	<path fill="#3F1800" d="M113.99,190.45l0.732,0.895c2.104,0.369,4.444,0.578,7.012,0.561v-0.719
		C118.869,191.185,116.268,190.933,113.99,190.45"/>
	<path fill="#3F1800" d="M114.018,230.983l0.008,1.48l0.732,0.723l-0.005-2.203c0,0-0.03-34.818-0.03-39.641l-0.732-0.895
		C113.994,193.874,114.018,230.983,114.018,230.983"/>
	<path fill="#3F1800" d="M90.829,230.946c-0.224-43.32-0.285-87.92-0.186-132.526l0.007-0.795l-0.723-0.396l-0.007,1.185
		c-0.104,44.612-0.043,89.211,0.178,132.534l0.014,2.178l0.716-0.723L90.829,230.946"/>
	<rect x="90.113" y="232.401" fill="#3F1800" width="24.645" height="0.785"/>
	<path fill="#3F1800" d="M83.831,93.271c-0.11,29.167-0.099,58.957-0.018,88.555l0.005,0.775l0.734,0.387l-0.004-1.162
		c-0.088-29.598-0.082-59.388,0.018-88.555l0.004-2.214l-0.732,0.748L83.831,93.271"/>
	<path fill="#3F1800" d="M83.169,183.044c-8.089,5.49-18.896,8.318-31.272,8.201l-0.007,0.729
		c12.517,0.119,23.481-2.75,31.688-8.318l0.974-0.67l-0.734-0.385L83.169,183.044"/>
	<path fill="#3F1800" d="M60.616,169.347l-0.741-0.43c-1.868,0.953-4.421,1.479-7.319,1.459l-0.005,0.729
		C55.775,171.132,58.587,170.493,60.616,169.347"/>
	<path fill="#3F1800" d="M59.825,141.132c0,9.275,0.021,18.546,0.05,27.785l0.741,0.43c-0.032-9.375-0.05-18.789-0.05-28.214
		c0-15.963,0.043-31.939,0.111-47.744l0.007-1.44l-0.721-0.724l-0.02,2.164C59.875,109.192,59.825,125.168,59.825,141.132"/>
	<path fill="#3F1800" d="M28.564,182.438c-5.148-5.674-7.696-14.158-7.714-25.178h-0.734c0.032,11.203,2.634,19.848,7.906,25.68
		c5.358,5.889,13.386,8.934,23.868,9.035l0.007-0.73C41.629,191.132,33.78,188.181,28.564,182.438"/>
	<path fill="#3F1800" d="M45.138,166.853c1.479,2.832,3.91,4.221,7.414,4.25l0.005-0.727c-2.06-0.02-8.324-0.078-8.354-12.135
		l-0.734,0.004C43.479,161.851,44.04,164.747,45.138,166.853"/>
	<rect x="20.109" y="91.662" fill="#3F1800" width="0.741" height="65.599"/>
	<path fill="#3F1800" d="M43.572,93.594c-0.097,21.554-0.136,43.311-0.104,64.653l0.734-0.006
		c-0.039-21.337-0.007-43.095,0.097-64.647l0.02-2.228l-0.741,0.746L43.572,93.594"/>
	<polyline fill="#3F1800" points="82.369,91.811 83.837,91.805 84.569,91.057 82.355,91.071 59.963,91.224 60.684,91.947 
		82.369,91.811 	"/>
	<rect x="20.109" y="91.367" fill="#3F1800" width="24.209" height="1.022"/>
	<path fill="#3F1800" d="M119.75,109.729c5.245,0,8.62,1.969,10.92,6.425c2.493,4.812,3.704,12.598,3.713,23.822h0.725
		c0-11.342-1.229-19.255-3.787-24.163c-2.411-4.655-6.094-6.813-11.568-6.825L119.75,109.729"/>
	<path fill="#3F1800" d="M119.75,109.729v-0.74c-2.209,0-4.333,0.463-5.773,0.986l0.74,0.524
		C116.041,110.075,117.88,109.729,119.75,109.729"/>
	<path fill="#3F1800" d="M89.928,97.23l0.723,0.396l0.667-0.434c7.769-5.066,17.023-7.526,28.29-7.526v-0.734
		c-11.413,0-20.811,2.503-28.685,7.651L89.928,97.23"/>
	<path fill="#3F1800" d="M115.955,36.567C75.414,44.69,41.056,62.027,13.827,88.104l0.734,0.321
		c27.093-25.86,61.242-43.071,101.535-51.14c30.297-6.045,64.252-7.025,103.733-3.017l0.735-0.667
		C180.729,29.508,146.491,30.477,115.955,36.567"/>
	<path fill="#3F1800" d="M220.051,141.105c0,8.087-0.01,16.156-0.014,24.187c-0.021,24.877-9.045,45.504-26.107,59.678
		c-14.693,12.41-59.492,32.533-76.65,39.727v0.791c16.971-7.1,62.283-27.414,77.123-39.951
		c17.231-14.314,26.346-35.148,26.375-60.242c0.007-8.031,0.016-16.102,0.016-24.187c0-35.567-0.081-71.62-0.227-107.501
		l-0.735,0.667C219.979,69.927,220.051,105.758,220.051,141.105"/>
	<path fill="#3F1800" d="M40.625,224.966c-17.055-14.168-26.082-34.807-26.1-59.672c-0.014-7.916-0.014-15.938-0.014-24.076
		c0-17.215,0.018-34.887,0.05-52.792l-0.734-0.321c-0.031,18.018-0.047,35.796-0.047,53.114c0,8.138,0.004,16.169,0.011,24.076
		c0.018,25.092,9.14,45.92,26.359,60.24c14.769,12.465,60.137,32.832,77.127,39.951v-0.789
		C100.102,257.476,55.24,237.308,40.625,224.966"/>
	<path fill="#3F1800" d="M118.521,2.681l-1.246,0.011l-1.234-0.011C95.768,2.571,44.097,4.806,2.237,27.956L0.7,28.781l0.732,0.431
		l1.141-0.624C44.28,5.534,95.823,3.311,116.036,3.419h1.237h1.246c20.228-0.108,71.758,2.114,113.467,25.175l1.144,0.624
		l0.736-0.438l-1.527-0.825C190.48,4.807,138.793,2.571,118.521,2.681"/>
	<path fill="#3F1800" d="M233.13,165.194c0,14.203-2.513,27.262-7.459,38.854c-5.159,12.117-13.007,22.611-23.276,31.154
		c-8.295,7.021-25.002,16.443-49.642,28.039c-9.664,4.545-18.505,8.445-24.216,10.914c-3.434,1.48-9.688,4.098-11.264,4.758v0.785
		c1.576-0.658,8.119-3.385,11.558-4.865c5.715-2.484,14.562-6.379,24.247-10.928c24.676-11.615,41.429-21.086,49.777-28.145
		c10.377-8.619,18.297-19.193,23.502-31.43c4.97-11.674,7.498-24.836,7.509-39.139V28.781l-0.736,0.438V165.194"/>
	<path fill="#3F1800" d="M106.029,274.155c-5.71-2.469-14.559-6.369-24.22-10.914c-24.647-11.596-41.338-21.02-49.62-28.029
		c-10.285-8.553-18.121-19.047-23.296-31.164c-4.932-11.592-7.434-24.648-7.441-38.854L1.432,29.211L0.7,28.781l0.018,136.414
		c0.011,14.303,2.528,27.465,7.504,39.139c5.209,12.232,13.12,22.811,23.493,31.43c8.349,7.059,25.094,16.527,49.777,28.145
		c9.668,4.549,18.523,8.441,24.238,10.928c3.424,1.48,9.989,4.207,11.543,4.865v-0.785
		C115.721,278.253,109.449,275.638,106.029,274.155"/>
	<g>
		<g>
			<g>
				<defs>
					<path id="SVGID_7_" d="M190.436,168.181c1.461-1.506,2.241-3.629,2.241-6.152c0-0.102,0-0.189-0.005-0.285l-0.736,0.014
						c0.006,0.096,0.006,0.188,0.006,0.275c0,2.367-0.688,4.252-2.032,5.645c-1.581,1.611-4.013,2.453-7.021,2.453v0.74
						C186.104,170.868,188.71,169.948,190.436,168.181"/>
				</defs>
				<clipPath id="SVGID_8_">
					<use xlink:href="#SVGID_7_"  overflow="visible"/>
				</clipPath>
				<path clip-path="url(#SVGID_8_)" fill="#492300" d="M190.436,168.181c1.461-1.506,2.241-3.629,2.241-6.152
					c0-0.102,0-0.189-0.005-0.285l-0.736,0.014c0.006,0.096,0.006,0.188,0.006,0.275c0,2.367-0.688,4.252-2.032,5.645
					c-1.581,1.611-4.013,2.453-7.021,2.453v0.74C186.104,170.868,188.71,169.948,190.436,168.181"/>
			</g>
		</g>
		<g>
			<g>
				<defs>
					<path id="SVGID_9_" d="M190.436,168.181c1.461-1.506,2.241-3.629,2.241-6.152c0-0.102,0-0.189-0.005-0.285l-0.736,0.014
						c0.006,0.096,0.006,0.188,0.006,0.275c0,2.367-0.688,4.252-2.032,5.645c-1.581,1.611-4.013,2.453-7.021,2.453v0.74
						C186.104,170.868,188.71,169.948,190.436,168.181"/>
				</defs>
				<clipPath id="SVGID_10_">
					<use xlink:href="#SVGID_9_"  overflow="visible"/>
				</clipPath>
				
					<linearGradient id="SVGID_11_" gradientUnits="userSpaceOnUse" x1="-679.1055" y1="459.2891" x2="-674.4795" y2="459.2891" gradientTransform="matrix(2.1164 0 0 -4.7729 1620.1442 2358.4478)">
					<stop  offset="0" style="stop-color:#492300"/>
					<stop  offset="1" style="stop-color:#492300"/>
				</linearGradient>
				<rect x="182.887" y="161.743" clip-path="url(#SVGID_10_)" fill="url(#SVGID_11_)" width="9.79" height="9.125"/>
			</g>
		</g>
	</g>
	<polyline fill="#3F1800" points="161.418,159.95 160.695,158.319 160.623,185.286 161.352,184.878 161.418,159.95 	"/>
	<g>
		<g>
			<g>
				<defs>
					<path id="SVGID_12_" d="M216.648,162.534l0.719,0.029c0.355-12.621-2.991-22.57-20.701-33.253l-0.38,0.631
						C213.689,140.427,216.982,150.181,216.648,162.534"/>
				</defs>
				<clipPath id="SVGID_13_">
					<use xlink:href="#SVGID_12_"  overflow="visible"/>
				</clipPath>
				<path clip-path="url(#SVGID_13_)" fill="#70491C" d="M216.648,162.534l0.719,0.029c0.355-12.621-2.991-22.57-20.701-33.253
					l-0.38,0.631C213.689,140.427,216.982,150.181,216.648,162.534"/>
			</g>
		</g>
		<g>
			<g>
				<defs>
					<path id="SVGID_14_" d="M216.648,162.534l0.719,0.029c0.355-12.621-2.991-22.57-20.701-33.253l-0.38,0.631
						C213.689,140.427,216.982,150.181,216.648,162.534"/>
				</defs>
				<clipPath id="SVGID_15_">
					<use xlink:href="#SVGID_14_"  overflow="visible"/>
				</clipPath>
				
					<linearGradient id="SVGID_16_" gradientUnits="userSpaceOnUse" x1="-822.2788" y1="536.0244" x2="-817.6511" y2="536.0244" gradientTransform="matrix(4.5568 0 0 -9.988 3943.2695 5499.7617)">
					<stop  offset="0" style="stop-color:#70491C"/>
					<stop  offset="1" style="stop-color:#9C7955"/>
				</linearGradient>
				<rect x="196.286" y="129.312" clip-path="url(#SVGID_15_)" fill="url(#SVGID_16_)" width="21.438" height="33.254"/>
			</g>
		</g>
	</g>
	<g>
		<g>
			<g>
				<defs>
					<path id="SVGID_17_" d="M162.443,185.515l-1.094-0.637l-0.729,0.406l1.443,0.873c7.226,4.279,15.613,6.607,23.625,6.514v-0.727
						C177.809,192.026,169.55,189.735,162.443,185.515 M216.648,162.534l0.719,0.029c-0.254,7.697-3.045,14.896-7.87,20.256
						c-5.72,6.348-13.942,9.754-23.806,9.854v-0.729c9.646-0.096,17.688-3.42,23.264-9.613
						C213.652,177.095,216.396,170.056,216.648,162.534z"/>
				</defs>
				<clipPath id="SVGID_18_">
					<use xlink:href="#SVGID_17_"  overflow="visible"/>
				</clipPath>
				<path clip-path="url(#SVGID_18_)" fill="#492300" d="M162.443,185.515l-1.094-0.637l-0.729,0.406l1.443,0.873
					c7.226,4.279,15.613,6.607,23.625,6.514v-0.727C177.809,192.026,169.55,189.735,162.443,185.515 M216.648,162.534l0.719,0.029
					c-0.254,7.697-3.045,14.896-7.87,20.256c-5.72,6.348-13.942,9.754-23.806,9.854v-0.729c9.646-0.096,17.688-3.42,23.264-9.613
					C213.652,177.095,216.396,170.056,216.648,162.534z"/>
			</g>
		</g>
		<g>
			<g>
				<defs>
					<path id="SVGID_19_" d="M162.443,185.515l-1.094-0.637l-0.729,0.406l1.443,0.873c7.226,4.279,15.613,6.607,23.625,6.514v-0.727
						C177.809,192.026,169.55,189.735,162.443,185.515 M216.648,162.534l0.719,0.029c-0.254,7.697-3.045,14.896-7.87,20.256
						c-5.72,6.348-13.942,9.754-23.806,9.854v-0.729c9.646-0.096,17.688-3.42,23.264-9.613
						C213.652,177.095,216.396,170.056,216.648,162.534z"/>
				</defs>
				<clipPath id="SVGID_20_">
					<use xlink:href="#SVGID_19_"  overflow="visible"/>
				</clipPath>
				
					<linearGradient id="SVGID_21_" gradientUnits="userSpaceOnUse" x1="-905.3032" y1="528.666" x2="-900.6772" y2="528.666" gradientTransform="matrix(12.2657 0 0 -9.3352 11264.8066 5112.8447)">
					<stop  offset="0" style="stop-color:#492300"/>
					<stop  offset="1" style="stop-color:#9C7955"/>
				</linearGradient>
				<rect x="160.623" y="162.534" clip-path="url(#SVGID_20_)" fill="url(#SVGID_21_)" width="56.744" height="30.23"/>
			</g>
		</g>
	</g>
	<g>
		<g>
			<g>
				<defs>
					<path id="SVGID_22_" d="M165.073,163.233c5.091,4.57,12.247,7.635,17.813,7.635v-0.74c-5.322,0-12.443-3.049-17.326-7.438
						l-4.865-4.371l0.723,1.631L165.073,163.233"/>
				</defs>
				<clipPath id="SVGID_23_">
					<use xlink:href="#SVGID_22_"  overflow="visible"/>
				</clipPath>
				<path clip-path="url(#SVGID_23_)" fill="#663F0F" d="M165.073,163.233c5.091,4.57,12.247,7.635,17.813,7.635v-0.74
					c-5.322,0-12.443-3.049-17.326-7.438l-4.865-4.371l0.723,1.631L165.073,163.233"/>
			</g>
		</g>
		<g>
			<g>
				<defs>
					<path id="SVGID_24_" d="M165.073,163.233c5.091,4.57,12.247,7.635,17.813,7.635v-0.74c-5.322,0-12.443-3.049-17.326-7.438
						l-4.865-4.371l0.723,1.631L165.073,163.233"/>
				</defs>
				<clipPath id="SVGID_25_">
					<use xlink:href="#SVGID_24_"  overflow="visible"/>
				</clipPath>
				
					<linearGradient id="SVGID_26_" gradientUnits="userSpaceOnUse" x1="-834.5059" y1="478.8428" x2="-829.8789" y2="478.8428" gradientTransform="matrix(4.7961 0 0 -5.5125 4163.0693 2804.2117)">
					<stop  offset="0" style="stop-color:#663F0F"/>
					<stop  offset="1" style="stop-color:#492300"/>
				</linearGradient>
				<rect x="160.695" y="158.319" clip-path="url(#SVGID_25_)" fill="url(#SVGID_26_)" width="22.191" height="12.549"/>
			</g>
		</g>
	</g>
	<g>
		<g>
			<g>
				<defs>
					<path id="SVGID_27_" d="M194.705,128.987l1.581,0.956l0.38-0.631l-1.59-0.956c-6.939-4.125-10.256-6.334-10.152-11.258
						l-0.736-0.018C184.075,122.413,187.712,124.824,194.705,128.987"/>
				</defs>
				<clipPath id="SVGID_28_">
					<use xlink:href="#SVGID_27_"  overflow="visible"/>
				</clipPath>
				<path clip-path="url(#SVGID_28_)" fill="#70491C" d="M194.705,128.987l1.581,0.956l0.38-0.631l-1.59-0.956
					c-6.939-4.125-10.256-6.334-10.152-11.258l-0.736-0.018C184.075,122.413,187.712,124.824,194.705,128.987"/>
			</g>
		</g>
		<g>
			<g>
				<defs>
					<path id="SVGID_29_" d="M194.705,128.987l1.581,0.956l0.38-0.631l-1.59-0.956c-6.939-4.125-10.256-6.334-10.152-11.258
						l-0.736-0.018C184.075,122.413,187.712,124.824,194.705,128.987"/>
				</defs>
				<clipPath id="SVGID_30_">
					<use xlink:href="#SVGID_29_"  overflow="visible"/>
				</clipPath>
				
					<linearGradient id="SVGID_31_" gradientUnits="userSpaceOnUse" x1="-1167.9971" y1="720.2529" x2="-1163.3704" y2="720.2529" gradientTransform="matrix(-2.6961 0 0 5.5802 -2952.3726 -3895.6465)">
					<stop  offset="0" style="stop-color:#70491C"/>
					<stop  offset="1" style="stop-color:#9C7955"/>
				</linearGradient>
				<rect x="184.075" y="117.08" clip-path="url(#SVGID_30_)" fill="url(#SVGID_31_)" width="12.591" height="12.862"/>
			</g>
		</g>
	</g>
	<g>
		<g>
			<g>
				<defs>
					<path id="SVGID_32_" d="M44.3,93.594c-0.104,21.554-0.136,43.311-0.097,64.647h0.732c-0.036-21.337-0.005-43.095,0.092-64.643
						l0.018-2.973l-0.725,0.739L44.3,93.594"/>
				</defs>
				<clipPath id="SVGID_33_">
					<use xlink:href="#SVGID_32_"  overflow="visible"/>
				</clipPath>
				<path clip-path="url(#SVGID_33_)" fill="#9C7955" d="M44.3,93.594c-0.104,21.554-0.136,43.311-0.097,64.647h0.732
					c-0.036-21.337-0.005-43.095,0.092-64.643l0.018-2.973l-0.725,0.739L44.3,93.594"/>
			</g>
		</g>
		<g>
			<g>
				<defs>
					<path id="SVGID_34_" d="M44.3,93.594c-0.104,21.554-0.136,43.311-0.097,64.647h0.732c-0.036-21.337-0.005-43.095,0.092-64.643
						l0.018-2.973l-0.725,0.739L44.3,93.594"/>
				</defs>
				<clipPath id="SVGID_35_">
					<use xlink:href="#SVGID_34_"  overflow="visible"/>
				</clipPath>
				
					<linearGradient id="SVGID_36_" gradientUnits="userSpaceOnUse" x1="-997.3096" y1="447.2002" x2="-992.6831" y2="447.2002" gradientTransform="matrix(0 -14.6153 -2.9907 0 1382.0474 -14417.7324)">
					<stop  offset="0" style="stop-color:#9C7955"/>
					<stop  offset="1" style="stop-color:#AF906F"/>
				</linearGradient>
				<rect x="44.164" y="90.627" clip-path="url(#SVGID_35_)" fill="url(#SVGID_36_)" width="0.881" height="67.614"/>
			</g>
		</g>
	</g>
	<path fill="#8A643E" d="M115.443,111.042l-0.728-0.542c0,2.781,0,56.845,0,59.81l0.728-0.572
		C115.443,165.845,115.443,114.73,115.443,111.042"/>
	<rect x="19.381" y="90.627" fill="#785228" width="25.664" height="1.035"/>
	<path fill="#70491C" d="M59.825,141.132c0-15.963,0.05-31.939,0.118-47.744l0.02-2.164l-0.734-0.728l-0.007,2.892
		c-0.082,15.799-0.118,31.781-0.118,47.744c0,9.126,0.014,18.244,0.036,27.33l0.734,0.455
		C59.846,159.679,59.825,150.407,59.825,141.132"/>
	<g>
		<g>
			<g>
				<defs>
					<path id="SVGID_37_" d="M52.556,170.376l0.004-0.736c-2.076-0.008-7.601-0.055-7.626-11.396h-0.732
						C44.232,170.3,50.496,170.358,52.556,170.376 M52.556,170.376l0.004-0.736c2.591,0.02,4.861-0.4,6.58-1.178l0.734,0.455
						C58.007,169.87,55.454,170.394,52.556,170.376z"/>
				</defs>
				<clipPath id="SVGID_38_">
					<use xlink:href="#SVGID_37_"  overflow="visible"/>
				</clipPath>
				<path clip-path="url(#SVGID_38_)" fill="#532D00" d="M52.556,170.376l0.004-0.736c-2.076-0.008-7.601-0.055-7.626-11.396h-0.732
					C44.232,170.3,50.496,170.358,52.556,170.376 M52.556,170.376l0.004-0.736c2.591,0.02,4.861-0.4,6.58-1.178l0.734,0.455
					C58.007,169.87,55.454,170.394,52.556,170.376z"/>
			</g>
		</g>
		<g>
			<g>
				<defs>
					<path id="SVGID_39_" d="M52.556,170.376l0.004-0.736c-2.076-0.008-7.601-0.055-7.626-11.396h-0.732
						C44.232,170.3,50.496,170.358,52.556,170.376 M52.556,170.376l0.004-0.736c2.591,0.02,4.861-0.4,6.58-1.178l0.734,0.455
						C58.007,169.87,55.454,170.394,52.556,170.376z"/>
				</defs>
				<clipPath id="SVGID_40_">
					<use xlink:href="#SVGID_39_"  overflow="visible"/>
				</clipPath>
				
					<linearGradient id="SVGID_41_" gradientUnits="userSpaceOnUse" x1="-1091.9839" y1="729.4482" x2="-1087.3584" y2="729.4482" gradientTransform="matrix(-3.3879 0 0 5.4271 -3639.6602 -3794.4629)">
					<stop  offset="0" style="stop-color:#532D00"/>
					<stop  offset="1" style="stop-color:#9C7955"/>
				</linearGradient>
				<rect x="44.203" y="158.241" clip-path="url(#SVGID_40_)" fill="url(#SVGID_41_)" width="15.672" height="12.152"/>
			</g>
		</g>
	</g>
	<polyline fill="#663F0F" points="59.229,90.497 59.963,91.224 82.355,91.071 84.569,91.057 85.299,90.325 82.355,90.343 
		59.229,90.497 	"/>
	<g>
		<g>
			<g>
				<defs>
					<path id="SVGID_42_" d="M83.578,183.655c-8.207,5.568-19.171,8.438-31.688,8.318l-0.007,0.732
						c12.672,0.113,23.784-2.801,32.108-8.457l1.288-0.877l-0.728-0.389L83.578,183.655 M28.022,182.94
						c-5.272-5.832-7.877-14.477-7.909-25.68h-0.734c0.025,11.402,2.708,20.199,8.105,26.162c5.496,6.041,13.703,9.176,24.398,9.285
						l0.007-0.732C41.408,191.872,33.38,188.827,28.022,182.94z M19.381,90.949l0.728,0.714l0.004,65.598h-0.734L19.381,90.949z"/>
				</defs>
				<clipPath id="SVGID_43_">
					<use xlink:href="#SVGID_42_"  overflow="visible"/>
				</clipPath>
				<path clip-path="url(#SVGID_43_)" fill="#815B33" d="M83.578,183.655c-8.207,5.568-19.171,8.438-31.688,8.318l-0.007,0.732
					c12.672,0.113,23.784-2.801,32.108-8.457l1.288-0.877l-0.728-0.389L83.578,183.655 M28.022,182.94
					c-5.272-5.832-7.877-14.477-7.909-25.68h-0.734c0.025,11.402,2.708,20.199,8.105,26.162c5.496,6.041,13.703,9.176,24.398,9.285
					l0.007-0.732C41.408,191.872,33.38,188.827,28.022,182.94z M19.381,90.949l0.728,0.714l0.004,65.598h-0.734L19.381,90.949z"/>
			</g>
		</g>
		<g>
			<g>
				<defs>
					<path id="SVGID_44_" d="M83.578,183.655c-8.207,5.568-19.171,8.438-31.688,8.318l-0.007,0.732
						c12.672,0.113,23.784-2.801,32.108-8.457l1.288-0.877l-0.728-0.389L83.578,183.655 M28.022,182.94
						c-5.272-5.832-7.877-14.477-7.909-25.68h-0.734c0.025,11.402,2.708,20.199,8.105,26.162c5.496,6.041,13.703,9.176,24.398,9.285
						l0.007-0.732C41.408,191.872,33.38,188.827,28.022,182.94z M19.381,90.949l0.728,0.714l0.004,65.598h-0.734L19.381,90.949z"/>
				</defs>
				<clipPath id="SVGID_45_">
					<use xlink:href="#SVGID_44_"  overflow="visible"/>
				</clipPath>
				
					<linearGradient id="SVGID_46_" gradientUnits="userSpaceOnUse" x1="-919.3877" y1="576.29" x2="-914.7612" y2="576.29" gradientTransform="matrix(14.2448 0 0 -24.8207 13115.875 14445.7744)">
					<stop  offset="0" style="stop-color:#815B33"/>
					<stop  offset="1" style="stop-color:#9C7955"/>
				</linearGradient>
				<rect x="19.379" y="90.949" clip-path="url(#SVGID_45_)" fill="url(#SVGID_46_)" width="65.899" height="101.873"/>
			</g>
		</g>
	</g>
	<path fill="#8A643E" d="M84.565,93.271c-0.1,29.167-0.106,58.957-0.018,88.555l0.004,1.162l0.728,0.389l-0.004-1.551
		c-0.082-29.602-0.082-59.388,0.018-88.541l0.006-2.959l-0.729,0.731L84.565,93.271"/>
	<g>
		<g>
			<g>
				<defs>
					<path id="SVGID_47_" d="M181.307,148.532l-0.381,0.633c8.543,5.078,10.915,7.771,11.01,12.592l0.736-0.014
						C192.562,156.601,190.115,153.782,181.307,148.532 M181.307,148.532l-0.381,0.633c-8.385-4.975-13.802-9.75-17.068-15.023
						c-2.817-4.6-4.032-9.492-4.064-16.341l0.729-0.007C160.568,129.493,163.984,138.271,181.307,148.532z"/>
				</defs>
				<clipPath id="SVGID_48_">
					<use xlink:href="#SVGID_47_"  overflow="visible"/>
				</clipPath>
				<path clip-path="url(#SVGID_48_)" fill="#492300" d="M181.307,148.532l-0.381,0.633c8.543,5.078,10.915,7.771,11.01,12.592
					l0.736-0.014C192.562,156.601,190.115,153.782,181.307,148.532 M181.307,148.532l-0.381,0.633
					c-8.385-4.975-13.802-9.75-17.068-15.023c-2.817-4.6-4.032-9.492-4.064-16.341l0.729-0.007
					C160.568,129.493,163.984,138.271,181.307,148.532z"/>
			</g>
		</g>
		<g>
			<g>
				<defs>
					<path id="SVGID_49_" d="M181.307,148.532l-0.381,0.633c8.543,5.078,10.915,7.771,11.01,12.592l0.736-0.014
						C192.562,156.601,190.115,153.782,181.307,148.532 M181.307,148.532l-0.381,0.633c-8.385-4.975-13.802-9.75-17.068-15.023
						c-2.817-4.6-4.032-9.492-4.064-16.341l0.729-0.007C160.568,129.493,163.984,138.271,181.307,148.532z"/>
				</defs>
				<clipPath id="SVGID_50_">
					<use xlink:href="#SVGID_49_"  overflow="visible"/>
				</clipPath>
				
					<linearGradient id="SVGID_51_" gradientUnits="userSpaceOnUse" x1="-872.3975" y1="549.0537" x2="-867.771" y2="549.0537" gradientTransform="matrix(7.1067 0 0 -12.3026 6359.6621 6894.5767)">
					<stop  offset="0" style="stop-color:#492300"/>
					<stop  offset="0.5" style="stop-color:#9C7955"/>
					<stop  offset="1" style="stop-color:#492300"/>
				</linearGradient>
				<rect x="159.791" y="117.793" clip-path="url(#SVGID_50_)" fill="url(#SVGID_51_)" width="32.881" height="43.963"/>
			</g>
		</g>
	</g>
	<path fill="#532D00" d="M90.099,230.946c-0.221-43.32-0.282-87.92-0.178-132.533l0.007-1.185l-0.734-0.399l-0.004,1.583
		c-0.1,44.612-0.05,89.215,0.178,132.542l0.018,2.898l0.728-0.73L90.099,230.946"/>
	<g>
		<g>
			<g>
				<defs>
					<path id="SVGID_52_" d="M129.686,163.577c-2.377,4.521-5.721,6.627-10.545,6.627l0.01,0.742c5.117,0,8.668-2.246,11.193-7.021
						c2.688-5.109,4.03-13.17,4.039-23.949h-0.73C133.65,150.638,132.312,158.581,129.686,163.577 M119.141,170.204l0.01,0.742
						c-1.723,0-3.271-0.314-4.434-0.639l0.729-0.572C116.479,170.001,117.758,170.204,119.141,170.204z"/>
				</defs>
				<clipPath id="SVGID_53_">
					<use xlink:href="#SVGID_52_"  overflow="visible"/>
				</clipPath>
				<path clip-path="url(#SVGID_53_)" fill="#492300" d="M129.686,163.577c-2.377,4.521-5.721,6.627-10.545,6.627l0.01,0.742
					c5.117,0,8.668-2.246,11.193-7.021c2.688-5.109,4.03-13.17,4.039-23.949h-0.73C133.65,150.638,132.312,158.581,129.686,163.577
					 M119.141,170.204l0.01,0.742c-1.723,0-3.271-0.314-4.434-0.639l0.729-0.572C116.479,170.001,117.758,170.204,119.141,170.204z"
					/>
			</g>
		</g>
		<g>
			<g>
				<defs>
					<path id="SVGID_54_" d="M129.686,163.577c-2.377,4.521-5.721,6.627-10.545,6.627l0.01,0.742c5.117,0,8.668-2.246,11.193-7.021
						c2.688-5.109,4.03-13.17,4.039-23.949h-0.73C133.65,150.638,132.312,158.581,129.686,163.577 M119.141,170.204l0.01,0.742
						c-1.723,0-3.271-0.314-4.434-0.639l0.729-0.572C116.479,170.001,117.758,170.204,119.141,170.204z"/>
				</defs>
				<clipPath id="SVGID_55_">
					<use xlink:href="#SVGID_54_"  overflow="visible"/>
				</clipPath>
				
					<linearGradient id="SVGID_56_" gradientUnits="userSpaceOnUse" x1="-1077.0415" y1="674.626" x2="-1072.4155" y2="674.626" gradientTransform="matrix(-4.2513 0 0 9.4948 -4444.4199 -6249.9854)">
					<stop  offset="0" style="stop-color:#492300"/>
					<stop  offset="1" style="stop-color:#70491C"/>
				</linearGradient>
				<rect x="114.717" y="139.976" clip-path="url(#SVGID_55_)" fill="url(#SVGID_56_)" width="19.666" height="30.97"/>
			</g>
		</g>
	</g>
	<g>
		<g>
			<g>
				<defs>
					<path id="SVGID_57_" d="M119.75,109.729L119.75,109.729v0.729c4.93,0,8.109,1.861,10.266,6.036
						c2.443,4.693,3.631,12.383,3.637,23.482h0.73c-0.009-11.225-1.22-19.01-3.713-23.821
						C128.37,111.697,124.995,109.729,119.75,109.729 M115.443,111.042l-0.728-0.542c1.324-0.425,3.163-0.771,5.033-0.771v0.729
						C118.184,110.457,116.637,110.709,115.443,111.042z"/>
				</defs>
				<clipPath id="SVGID_58_">
					<use xlink:href="#SVGID_57_"  overflow="visible"/>
				</clipPath>
				<path clip-path="url(#SVGID_58_)" fill="#492300" d="M119.75,109.729L119.75,109.729v0.729c4.93,0,8.109,1.861,10.266,6.036
					c2.443,4.693,3.631,12.383,3.637,23.482h0.73c-0.009-11.225-1.22-19.01-3.713-23.821
					C128.37,111.697,124.995,109.729,119.75,109.729 M115.443,111.042l-0.728-0.542c1.324-0.425,3.163-0.771,5.033-0.771v0.729
					C118.184,110.457,116.637,110.709,115.443,111.042z"/>
			</g>
		</g>
		<g>
			<g>
				<defs>
					<path id="SVGID_59_" d="M119.75,109.729L119.75,109.729v0.729c4.93,0,8.109,1.861,10.266,6.036
						c2.443,4.693,3.631,12.383,3.637,23.482h0.73c-0.009-11.225-1.22-19.01-3.713-23.821
						C128.37,111.697,124.995,109.729,119.75,109.729 M115.443,111.042l-0.728-0.542c1.324-0.425,3.163-0.771,5.033-0.771v0.729
						C118.184,110.457,116.637,110.709,115.443,111.042z"/>
				</defs>
				<clipPath id="SVGID_60_">
					<use xlink:href="#SVGID_59_"  overflow="visible"/>
				</clipPath>
				
					<linearGradient id="SVGID_61_" gradientUnits="userSpaceOnUse" x1="-1077.0356" y1="673.2588" x2="-1072.4097" y2="673.2588" gradientTransform="matrix(-4.2513 0 0 9.3376 -4444.4199 -6161.7812)">
					<stop  offset="0" style="stop-color:#492300"/>
					<stop  offset="1" style="stop-color:#9C7955"/>
				</linearGradient>
				<rect x="114.717" y="109.729" clip-path="url(#SVGID_60_)" fill="url(#SVGID_61_)" width="19.666" height="30.248"/>
			</g>
		</g>
	</g>
	<rect x="89.385" y="233.124" fill="#8A643E" width="26.109" height="0.801"/>
	<g>
		<g>
			<g>
				<defs>
					<path id="SVGID_62_" d="M90.921,96.582c7.875-5.148,17.272-7.651,28.685-7.651v-0.728c-11.562,0-21.077,2.527-29.089,7.762
						l-1.322,0.865l0.734,0.399L90.921,96.582 M119.605,88.204v0.728c12.555,0.019,22.858,4.798,29.804,13.851
						c6.683,8.698,10.211,21.372,10.211,36.645h0.739c-0.019-15.439-3.592-28.267-10.362-37.097
						C142.913,93.099,132.404,88.215,119.605,88.204z M114.723,191.345l0.727,0.867c1.929,0.283,4.016,0.428,6.285,0.428v-0.734
						C119.167,191.923,116.827,191.714,114.723,191.345z M159.62,139.425h0.739c0,15.496-3.409,28.636-9.875,38.011
						c-6.857,9.938-16.803,15.199-28.752,15.203v-0.734c11.701,0,21.434-5.146,28.146-14.893
						C156.249,167.769,159.62,154.767,159.62,139.425z"/>
				</defs>
				<clipPath id="SVGID_63_">
					<use xlink:href="#SVGID_62_"  overflow="visible"/>
				</clipPath>
				<path clip-path="url(#SVGID_63_)" fill="#3E1700" d="M90.921,96.582c7.875-5.148,17.272-7.651,28.685-7.651v-0.728
					c-11.562,0-21.077,2.527-29.089,7.762l-1.322,0.865l0.734,0.399L90.921,96.582 M119.605,88.204v0.728
					c12.555,0.019,22.858,4.798,29.804,13.851c6.683,8.698,10.211,21.372,10.211,36.645h0.739
					c-0.019-15.439-3.592-28.267-10.362-37.097C142.913,93.099,132.404,88.215,119.605,88.204z M114.723,191.345l0.727,0.867
					c1.929,0.283,4.016,0.428,6.285,0.428v-0.734C119.167,191.923,116.827,191.714,114.723,191.345z M159.62,139.425h0.739
					c0,15.496-3.409,28.636-9.875,38.011c-6.857,9.938-16.803,15.199-28.752,15.203v-0.734c11.701,0,21.434-5.146,28.146-14.893
					C156.249,167.769,159.62,154.767,159.62,139.425z"/>
			</g>
		</g>
		<g>
			<g>
				<defs>
					<path id="SVGID_64_" d="M90.921,96.582c7.875-5.148,17.272-7.651,28.685-7.651v-0.728c-11.562,0-21.077,2.527-29.089,7.762
						l-1.322,0.865l0.734,0.399L90.921,96.582 M119.605,88.204v0.728c12.555,0.019,22.858,4.798,29.804,13.851
						c6.683,8.698,10.211,21.372,10.211,36.645h0.739c-0.019-15.439-3.592-28.267-10.362-37.097
						C142.913,93.099,132.404,88.215,119.605,88.204z M114.723,191.345l0.727,0.867c1.929,0.283,4.016,0.428,6.285,0.428v-0.734
						C119.167,191.923,116.827,191.714,114.723,191.345z M159.62,139.425h0.739c0,15.496-3.409,28.636-9.875,38.011
						c-6.857,9.938-16.803,15.199-28.752,15.203v-0.734c11.701,0,21.434-5.146,28.146-14.893
						C156.249,167.769,159.62,154.767,159.62,139.425z"/>
				</defs>
				<clipPath id="SVGID_65_">
					<use xlink:href="#SVGID_64_"  overflow="visible"/>
				</clipPath>
				
					<linearGradient id="SVGID_66_" gradientUnits="userSpaceOnUse" x1="-918.1494" y1="576.9209" x2="-913.5229" y2="576.9209" gradientTransform="matrix(15.3826 0 0 -25.3747 14212.7158 14779.6377)">
					<stop  offset="0" style="stop-color:#3E1700"/>
					<stop  offset="1" style="stop-color:#9C7955"/>
				</linearGradient>
				<rect x="89.193" y="88.204" clip-path="url(#SVGID_65_)" fill="url(#SVGID_66_)" width="71.167" height="104.436"/>
			</g>
		</g>
	</g>
	<polyline fill="#8A643E" points="213.648,121.401 214.395,123.244 214.331,96.899 213.6,97.256 213.648,121.401 	"/>
	<g>
		<g>
			<g>
				<defs>
					<path id="SVGID_67_" d="M209.85,117.369c-3.461-3.689-9.522-7.658-16.143-7.775l-0.02,0.734
						c6.396,0.11,12.268,3.969,15.638,7.547l5.069,5.37l-0.746-1.843L209.85,117.369 M193.707,109.594l-0.02,0.734
						c-2.488-0.058-4.703,0.499-6.227,1.554c-1.656,1.127-2.479,2.842-2.539,5.216l-0.734-0.018
						C184.359,110.167,190.9,109.543,193.707,109.594z"/>
				</defs>
				<clipPath id="SVGID_68_">
					<use xlink:href="#SVGID_67_"  overflow="visible"/>
				</clipPath>
				<path clip-path="url(#SVGID_68_)" fill="#3E1700" d="M209.85,117.369c-3.461-3.689-9.522-7.658-16.143-7.775l-0.02,0.734
					c6.396,0.11,12.268,3.969,15.638,7.547l5.069,5.37l-0.746-1.843L209.85,117.369 M193.707,109.594l-0.02,0.734
					c-2.488-0.058-4.703,0.499-6.227,1.554c-1.656,1.127-2.479,2.842-2.539,5.216l-0.734-0.018
					C184.359,110.167,190.9,109.543,193.707,109.594z"/>
			</g>
		</g>
		<g>
			<g>
				<defs>
					<path id="SVGID_69_" d="M209.85,117.369c-3.461-3.689-9.522-7.658-16.143-7.775l-0.02,0.734
						c6.396,0.11,12.268,3.969,15.638,7.547l5.069,5.37l-0.746-1.843L209.85,117.369 M193.707,109.594l-0.02,0.734
						c-2.488-0.058-4.703,0.499-6.227,1.554c-1.656,1.127-2.479,2.842-2.539,5.216l-0.734-0.018
						C184.359,110.167,190.9,109.543,193.707,109.594z"/>
				</defs>
				<clipPath id="SVGID_70_">
					<use xlink:href="#SVGID_69_"  overflow="visible"/>
				</clipPath>
				
					<linearGradient id="SVGID_71_" gradientUnits="userSpaceOnUse" x1="-1042.5898" y1="715.6094" x2="-1037.9629" y2="715.6094" gradientTransform="matrix(-6.529 0 0 5.7613 -6592.6675 -4006.4478)">
					<stop  offset="0" style="stop-color:#3E1700"/>
					<stop  offset="1" style="stop-color:#9C7955"/>
				</linearGradient>
				<rect x="184.188" y="109.543" clip-path="url(#SVGID_70_)" fill="url(#SVGID_71_)" width="30.207" height="13.7"/>
			</g>
		</g>
	</g>
	<g>
		<g>
			<g>
				<defs>
					<path id="SVGID_72_" d="M159.791,117.622c0,0.054,0,0.122,0,0.179l0.729-0.007c0-0.054,0-0.129,0-0.187
						c0-10.389,5.037-16.986,9.268-20.704c5.34-4.682,12.576-7.441,19.814-7.583l-0.006-0.734
						c-7.423,0.149-14.818,2.978-20.304,7.775C163.162,101.737,159.791,109.285,159.791,117.622 M189.602,89.32l-0.006-0.734
						c12.131-0.229,20.021,4.556,23.644,7.441l1.094,0.871l-0.731,0.357l-0.822-0.66C209.227,93.777,201.509,89.092,189.602,89.32z"
						/>
				</defs>
				<clipPath id="SVGID_73_">
					<use xlink:href="#SVGID_72_"  overflow="visible"/>
				</clipPath>
				<path clip-path="url(#SVGID_73_)" fill="#492300" d="M159.791,117.622c0,0.054,0,0.122,0,0.179l0.729-0.007
					c0-0.054,0-0.129,0-0.187c0-10.389,5.037-16.986,9.268-20.704c5.34-4.682,12.576-7.441,19.814-7.583l-0.006-0.734
					c-7.423,0.149-14.818,2.978-20.304,7.775C163.162,101.737,159.791,109.285,159.791,117.622 M189.602,89.32l-0.006-0.734
					c12.131-0.229,20.021,4.556,23.644,7.441l1.094,0.871l-0.731,0.357l-0.822-0.66C209.227,93.777,201.509,89.092,189.602,89.32z"
					/>
			</g>
		</g>
		<g>
			<g>
				<defs>
					<path id="SVGID_74_" d="M159.791,117.622c0,0.054,0,0.122,0,0.179l0.729-0.007c0-0.054,0-0.129,0-0.187
						c0-10.389,5.037-16.986,9.268-20.704c5.34-4.682,12.576-7.441,19.814-7.583l-0.006-0.734
						c-7.423,0.149-14.818,2.978-20.304,7.775C163.162,101.737,159.791,109.285,159.791,117.622 M189.602,89.32l-0.006-0.734
						c12.131-0.229,20.021,4.556,23.644,7.441l1.094,0.871l-0.731,0.357l-0.822-0.66C209.227,93.777,201.509,89.092,189.602,89.32z"
						/>
				</defs>
				<clipPath id="SVGID_75_">
					<use xlink:href="#SVGID_74_"  overflow="visible"/>
				</clipPath>
				
					<linearGradient id="SVGID_76_" gradientUnits="userSpaceOnUse" x1="-903.519" y1="533.6514" x2="-898.8926" y2="533.6514" gradientTransform="matrix(11.7886 0 0 -9.1643 10811.0127 4993.6177)">
					<stop  offset="0" style="stop-color:#492300"/>
					<stop  offset="1" style="stop-color:#70491C"/>
				</linearGradient>
				<rect x="159.791" y="88.358" clip-path="url(#SVGID_75_)" fill="url(#SVGID_76_)" width="54.54" height="29.443"/>
			</g>
		</g>
	</g>
	<path fill="#785228" d="M114.753,230.983l0.005,2.203l0.736,0.736l-0.014-2.939c0,0-0.027-32.715-0.032-38.771l-0.728-0.867
		C114.723,196.165,114.753,230.983,114.753,230.983"/>
	<g>
		<g>
			<g>
				<defs>
					<path id="SVGID_77_" d="M116.238,38.006c30.05-5.993,63.734-6.991,102.863-3.079l0.729-0.657
						c-39.48-4.01-73.438-3.028-103.734,3.017c-40.292,8.068-74.44,25.278-101.534,51.14l0.741,0.321
						C42.253,63.103,76.202,46.028,116.238,38.006"/>
				</defs>
				<clipPath id="SVGID_78_">
					<use xlink:href="#SVGID_77_"  overflow="visible"/>
				</clipPath>
				<path clip-path="url(#SVGID_78_)" fill="#8C6741" d="M116.238,38.006c30.05-5.993,63.734-6.991,102.863-3.079l0.729-0.657
					c-39.48-4.01-73.438-3.028-103.734,3.017c-40.292,8.068-74.44,25.278-101.534,51.14l0.741,0.321
					C42.253,63.103,76.202,46.028,116.238,38.006"/>
			</g>
		</g>
		<g>
			<g>
				<defs>
					<path id="SVGID_79_" d="M116.238,38.006c30.05-5.993,63.734-6.991,102.863-3.079l0.729-0.657
						c-39.48-4.01-73.438-3.028-103.734,3.017c-40.292,8.068-74.44,25.278-101.534,51.14l0.741,0.321
						C42.253,63.103,76.202,46.028,116.238,38.006"/>
				</defs>
				<clipPath id="SVGID_80_">
					<use xlink:href="#SVGID_79_"  overflow="visible"/>
				</clipPath>
				
					<linearGradient id="SVGID_81_" gradientUnits="userSpaceOnUse" x1="-940.7661" y1="564.1338" x2="-936.1401" y2="564.1338" gradientTransform="matrix(44.3701 0 0 -15.4421 41756.4531 8770.915)">
					<stop  offset="0" style="stop-color:#8C6741"/>
					<stop  offset="1" style="stop-color:#9C7955"/>
				</linearGradient>
				<rect x="14.561" y="30.261" clip-path="url(#SVGID_80_)" fill="url(#SVGID_81_)" width="205.268" height="58.486"/>
			</g>
		</g>
	</g>
	<path fill="#3F1800" d="M219.318,141.105c0,8.087-0.01,16.156-0.014,24.187c-0.022,24.646-8.949,45.08-25.853,59.121
		c-14.534,12.279-58.836,32.207-76.177,39.477v0.807c17.158-7.191,61.957-27.314,76.649-39.727
		c17.063-14.174,26.087-34.801,26.108-59.678c0.004-8.031,0.014-16.102,0.014-24.187c0-35.347-0.072-71.178-0.222-106.835
		l-0.728,0.657C219.246,70.376,219.318,105.975,219.318,141.105"/>
	<g>
		<g>
			<g>
				<defs>
					<path id="SVGID_82_" d="M14.525,165.294c0.018,24.865,9.044,45.504,26.1,59.672c14.615,12.342,59.477,32.51,76.654,39.73
						v-0.807c-17.355-7.297-61.713-27.273-76.188-39.496c-16.881-14.021-25.817-34.471-25.839-59.102
						c0-7.916-0.007-15.939-0.007-24.076c0-17.11,0.013-34.677,0.056-52.472l-0.741-0.321c-0.032,17.906-0.05,35.578-0.05,52.792
						C14.511,149.354,14.511,157.378,14.525,165.294"/>
				</defs>
				<clipPath id="SVGID_83_">
					<use xlink:href="#SVGID_82_"  overflow="visible"/>
				</clipPath>
				<path clip-path="url(#SVGID_83_)" fill="#492300" d="M14.525,165.294c0.018,24.865,9.044,45.504,26.1,59.672
					c14.615,12.342,59.477,32.51,76.654,39.73v-0.807c-17.355-7.297-61.713-27.273-76.188-39.496
					c-16.881-14.021-25.817-34.471-25.839-59.102c0-7.916-0.007-15.939-0.007-24.076c0-17.11,0.013-34.677,0.056-52.472
					l-0.741-0.321c-0.032,17.906-0.05,35.578-0.05,52.792C14.511,149.354,14.511,157.378,14.525,165.294"/>
			</g>
		</g>
		<g>
			<g>
				<defs>
					<path id="SVGID_84_" d="M14.525,165.294c0.018,24.865,9.044,45.504,26.1,59.672c14.615,12.342,59.477,32.51,76.654,39.73
						v-0.807c-17.355-7.297-61.713-27.273-76.188-39.496c-16.881-14.021-25.817-34.471-25.839-59.102
						c0-7.916-0.007-15.939-0.007-24.076c0-17.11,0.013-34.677,0.056-52.472l-0.741-0.321c-0.032,17.906-0.05,35.578-0.05,52.792
						C14.511,149.354,14.511,157.378,14.525,165.294"/>
				</defs>
				<clipPath id="SVGID_85_">
					<use xlink:href="#SVGID_84_"  overflow="visible"/>
				</clipPath>
				
					<linearGradient id="SVGID_86_" gradientUnits="userSpaceOnUse" x1="-974.3149" y1="620.1748" x2="-969.689" y2="620.1748" gradientTransform="matrix(-22.2141 0 0 40.9025 -21526.2441 -25190.1758)">
					<stop  offset="0" style="stop-color:#492300"/>
					<stop  offset="1" style="stop-color:#70491C"/>
				</linearGradient>
				<rect x="14.511" y="88.426" clip-path="url(#SVGID_85_)" fill="url(#SVGID_86_)" width="102.766" height="176.271"/>
			</g>
		</g>
	</g>
	<path fill="#905800" d="M152.445,262.577c16.896-7.943,39.197-19.242,49.466-27.939c10.206-8.467,17.968-18.859,23.104-30.869
		c4.889-11.504,7.381-24.479,7.381-38.572V29.644l-1.459,0.87c0,44.907,0,89.783,0,134.683c0,27.271-9.396,51.244-29.957,68.326
		c-19.657,16.637-83.864,43.154-83.707,42.996v1.592c1.572-0.646,7.55-3.137,10.966-4.617
		C133.954,271.024,142.777,267.126,152.445,262.577"/>
	<g>
		<g>
			<g>
				<defs>
					<path id="SVGID_87_" d="M33.59,233.521c-20.545-17.08-29.942-41.053-29.942-68.324c0-44.898-0.013-89.774-0.013-134.688
						l-1.466-0.865l0.018,135.553c0,14.096,2.485,27.068,7.38,38.57c5.125,12.01,12.892,22.404,23.098,30.887
						c10.262,8.684,32.551,19.98,49.445,27.924c9.662,4.551,18.499,8.447,24.209,10.916c3.422,1.479,9.402,3.971,10.957,4.617
						v-1.592C117.455,276.677,53.247,250.157,33.59,233.521"/>
				</defs>
				<clipPath id="SVGID_88_">
					<use xlink:href="#SVGID_87_"  overflow="visible"/>
				</clipPath>
				<path clip-path="url(#SVGID_88_)" fill="#FFD568" d="M33.59,233.521c-20.545-17.08-29.942-41.053-29.942-68.324
					c0-44.898-0.013-89.774-0.013-134.688l-1.466-0.865l0.018,135.553c0,14.096,2.485,27.068,7.38,38.57
					c5.125,12.01,12.892,22.404,23.098,30.887c10.262,8.684,32.551,19.98,49.445,27.924c9.662,4.551,18.499,8.447,24.209,10.916
					c3.422,1.479,9.402,3.971,10.957,4.617v-1.592C117.455,276.677,53.247,250.157,33.59,233.521"/>
			</g>
		</g>
		<g>
			<g>
				<defs>
					<path id="SVGID_89_" d="M33.59,233.521c-20.545-17.08-29.942-41.053-29.942-68.324c0-44.898-0.013-89.774-0.013-134.688
						l-1.466-0.865l0.018,135.553c0,14.096,2.485,27.068,7.38,38.57c5.125,12.01,12.892,22.404,23.098,30.887
						c10.262,8.684,32.551,19.98,49.445,27.924c9.662,4.551,18.499,8.447,24.209,10.916c3.422,1.479,9.402,3.971,10.957,4.617
						v-1.592C117.455,276.677,53.247,250.157,33.59,233.521"/>
				</defs>
				<clipPath id="SVGID_90_">
					<use xlink:href="#SVGID_89_"  overflow="visible"/>
				</clipPath>
				
					<linearGradient id="SVGID_91_" gradientUnits="userSpaceOnUse" x1="-933.3374" y1="591.207" x2="-928.7127" y2="591.207" gradientTransform="matrix(24.8811 0 0 -56.5076 23224.6445 33561.5781)">
					<stop  offset="0" style="stop-color:#FFD568"/>
					<stop  offset="0.8353" style="stop-color:#A36D12"/>
					<stop  offset="1" style="stop-color:#905800"/>
				</linearGradient>
				<rect x="2.168" y="29.644" clip-path="url(#SVGID_90_)" fill="url(#SVGID_91_)" width="115.287" height="248.467"/>
			</g>
		</g>
	</g>
	<path fill="#FFD568" d="M117.273,5.602c-0.157,0.235,63.777-2.656,113.664,24.911l1.459-0.87l-0.758-0.411
		C190.077,6.256,138.684,4.037,118.534,4.146h-1.261h-1.237C95.884,4.038,44.485,6.257,2.925,29.232l-0.757,0.411l1.466,0.865
		C53.519,2.941,117.455,5.836,117.273,5.602"/>
	<g>
		<g>
			<g>
				<defs>
					<path id="SVGID_92_" d="M182.001,117.03l1.464,0.035c0.189-7.781,7.896-8.244,10.246-8.206l0.036-1.455
						C188.087,107.29,182.173,109.792,182.001,117.03"/>
				</defs>
				<clipPath id="SVGID_93_">
					<use xlink:href="#SVGID_92_"  overflow="visible"/>
				</clipPath>
				<path clip-path="url(#SVGID_93_)" fill="#905800" d="M182.001,117.03l1.464,0.035c0.189-7.781,7.896-8.244,10.246-8.206
					l0.036-1.455C188.087,107.29,182.173,109.792,182.001,117.03"/>
			</g>
		</g>
		<g>
			<g>
				<defs>
					<path id="SVGID_94_" d="M182.001,117.03l1.464,0.035c0.189-7.781,7.896-8.244,10.246-8.206l0.036-1.455
						C188.087,107.29,182.173,109.792,182.001,117.03"/>
				</defs>
				<clipPath id="SVGID_95_">
					<use xlink:href="#SVGID_94_"  overflow="visible"/>
				</clipPath>
				
					<linearGradient id="SVGID_96_" gradientUnits="userSpaceOnUse" x1="-724.6426" y1="472.0498" x2="-720.0176" y2="472.0498" gradientTransform="matrix(2.5396 0 0 -4.9137 2022.2786 2431.6855)">
					<stop  offset="0" style="stop-color:#905800"/>
					<stop  offset="1" style="stop-color:#905800"/>
				</linearGradient>
				<rect x="182.001" y="107.29" clip-path="url(#SVGID_95_)" fill="url(#SVGID_96_)" width="11.746" height="9.775"/>
			</g>
		</g>
	</g>
	<g>
		<g>
			<g>
				<defs>
					<path id="SVGID_97_" d="M189.641,91.515l-0.014-1.468c-7.084,0.136-14.148,2.835-19.363,7.407
						c-4.115,3.619-9.009,10.03-9.009,20.153c0,0.058,0,0.125,0,0.187l1.474-0.014C162.619,101.294,176.534,91.762,189.641,91.515"
						/>
				</defs>
				<clipPath id="SVGID_98_">
					<use xlink:href="#SVGID_97_"  overflow="visible"/>
				</clipPath>
				<path clip-path="url(#SVGID_98_)" fill="#EFCB95" d="M189.641,91.515l-0.014-1.468c-7.084,0.136-14.148,2.835-19.363,7.407
					c-4.115,3.619-9.009,10.03-9.009,20.153c0,0.058,0,0.125,0,0.187l1.474-0.014C162.619,101.294,176.534,91.762,189.641,91.515"/>
			</g>
		</g>
		<g>
			<g>
				<defs>
					<path id="SVGID_99_" d="M189.641,91.515l-0.014-1.468c-7.084,0.136-14.148,2.835-19.363,7.407
						c-4.115,3.619-9.009,10.03-9.009,20.153c0,0.058,0,0.125,0,0.187l1.474-0.014C162.619,101.294,176.534,91.762,189.641,91.515"
						/>
				</defs>
				<clipPath id="SVGID_100_">
					<use xlink:href="#SVGID_99_"  overflow="visible"/>
				</clipPath>
				
					<linearGradient id="SVGID_101_" gradientUnits="userSpaceOnUse" x1="-859.8203" y1="530.6807" x2="-855.1943" y2="530.6807" gradientTransform="matrix(6.1359 0 0 -8.7975 5437.0229 4772.5884)">
					<stop  offset="0" style="stop-color:#EFCB95"/>
					<stop  offset="1" style="stop-color:#E2AB53"/>
				</linearGradient>
				<rect x="161.255" y="90.047" clip-path="url(#SVGID_100_)" fill="url(#SVGID_101_)" width="28.386" height="27.747"/>
			</g>
		</g>
	</g>
	<g>
		<g>
			<g>
				<defs>
					<path id="SVGID_102_" d="M193.747,107.405l-0.036,1.455c6.85,0.117,13.104,4.217,16.676,8.003l2.534,2.694l-1.474-3.692
						C207.355,111.518,200.714,107.515,193.747,107.405"/>
				</defs>
				<clipPath id="SVGID_103_">
					<use xlink:href="#SVGID_102_"  overflow="visible"/>
				</clipPath>
				<path clip-path="url(#SVGID_103_)" fill="#905800" d="M193.747,107.405l-0.036,1.455c6.85,0.117,13.104,4.217,16.676,8.003
					l2.534,2.694l-1.474-3.692C207.355,111.518,200.714,107.515,193.747,107.405"/>
			</g>
		</g>
		<g>
			<g>
				<defs>
					<path id="SVGID_104_" d="M193.747,107.405l-0.036,1.455c6.85,0.117,13.104,4.217,16.676,8.003l2.534,2.694l-1.474-3.692
						C207.355,111.518,200.714,107.515,193.747,107.405"/>
				</defs>
				<clipPath id="SVGID_105_">
					<use xlink:href="#SVGID_104_"  overflow="visible"/>
				</clipPath>
				
					<linearGradient id="SVGID_106_" gradientUnits="userSpaceOnUse" x1="-810.2705" y1="484.2607" x2="-805.6445" y2="484.2607" gradientTransform="matrix(4.1528 0 0 -5.4267 3558.6023 2741.418)">
					<stop  offset="0" style="stop-color:#905800"/>
					<stop  offset="0.5778" style="stop-color:#BF8934"/>
					<stop  offset="1" style="stop-color:#E4AF5D"/>
				</linearGradient>
				<rect x="193.711" y="107.405" clip-path="url(#SVGID_105_)" fill="url(#SVGID_106_)" width="19.21" height="12.152"/>
			</g>
		</g>
	</g>
	<g>
		<g>
			<g>
				<defs>
					<path id="SVGID_107_" d="M211.408,98.322l1.453-0.709l-0.541-0.438c-3.465-2.763-11.023-7.351-22.693-7.127l0.014,1.468
						C200.624,91.306,207.947,95.566,211.408,98.322"/>
				</defs>
				<clipPath id="SVGID_108_">
					<use xlink:href="#SVGID_107_"  overflow="visible"/>
				</clipPath>
				<path clip-path="url(#SVGID_108_)" fill="#E2AB53" d="M211.408,98.322l1.453-0.709l-0.541-0.438
					c-3.465-2.763-11.023-7.351-22.693-7.127l0.014,1.468C200.624,91.306,207.947,95.566,211.408,98.322"/>
			</g>
		</g>
		<g>
			<g>
				<defs>
					<path id="SVGID_109_" d="M211.408,98.322l1.453-0.709l-0.541-0.438c-3.465-2.763-11.023-7.351-22.693-7.127l0.014,1.468
						C200.624,91.306,207.947,95.566,211.408,98.322"/>
				</defs>
				<clipPath id="SVGID_110_">
					<use xlink:href="#SVGID_109_"  overflow="visible"/>
				</clipPath>
				
					<linearGradient id="SVGID_111_" gradientUnits="userSpaceOnUse" x1="-835.2246" y1="467.2842" x2="-830.5986" y2="467.2842" gradientTransform="matrix(5.0224 0 0 -4.6368 4384.4595 2260.772)">
					<stop  offset="0" style="stop-color:#E2AB53"/>
					<stop  offset="1" style="stop-color:#C27913"/>
				</linearGradient>
				<rect x="189.627" y="89.824" clip-path="url(#SVGID_110_)" fill="url(#SVGID_111_)" width="23.234" height="8.498"/>
			</g>
		</g>
	</g>
	<path fill="#905800" d="M211.448,115.865l1.473,3.692l-0.06-21.944l-1.453,0.709C211.421,104.157,211.432,110.012,211.448,115.865"
		/>
	<g>
		<g>
			<g>
				<defs>
					<path id="SVGID_112_" d="M195.162,131.824l0.754-1.262l-1.59-0.956c-6.628-3.945-10.997-6.534-10.861-12.542l-1.464-0.035
						C181.829,124.431,187.762,127.371,195.162,131.824"/>
				</defs>
				<clipPath id="SVGID_113_">
					<use xlink:href="#SVGID_112_"  overflow="visible"/>
				</clipPath>
				<path clip-path="url(#SVGID_113_)" fill="#DDAC72" d="M195.162,131.824l0.754-1.262l-1.59-0.956
					c-6.628-3.945-10.997-6.534-10.861-12.542l-1.464-0.035C181.829,124.431,187.762,127.371,195.162,131.824"/>
			</g>
		</g>
		<g>
			<g>
				<defs>
					<path id="SVGID_114_" d="M195.162,131.824l0.754-1.262l-1.59-0.956c-6.628-3.945-10.997-6.534-10.861-12.542l-1.464-0.035
						C181.829,124.431,187.762,127.371,195.162,131.824"/>
				</defs>
				<clipPath id="SVGID_115_">
					<use xlink:href="#SVGID_114_"  overflow="visible"/>
				</clipPath>
				
					<linearGradient id="SVGID_116_" gradientUnits="userSpaceOnUse" x1="-1157.0874" y1="504.0234" x2="-1152.4609" y2="504.0234" gradientTransform="matrix(0 -3.1975 -5.8447 0 3134.7371 -3567.9858)">
					<stop  offset="0" style="stop-color:#DDAC72"/>
					<stop  offset="1" style="stop-color:#905800"/>
				</linearGradient>
				<rect x="181.829" y="117.03" clip-path="url(#SVGID_115_)" fill="url(#SVGID_116_)" width="14.087" height="14.794"/>
			</g>
		</g>
	</g>
	<g>
		<g>
			<g>
				<defs>
					<path id="SVGID_117_" d="M193.404,161.724l1.464-0.025c-0.142-6.379-3.646-9.826-12.451-15.043l-0.741,1.256
						C190.657,153.241,193.282,156.335,193.404,161.724"/>
				</defs>
				<clipPath id="SVGID_118_">
					<use xlink:href="#SVGID_117_"  overflow="visible"/>
				</clipPath>
				<path clip-path="url(#SVGID_118_)" fill="#EABD79" d="M193.404,161.724l1.464-0.025c-0.142-6.379-3.646-9.826-12.451-15.043
					l-0.741,1.256C190.657,153.241,193.282,156.335,193.404,161.724"/>
			</g>
		</g>
		<g>
			<g>
				<defs>
					<path id="SVGID_119_" d="M193.404,161.724l1.464-0.025c-0.142-6.379-3.646-9.826-12.451-15.043l-0.741,1.256
						C190.657,153.241,193.282,156.335,193.404,161.724"/>
				</defs>
				<clipPath id="SVGID_120_">
					<use xlink:href="#SVGID_119_"  overflow="visible"/>
				</clipPath>
				
					<linearGradient id="SVGID_121_" gradientUnits="userSpaceOnUse" x1="-1155.6318" y1="714.9912" x2="-1151.0059" y2="714.9912" gradientTransform="matrix(-2.8519 0 0 6.058 -3100.9033 -4177.23)">
					<stop  offset="0" style="stop-color:#EABD79"/>
					<stop  offset="1" style="stop-color:#C27913"/>
				</linearGradient>
				<rect x="181.676" y="146.653" clip-path="url(#SVGID_120_)" fill="url(#SVGID_121_)" width="13.192" height="15.07"/>
			</g>
		</g>
	</g>
	<g>
		<g>
			<g>
				<defs>
					<path id="SVGID_122_" d="M163.551,183.636l-1.46,0.832l0.72,0.424c6.992,4.156,15.129,6.398,22.877,6.326l-0.014-1.469
						C177.736,189.835,169.885,187.386,163.551,183.636"/>
				</defs>
				<clipPath id="SVGID_123_">
					<use xlink:href="#SVGID_122_"  overflow="visible"/>
				</clipPath>
				<path clip-path="url(#SVGID_123_)" fill="#C27913" d="M163.551,183.636l-1.46,0.832l0.72,0.424
					c6.992,4.156,15.129,6.398,22.877,6.326l-0.014-1.469C177.736,189.835,169.885,187.386,163.551,183.636"/>
			</g>
		</g>
		<g>
			<g>
				<defs>
					<path id="SVGID_124_" d="M163.551,183.636l-1.46,0.832l0.72,0.424c6.992,4.156,15.129,6.398,22.877,6.326l-0.014-1.469
						C177.736,189.835,169.885,187.386,163.551,183.636"/>
				</defs>
				<clipPath id="SVGID_125_">
					<use xlink:href="#SVGID_124_"  overflow="visible"/>
				</clipPath>
				
					<linearGradient id="SVGID_126_" gradientUnits="userSpaceOnUse" x1="-841.2241" y1="445.2783" x2="-836.5977" y2="445.2783" gradientTransform="matrix(5.1003 0 0 -4.4543 4452.585 2170.8665)">
					<stop  offset="0" style="stop-color:#C27913"/>
					<stop  offset="0.8538" style="stop-color:#985D03"/>
					<stop  offset="1" style="stop-color:#905800"/>
				</linearGradient>
				<rect x="162.091" y="183.636" clip-path="url(#SVGID_125_)" fill="url(#SVGID_126_)" width="23.597" height="7.654"/>
			</g>
		</g>
	</g>
	<path fill="#EDC68C" d="M163.604,164.86l-1.455-3.271l-0.059,22.877l1.46-0.83C163.587,177.388,163.596,171.136,163.604,164.86"/>
	<g>
		<g>
			<g>
				<defs>
					<path id="SVGID_127_" d="M162.729,117.78l-1.474,0.014c0.056,11.426,3.402,20.027,20.421,30.116l0.741-1.256
						C165.818,136.808,162.766,128.659,162.729,117.78"/>
				</defs>
				<clipPath id="SVGID_128_">
					<use xlink:href="#SVGID_127_"  overflow="visible"/>
				</clipPath>
				<path clip-path="url(#SVGID_128_)" fill="#EFCB95" d="M162.729,117.78l-1.474,0.014c0.056,11.426,3.402,20.027,20.421,30.116
					l0.741-1.256C165.818,136.808,162.766,128.659,162.729,117.78"/>
			</g>
		</g>
		<g>
			<g>
				<defs>
					<path id="SVGID_129_" d="M162.729,117.78l-1.474,0.014c0.056,11.426,3.402,20.027,20.421,30.116l0.741-1.256
						C165.818,136.808,162.766,128.659,162.729,117.78"/>
				</defs>
				<clipPath id="SVGID_130_">
					<use xlink:href="#SVGID_129_"  overflow="visible"/>
				</clipPath>
				
					<linearGradient id="SVGID_131_" gradientUnits="userSpaceOnUse" x1="-828.8013" y1="532.249" x2="-824.1758" y2="532.249" gradientTransform="matrix(4.5753 0 0 -9.312 3953.2666 5089.1436)">
					<stop  offset="0" style="stop-color:#EFCB95"/>
					<stop  offset="1" style="stop-color:#C27913"/>
				</linearGradient>
				<rect x="161.255" y="117.78" clip-path="url(#SVGID_130_)" fill="url(#SVGID_131_)" width="21.162" height="30.129"/>
			</g>
		</g>
	</g>
	<g>
		<g>
			<g>
				<defs>
					<path id="SVGID_132_" d="M182.887,173.065v-1.465c-5.732,0-13.088-3.141-18.313-7.834l-2.423-2.178l1.455,3.271
						C168.782,169.522,176.484,173.065,182.887,173.065"/>
				</defs>
				<clipPath id="SVGID_133_">
					<use xlink:href="#SVGID_132_"  overflow="visible"/>
				</clipPath>
				<path clip-path="url(#SVGID_133_)" fill="#EABD79" d="M182.887,173.065v-1.465c-5.732,0-13.088-3.141-18.313-7.834l-2.423-2.178
					l1.455,3.271C168.782,169.522,176.484,173.065,182.887,173.065"/>
			</g>
		</g>
		<g>
			<g>
				<defs>
					<path id="SVGID_134_" d="M182.887,173.065v-1.465c-5.732,0-13.088-3.141-18.313-7.834l-2.423-2.178l1.455,3.271
						C168.782,169.522,176.484,173.065,182.887,173.065"/>
				</defs>
				<clipPath id="SVGID_135_">
					<use xlink:href="#SVGID_134_"  overflow="visible"/>
				</clipPath>
				
					<linearGradient id="SVGID_136_" gradientUnits="userSpaceOnUse" x1="-1079.0376" y1="733.4111" x2="-1074.4102" y2="733.4111" gradientTransform="matrix(-4.4816 0 0 5.2801 -4652.9282 -3705.1572)">
					<stop  offset="0" style="stop-color:#EABD79"/>
					<stop  offset="1" style="stop-color:#C27913"/>
				</linearGradient>
				<rect x="162.148" y="161.589" clip-path="url(#SVGID_135_)" fill="url(#SVGID_136_)" width="20.738" height="11.477"/>
			</g>
		</g>
	</g>
	<g>
		<g>
			<g>
				<defs>
					<path id="SVGID_137_" d="M185.674,189.749l0.014,1.469c20.229-0.223,29.756-14.584,30.222-28.707l-1.454-0.062
						C214.023,175.351,205.449,189.546,185.674,189.749"/>
				</defs>
				<clipPath id="SVGID_138_">
					<use xlink:href="#SVGID_137_"  overflow="visible"/>
				</clipPath>
				<path clip-path="url(#SVGID_138_)" fill="#905800" d="M185.674,189.749l0.014,1.469c20.229-0.223,29.756-14.584,30.222-28.707
					l-1.454-0.062C214.023,175.351,205.449,189.546,185.674,189.749"/>
			</g>
		</g>
		<g>
			<g>
				<defs>
					<path id="SVGID_139_" d="M185.674,189.749l0.014,1.469c20.229-0.223,29.756-14.584,30.222-28.707l-1.454-0.062
						C214.023,175.351,205.449,189.546,185.674,189.749"/>
				</defs>
				<clipPath id="SVGID_140_">
					<use xlink:href="#SVGID_139_"  overflow="visible"/>
				</clipPath>
				
					<linearGradient id="SVGID_141_" gradientUnits="userSpaceOnUse" x1="-862.4399" y1="526.1162" x2="-857.8135" y2="526.1162" gradientTransform="matrix(6.5352 0 0 -9.018 5821.894 4921.3521)">
					<stop  offset="0" style="stop-color:#905800"/>
					<stop  offset="1" style="stop-color:#9A6419"/>
				</linearGradient>
				<rect x="185.674" y="162.448" clip-path="url(#SVGID_140_)" fill="url(#SVGID_141_)" width="30.233" height="28.77"/>
			</g>
		</g>
	</g>
	<g>
		<g>
			<g>
				<defs>
					<path id="SVGID_142_" d="M194.868,161.698l-1.464,0.025c0,0.102,0.009,0.197,0.009,0.305c0,2.715-0.858,5.025-2.458,6.662
						c-1.855,1.896-4.653,2.908-8.068,2.908v1.465C190.215,173.065,195.021,168.737,194.868,161.698"/>
				</defs>
				<clipPath id="SVGID_143_">
					<use xlink:href="#SVGID_142_"  overflow="visible"/>
				</clipPath>
				<path clip-path="url(#SVGID_143_)" fill="#EABD79" d="M194.868,161.698l-1.464,0.025c0,0.102,0.009,0.197,0.009,0.305
					c0,2.715-0.858,5.025-2.458,6.662c-1.855,1.896-4.653,2.908-8.068,2.908v1.465C190.215,173.065,195.021,168.737,194.868,161.698
					"/>
			</g>
		</g>
		<g>
			<g>
				<defs>
					<path id="SVGID_144_" d="M194.868,161.698l-1.464,0.025c0,0.102,0.009,0.197,0.009,0.305c0,2.715-0.858,5.025-2.458,6.662
						c-1.855,1.896-4.653,2.908-8.068,2.908v1.465C190.215,173.065,195.021,168.737,194.868,161.698"/>
				</defs>
				<clipPath id="SVGID_145_">
					<use xlink:href="#SVGID_144_"  overflow="visible"/>
				</clipPath>
				
					<linearGradient id="SVGID_146_" gradientUnits="userSpaceOnUse" x1="-728.8452" y1="472.3965" x2="-724.2204" y2="472.3965" gradientTransform="matrix(2.5908 0 0 -5.2575 2071.198 2651.0115)">
					<stop  offset="0" style="stop-color:#EABD79"/>
					<stop  offset="1" style="stop-color:#EABD79"/>
				</linearGradient>
				<rect x="182.887" y="161.698" clip-path="url(#SVGID_145_)" fill="url(#SVGID_146_)" width="12.135" height="11.365"/>
			</g>
		</g>
	</g>
	<g>
		<g>
			<g>
				<defs>
					<path id="SVGID_147_" d="M214.453,162.448l1.454,0.062c0.19-7.064-0.845-12.076-3.479-16.744
						c-3.054-5.416-8.304-10.259-16.513-15.204l-0.754,1.262C211.766,141.837,214.77,150.692,214.453,162.448"/>
				</defs>
				<clipPath id="SVGID_148_">
					<use xlink:href="#SVGID_147_"  overflow="visible"/>
				</clipPath>
				<path clip-path="url(#SVGID_148_)" fill="#DDAC72" d="M214.453,162.448l1.454,0.062c0.19-7.064-0.845-12.076-3.479-16.744
					c-3.054-5.416-8.304-10.259-16.513-15.204l-0.754,1.262C211.766,141.837,214.77,150.692,214.453,162.448"/>
			</g>
		</g>
		<g>
			<g>
				<defs>
					<path id="SVGID_149_" d="M214.453,162.448l1.454,0.062c0.19-7.064-0.845-12.076-3.479-16.744
						c-3.054-5.416-8.304-10.259-16.513-15.204l-0.754,1.262C211.766,141.837,214.77,150.692,214.453,162.448"/>
				</defs>
				<clipPath id="SVGID_150_">
					<use xlink:href="#SVGID_149_"  overflow="visible"/>
				</clipPath>
				
					<linearGradient id="SVGID_151_" gradientUnits="userSpaceOnUse" x1="-855.3506" y1="684.1064" x2="-850.7236" y2="684.1064" gradientTransform="matrix(0 6.9053 7.3254 0 -4805.7168 6037.0103)">
					<stop  offset="0" style="stop-color:#DDAC72"/>
					<stop  offset="1" style="stop-color:#9A6419"/>
				</linearGradient>
				<rect x="195.162" y="130.562" clip-path="url(#SVGID_150_)" fill="url(#SVGID_151_)" width="20.936" height="31.948"/>
			</g>
		</g>
	</g>
	<g>
		<g>
			<g>
				<defs>
					<path id="SVGID_152_" d="M119.75,108.989c5.477,0.013,9.157,2.17,11.57,6.825c2.557,4.906,3.785,12.819,3.785,24.163
						l1.474-0.01c0-22.961-4.961-32.434-16.829-32.434V108.989"/>
				</defs>
				<clipPath id="SVGID_153_">
					<use xlink:href="#SVGID_152_"  overflow="visible"/>
				</clipPath>
				<path clip-path="url(#SVGID_153_)" fill="#EABD79" d="M119.75,108.989c5.477,0.013,9.157,2.17,11.57,6.825
					c2.557,4.906,3.785,12.819,3.785,24.163l1.474-0.01c0-22.961-4.961-32.434-16.829-32.434V108.989"/>
			</g>
		</g>
		<g>
			<g>
				<defs>
					<path id="SVGID_154_" d="M119.75,108.989c5.477,0.013,9.157,2.17,11.57,6.825c2.557,4.906,3.785,12.819,3.785,24.163
						l1.474-0.01c0-22.961-4.961-32.434-16.829-32.434V108.989"/>
				</defs>
				<clipPath id="SVGID_155_">
					<use xlink:href="#SVGID_154_"  overflow="visible"/>
				</clipPath>
				
					<linearGradient id="SVGID_156_" gradientUnits="userSpaceOnUse" x1="-1045.7505" y1="520.5439" x2="-1041.124" y2="520.5439" gradientTransform="matrix(0 -7.0123 -6.4374 0 3479.1125 -7193.1328)">
					<stop  offset="0" style="stop-color:#EABD79"/>
					<stop  offset="1" style="stop-color:#905800"/>
				</linearGradient>
				<rect x="119.75" y="107.534" clip-path="url(#SVGID_155_)" fill="url(#SVGID_156_)" width="16.829" height="32.442"/>
			</g>
		</g>
	</g>
	<g>
		<g>
			<g>
				<defs>
					<path id="SVGID_157_" d="M119.75,108.989v-1.455c-2.752,0-5.589,0.66-7.242,1.468l1.469,0.974
						C115.417,109.451,117.541,108.989,119.75,108.989"/>
				</defs>
				<clipPath id="SVGID_158_">
					<use xlink:href="#SVGID_157_"  overflow="visible"/>
				</clipPath>
				<path clip-path="url(#SVGID_158_)" fill="#905800" d="M119.75,108.989v-1.455c-2.752,0-5.589,0.66-7.242,1.468l1.469,0.974
					C115.417,109.451,117.541,108.989,119.75,108.989"/>
			</g>
		</g>
		<g>
			<g>
				<defs>
					<path id="SVGID_159_" d="M119.75,108.989v-1.455c-2.752,0-5.589,0.66-7.242,1.468l1.469,0.974
						C115.417,109.451,117.541,108.989,119.75,108.989"/>
				</defs>
				<clipPath id="SVGID_160_">
					<use xlink:href="#SVGID_159_"  overflow="visible"/>
				</clipPath>
				
					<linearGradient id="SVGID_161_" gradientUnits="userSpaceOnUse" x1="-618.6602" y1="410.376" x2="-614.0327" y2="410.376" gradientTransform="matrix(1.5651 0 0 -3.3281 1080.7733 1474.5288)">
					<stop  offset="0" style="stop-color:#905800"/>
					<stop  offset="1" style="stop-color:#905800"/>
				</linearGradient>
				<rect x="112.508" y="107.534" clip-path="url(#SVGID_160_)" fill="url(#SVGID_161_)" width="7.242" height="2.441"/>
			</g>
		</g>
	</g>
	<g>
		<g>
			<g>
				<defs>
					<path id="SVGID_162_" d="M121.732,189.708v1.479c11.442-0.02,20.973-5.057,27.551-14.59c6.283-9.115,9.604-21.969,9.604-37.171
						h-1.459C157.43,169.302,144.377,189.69,121.732,189.708"/>
				</defs>
				<clipPath id="SVGID_163_">
					<use xlink:href="#SVGID_162_"  overflow="visible"/>
				</clipPath>
				<path clip-path="url(#SVGID_163_)" fill="#905800" d="M121.732,189.708v1.479c11.442-0.02,20.973-5.057,27.551-14.59
					c6.283-9.115,9.604-21.969,9.604-37.171h-1.459C157.43,169.302,144.377,189.69,121.732,189.708"/>
			</g>
		</g>
		<g>
			<g>
				<defs>
					<path id="SVGID_164_" d="M121.732,189.708v1.479c11.442-0.02,20.973-5.057,27.551-14.59c6.283-9.115,9.604-21.969,9.604-37.171
						h-1.459C157.43,169.302,144.377,189.69,121.732,189.708"/>
				</defs>
				<clipPath id="SVGID_165_">
					<use xlink:href="#SVGID_164_"  overflow="visible"/>
				</clipPath>
				
					<linearGradient id="SVGID_166_" gradientUnits="userSpaceOnUse" x1="-885.1357" y1="554.1455" x2="-880.5098" y2="554.1455" gradientTransform="matrix(8.0316 0 0 -13.9884 7230.792 7916.9106)">
					<stop  offset="0" style="stop-color:#905800"/>
					<stop  offset="1" style="stop-color:#905800"/>
				</linearGradient>
				<rect x="121.732" y="139.425" clip-path="url(#SVGID_165_)" fill="url(#SVGID_166_)" width="37.153" height="51.759"/>
			</g>
		</g>
	</g>
	<g>
		<g>
			<g>
				<defs>
					<path id="SVGID_167_" d="M90.829,230.946v1.455l1.461-1.465c-0.224-43.271-0.278-88.312-0.186-132.517l-1.455-0.795
						l-0.007,0.795C90.544,143.026,90.605,187.626,90.829,230.946"/>
				</defs>
				<clipPath id="SVGID_168_">
					<use xlink:href="#SVGID_167_"  overflow="visible"/>
				</clipPath>
				<path clip-path="url(#SVGID_168_)" fill="#E0B27C" d="M90.829,230.946v1.455l1.461-1.465
					c-0.224-43.271-0.278-88.312-0.186-132.517l-1.455-0.795l-0.007,0.795C90.544,143.026,90.605,187.626,90.829,230.946"/>
			</g>
		</g>
		<g>
			<g>
				<defs>
					<path id="SVGID_169_" d="M90.829,230.946v1.455l1.461-1.465c-0.224-43.271-0.278-88.312-0.186-132.517l-1.455-0.795
						l-0.007,0.795C90.544,143.026,90.605,187.626,90.829,230.946"/>
				</defs>
				<clipPath id="SVGID_170_">
					<use xlink:href="#SVGID_169_"  overflow="visible"/>
				</clipPath>
				
					<linearGradient id="SVGID_171_" gradientUnits="userSpaceOnUse" x1="-929.0234" y1="761.5537" x2="-924.3975" y2="761.5537" gradientTransform="matrix(0 29.1327 3.1774 0 -2328.3459 27162.5859)">
					<stop  offset="0" style="stop-color:#E0B27C"/>
					<stop  offset="1" style="stop-color:#C27913"/>
				</linearGradient>
				<rect x="90.544" y="97.625" clip-path="url(#SVGID_170_)" fill="url(#SVGID_171_)" width="1.746" height="134.776"/>
			</g>
		</g>
	</g>
	<g>
		<g>
			<g>
				<defs>
					<path id="SVGID_172_" d="M113.977,109.975L112.508,109c0,20.909,0,41.975,0.008,62.907l1.461-1.043
						C113.977,168.862,113.977,111.83,113.977,109.975"/>
				</defs>
				<clipPath id="SVGID_173_">
					<use xlink:href="#SVGID_172_"  overflow="visible"/>
				</clipPath>
				<path clip-path="url(#SVGID_173_)" fill="#905800" d="M113.977,109.975L112.508,109c0,20.909,0,41.975,0.008,62.907l1.461-1.043
					C113.977,168.862,113.977,111.83,113.977,109.975"/>
			</g>
		</g>
		<g>
			<g>
				<defs>
					<path id="SVGID_174_" d="M113.977,109.975L112.508,109c0,20.909,0,41.975,0.008,62.907l1.461-1.043
						C113.977,168.862,113.977,111.83,113.977,109.975"/>
				</defs>
				<clipPath id="SVGID_175_">
					<use xlink:href="#SVGID_174_"  overflow="visible"/>
				</clipPath>
				
					<linearGradient id="SVGID_176_" gradientUnits="userSpaceOnUse" x1="687.8066" y1="562.54" x2="692.4375" y2="562.54" gradientTransform="matrix(0.3172 0 0 -16.3974 -105.6725 9364.6475)">
					<stop  offset="0" style="stop-color:#905800"/>
					<stop  offset="1" style="stop-color:#905800"/>
				</linearGradient>
				<rect x="112.508" y="109.001" clip-path="url(#SVGID_175_)" fill="url(#SVGID_176_)" width="1.469" height="62.906"/>
			</g>
		</g>
	</g>
	<g>
		<g>
			<g>
				<defs>
					<path id="SVGID_177_" d="M157.43,139.425h1.459c-0.005-15.113-3.471-27.625-10.058-36.207
						c-6.799-8.854-16.905-13.542-29.226-13.553l-0.006,1.473C143.997,91.152,157.406,109.63,157.43,139.425"/>
				</defs>
				<clipPath id="SVGID_178_">
					<use xlink:href="#SVGID_177_"  overflow="visible"/>
				</clipPath>
				<path clip-path="url(#SVGID_178_)" fill="#EDC68C" d="M157.43,139.425h1.459c-0.005-15.113-3.471-27.625-10.058-36.207
					c-6.799-8.854-16.905-13.542-29.226-13.553l-0.006,1.473C143.997,91.152,157.406,109.63,157.43,139.425"/>
			</g>
		</g>
		<g>
			<g>
				<defs>
					<path id="SVGID_179_" d="M157.43,139.425h1.459c-0.005-15.113-3.471-27.625-10.058-36.207
						c-6.799-8.854-16.905-13.542-29.226-13.553l-0.006,1.473C143.997,91.152,157.406,109.63,157.43,139.425"/>
				</defs>
				<clipPath id="SVGID_180_">
					<use xlink:href="#SVGID_179_"  overflow="visible"/>
				</clipPath>
				
					<linearGradient id="SVGID_181_" gradientUnits="userSpaceOnUse" x1="-888.894" y1="555.5166" x2="-884.2681" y2="555.5166" gradientTransform="matrix(8.4923 0 0 -13.5561 7668.3589 7645.1782)">
					<stop  offset="0" style="stop-color:#EDC68C"/>
					<stop  offset="1" style="stop-color:#905800"/>
				</linearGradient>
				<rect x="119.602" y="89.666" clip-path="url(#SVGID_180_)" fill="url(#SVGID_181_)" width="39.287" height="49.76"/>
			</g>
		</g>
	</g>
	<g>
		<g>
			<g>
				<defs>
					<path id="SVGID_182_" d="M119.602,91.139l0.004-1.473c-11.266,0-20.52,2.46-28.289,7.526l-0.667,0.434l1.455,0.795
						C99.492,93.61,108.482,91.139,119.602,91.139"/>
				</defs>
				<clipPath id="SVGID_183_">
					<use xlink:href="#SVGID_182_"  overflow="visible"/>
				</clipPath>
				<path clip-path="url(#SVGID_183_)" fill="#FFECC0" d="M119.602,91.139l0.004-1.473c-11.266,0-20.52,2.46-28.289,7.526
					l-0.667,0.434l1.455,0.795C99.492,93.61,108.482,91.139,119.602,91.139"/>
			</g>
		</g>
		<g>
			<g>
				<defs>
					<path id="SVGID_184_" d="M119.602,91.139l0.004-1.473c-11.266,0-20.52,2.46-28.289,7.526l-0.667,0.434l1.455,0.795
						C99.492,93.61,108.482,91.139,119.602,91.139"/>
				</defs>
				<clipPath id="SVGID_185_">
					<use xlink:href="#SVGID_184_"  overflow="visible"/>
				</clipPath>
				
					<linearGradient id="SVGID_186_" gradientUnits="userSpaceOnUse" x1="-870.4463" y1="468.9033" x2="-865.8203" y2="468.9033" gradientTransform="matrix(6.259 0 0 -4.6925 5538.7754 2294.366)">
					<stop  offset="0" style="stop-color:#FFECC0"/>
					<stop  offset="0.1264" style="stop-color:#FDE7B9"/>
					<stop  offset="1" style="stop-color:#EDC68C"/>
				</linearGradient>
				<rect x="90.65" y="89.666" clip-path="url(#SVGID_185_)" fill="url(#SVGID_186_)" width="28.956" height="8.755"/>
			</g>
		</g>
	</g>
	<g>
		<g>
			<g>
				<defs>
					<path id="SVGID_187_" d="M112.521,188.575l1.467,1.875c2.277,0.48,4.88,0.734,7.744,0.734v-1.479
						C117.541,189.726,114.562,189.175,112.521,188.575"/>
				</defs>
				<clipPath id="SVGID_188_">
					<use xlink:href="#SVGID_187_"  overflow="visible"/>
				</clipPath>
				<path clip-path="url(#SVGID_188_)" fill="#905800" d="M112.521,188.575l1.467,1.875c2.277,0.48,4.88,0.734,7.744,0.734v-1.479
					C117.541,189.726,114.562,189.175,112.521,188.575"/>
			</g>
		</g>
		<g>
			<g>
				<defs>
					<path id="SVGID_189_" d="M112.521,188.575l1.467,1.875c2.277,0.48,4.88,0.734,7.744,0.734v-1.479
						C117.541,189.726,114.562,189.175,112.521,188.575"/>
				</defs>
				<clipPath id="SVGID_190_">
					<use xlink:href="#SVGID_189_"  overflow="visible"/>
				</clipPath>
				
					<linearGradient id="SVGID_191_" gradientUnits="userSpaceOnUse" x1="-1215.2974" y1="812.792" x2="-1210.6733" y2="812.792" gradientTransform="matrix(-1.992 0 0 3.3647 -2299.1406 -2544.9211)">
					<stop  offset="0" style="stop-color:#905800"/>
					<stop  offset="1" style="stop-color:#C27913"/>
				</linearGradient>
				<rect x="112.521" y="188.575" clip-path="url(#SVGID_190_)" fill="url(#SVGID_191_)" width="9.211" height="2.609"/>
			</g>
		</g>
	</g>
	<g>
		<g>
			<g>
				<defs>
					<path id="SVGID_192_" d="M112.551,230.983l1.475,1.48l-0.008-1.48c0,0-0.022-37.109-0.027-40.533l-1.469-1.875
						C112.54,202.837,112.546,217.022,112.551,230.983"/>
				</defs>
				<clipPath id="SVGID_193_">
					<use xlink:href="#SVGID_192_"  overflow="visible"/>
				</clipPath>
				<path clip-path="url(#SVGID_193_)" fill="#905800" d="M112.551,230.983l1.475,1.48l-0.008-1.48c0,0-0.022-37.109-0.027-40.533
					l-1.469-1.875C112.54,202.837,112.546,217.022,112.551,230.983"/>
			</g>
		</g>
		<g>
			<g>
				<defs>
					<path id="SVGID_194_" d="M112.551,230.983l1.475,1.48l-0.008-1.48c0,0-0.022-37.109-0.027-40.533l-1.469-1.875
						C112.54,202.837,112.546,217.022,112.551,230.983"/>
				</defs>
				<clipPath id="SVGID_195_">
					<use xlink:href="#SVGID_194_"  overflow="visible"/>
				</clipPath>
				
					<linearGradient id="SVGID_196_" gradientUnits="userSpaceOnUse" x1="648.4912" y1="544.4697" x2="653.1201" y2="544.4697" gradientTransform="matrix(0.325 0 0 -12.287 -98.2227 6900.4229)">
					<stop  offset="0" style="stop-color:#905800"/>
					<stop  offset="1" style="stop-color:#905800"/>
				</linearGradient>
				<rect x="112.521" y="188.575" clip-path="url(#SVGID_195_)" fill="url(#SVGID_196_)" width="1.504" height="43.891"/>
			</g>
		</g>
	</g>
	<path fill="#905800" d="M92.291,230.937l-1.461,1.467l23.197,0.062l-1.476-1.48C105.794,230.983,99.042,230.97,92.291,230.937"/>
	<g>
		<g>
			<g>
				<defs>
					<path id="SVGID_197_" d="M135.105,139.976l1.474-0.01c0,22.396-5.64,33.169-17.431,33.173v-1.467
						c5.35,0,9.222-2.428,11.836-7.41C133.725,159.042,135.105,150.882,135.105,139.976"/>
				</defs>
				<clipPath id="SVGID_198_">
					<use xlink:href="#SVGID_197_"  overflow="visible"/>
				</clipPath>
				<path clip-path="url(#SVGID_198_)" fill="#FFE4A2" d="M135.105,139.976l1.474-0.01c0,22.396-5.64,33.169-17.431,33.173v-1.467
					c5.35,0,9.222-2.428,11.836-7.41C133.725,159.042,135.105,150.882,135.105,139.976"/>
			</g>
		</g>
		<g>
			<g>
				<defs>
					<path id="SVGID_199_" d="M135.105,139.976l1.474-0.01c0,22.396-5.64,33.169-17.431,33.173v-1.467
						c5.35,0,9.222-2.428,11.836-7.41C133.725,159.042,135.105,150.882,135.105,139.976"/>
				</defs>
				<clipPath id="SVGID_200_">
					<use xlink:href="#SVGID_199_"  overflow="visible"/>
				</clipPath>
				
					<linearGradient id="SVGID_201_" gradientUnits="userSpaceOnUse" x1="-801.9136" y1="535.0732" x2="-797.2864" y2="535.0732" gradientTransform="matrix(3.5289 0 0 -9.9706 2949.387 5491.5542)">
					<stop  offset="0" style="stop-color:#FFE4A2"/>
					<stop  offset="0.1" style="stop-color:#FFE4A2"/>
					<stop  offset="0.6" style="stop-color:#F7E4CA"/>
					<stop  offset="1" style="stop-color:#EABD79"/>
				</linearGradient>
				<rect x="119.148" y="139.966" clip-path="url(#SVGID_200_)" fill="url(#SVGID_201_)" width="17.431" height="33.173"/>
			</g>
		</g>
	</g>
	<path fill="#FFE4A2" d="M119.148,171.673c-2.064,0-3.907-0.434-5.172-0.809l-1.461,1.043c1.461,0.547,3.892,1.232,6.635,1.232
		v-1.467"/>
	<g>
		<g>
			<g>
				<defs>
					<path id="SVGID_202_" d="M62.149,93.409l-1.466-1.461l-0.007,1.44c-0.068,15.804-0.111,31.781-0.111,47.745
						c0,9.423,0.018,18.839,0.05,28.212l1.455,0.828C62.003,144.601,62.028,118.867,62.149,93.409"/>
				</defs>
				<clipPath id="SVGID_203_">
					<use xlink:href="#SVGID_202_"  overflow="visible"/>
				</clipPath>
				<path clip-path="url(#SVGID_203_)" fill="#DB9A28" d="M62.149,93.409l-1.466-1.461l-0.007,1.44
					c-0.068,15.804-0.111,31.781-0.111,47.745c0,9.423,0.018,18.839,0.05,28.212l1.455,0.828
					C62.003,144.601,62.028,118.867,62.149,93.409"/>
			</g>
		</g>
		<g>
			<g>
				<defs>
					<path id="SVGID_204_" d="M62.149,93.409l-1.466-1.461l-0.007,1.44c-0.068,15.804-0.111,31.781-0.111,47.745
						c0,9.423,0.018,18.839,0.05,28.212l1.455,0.828C62.003,144.601,62.028,118.867,62.149,93.409"/>
				</defs>
				<clipPath id="SVGID_205_">
					<use xlink:href="#SVGID_204_"  overflow="visible"/>
				</clipPath>
				
					<linearGradient id="SVGID_206_" gradientUnits="userSpaceOnUse" x1="-913.5806" y1="755.8213" x2="-908.9546" y2="755.8213" gradientTransform="matrix(0 16.9098 3.1425 0 -2313.813 15540.4014)">
					<stop  offset="0" style="stop-color:#DB9A28"/>
					<stop  offset="1" style="stop-color:#C27913"/>
				</linearGradient>
				<rect x="60.566" y="91.947" clip-path="url(#SVGID_205_)" fill="url(#SVGID_206_)" width="1.583" height="78.226"/>
			</g>
		</g>
	</g>
	<g>
		<g>
			<g>
				<defs>
					<path id="SVGID_207_" d="M82.351,181.825l1.466,0.775l-0.005-0.775c-0.081-29.6-0.092-59.389,0.018-88.556l0.007-1.466
						l-1.468,1.466C82.256,122.641,82.256,152.399,82.351,181.825"/>
				</defs>
				<clipPath id="SVGID_208_">
					<use xlink:href="#SVGID_207_"  overflow="visible"/>
				</clipPath>
				<path clip-path="url(#SVGID_208_)" fill="#C27913" d="M82.351,181.825l1.466,0.775l-0.005-0.775
					c-0.081-29.6-0.092-59.389,0.018-88.556l0.007-1.466l-1.468,1.466C82.256,122.641,82.256,152.399,82.351,181.825"/>
			</g>
		</g>
		<g>
			<g>
				<defs>
					<path id="SVGID_209_" d="M82.351,181.825l1.466,0.775l-0.005-0.775c-0.081-29.6-0.092-59.389,0.018-88.556l0.007-1.466
						l-1.468,1.466C82.256,122.641,82.256,152.399,82.351,181.825"/>
				</defs>
				<clipPath id="SVGID_210_">
					<use xlink:href="#SVGID_209_"  overflow="visible"/>
				</clipPath>
				
					<linearGradient id="SVGID_211_" gradientUnits="userSpaceOnUse" x1="-918.7324" y1="761.2764" x2="-914.1064" y2="761.2764" gradientTransform="matrix(0 19.627 3.1415 0 -2308.5039 18123.7812)">
					<stop  offset="0" style="stop-color:#C27913"/>
					<stop  offset="0.8538" style="stop-color:#985D03"/>
					<stop  offset="1" style="stop-color:#905800"/>
				</linearGradient>
				<rect x="82.256" y="91.805" clip-path="url(#SVGID_210_)" fill="url(#SVGID_211_)" width="1.581" height="90.796"/>
			</g>
		</g>
	</g>
	<path fill="#F7E4CA" d="M82.369,93.271l1.468-1.466l-1.468,0.006l-21.686,0.137l1.466,1.461
		C68.858,93.352,75.606,93.307,82.369,93.271"/>
	<g>
		<g>
			<g>
				<defs>
					<path id="SVGID_212_" d="M51.915,189.776l-0.018,1.469c12.376,0.117,23.183-2.711,31.272-8.201l0.648-0.441l-1.466-0.775
						C74.587,187.097,64.198,189.888,51.915,189.776"/>
				</defs>
				<clipPath id="SVGID_213_">
					<use xlink:href="#SVGID_212_"  overflow="visible"/>
				</clipPath>
				<path clip-path="url(#SVGID_213_)" fill="#905800" d="M51.915,189.776l-0.018,1.469c12.376,0.117,23.183-2.711,31.272-8.201
					l0.648-0.441l-1.466-0.775C74.587,187.097,64.198,189.888,51.915,189.776"/>
			</g>
		</g>
		<g>
			<g>
				<defs>
					<path id="SVGID_214_" d="M51.915,189.776l-0.018,1.469c12.376,0.117,23.183-2.711,31.272-8.201l0.648-0.441l-1.466-0.775
						C74.587,187.097,64.198,189.888,51.915,189.776"/>
				</defs>
				<clipPath id="SVGID_215_">
					<use xlink:href="#SVGID_214_"  overflow="visible"/>
				</clipPath>
				
					<linearGradient id="SVGID_216_" gradientUnits="userSpaceOnUse" x1="-882.313" y1="458.6338" x2="-877.687" y2="458.6338" gradientTransform="matrix(6.9002 0 0 -4.861 6140.0283 2416.0093)">
					<stop  offset="0" style="stop-color:#905800"/>
					<stop  offset="1" style="stop-color:#905800"/>
				</linearGradient>
				<rect x="51.896" y="181.825" clip-path="url(#SVGID_215_)" fill="url(#SVGID_216_)" width="31.921" height="9.537"/>
			</g>
		</g>
	</g>
	<g>
		<g>
			<g>
				<defs>
					<path id="SVGID_217_" d="M52.545,172.558c4.086,0.037,7.344-0.877,9.526-2.385l-1.455-0.828
						c-2.028,1.148-4.841,1.785-8.064,1.758L52.545,172.558 M52.545,172.558l0.006-1.455c-3.503-0.029-5.934-1.418-7.414-4.25
						c-1.098-2.104-1.658-5.002-1.669-8.605h-1.461C42.018,163.974,43.376,172.495,52.545,172.558z M42.106,93.594l1.473-1.481
						l-0.007,1.481c-0.097,21.554-0.136,43.311-0.104,64.653h-1.461C41.968,136.673,42.007,115.076,42.106,93.594z"/>
				</defs>
				<clipPath id="SVGID_218_">
					<use xlink:href="#SVGID_217_"  overflow="visible"/>
				</clipPath>
				
					<linearGradient id="SVGID_219_" gradientUnits="userSpaceOnUse" x1="98.7324" y1="664.8896" x2="118.8105" y2="664.8896" gradientTransform="matrix(1 0 0 1 -56.7402 -532.5547)">
					<stop  offset="0" style="stop-color:#CE8E3E"/>
					<stop  offset="1" style="stop-color:#FFE7B0"/>
				</linearGradient>
				<path clip-path="url(#SVGID_218_)" fill="url(#SVGID_219_)" d="M52.545,172.558c4.086,0.037,7.344-0.877,9.526-2.385
					l-1.455-0.828c-2.028,1.148-4.841,1.785-8.064,1.758L52.545,172.558 M52.545,172.558l0.006-1.455
					c-3.503-0.029-5.934-1.418-7.414-4.25c-1.098-2.104-1.658-5.002-1.669-8.605h-1.461
					C42.018,163.974,43.376,172.495,52.545,172.558z M42.106,93.594l1.473-1.481l-0.007,1.481
					c-0.097,21.554-0.136,43.311-0.104,64.653h-1.461C41.968,136.673,42.007,115.076,42.106,93.594z"/>
			</g>
		</g>
	</g>
	<g>
		<g>
			<g>
				<defs>
					<path id="SVGID_220_" d="M22.316,157.261h-1.471c0.021,11.021,2.571,19.504,7.719,25.18c5.216,5.74,13.065,8.691,23.333,8.807
						l0.018-1.469C32.079,189.573,22.352,178.603,22.316,157.261"/>
				</defs>
				<clipPath id="SVGID_221_">
					<use xlink:href="#SVGID_220_"  overflow="visible"/>
				</clipPath>
				<path clip-path="url(#SVGID_221_)" fill="#DB9A28" d="M22.316,157.261h-1.471c0.021,11.021,2.571,19.504,7.719,25.18
					c5.216,5.74,13.065,8.691,23.333,8.807l0.018-1.469C32.079,189.573,22.352,178.603,22.316,157.261"/>
			</g>
		</g>
		<g>
			<g>
				<defs>
					<path id="SVGID_222_" d="M22.316,157.261h-1.471c0.021,11.021,2.571,19.504,7.719,25.18c5.216,5.74,13.065,8.691,23.333,8.807
						l0.018-1.469C32.079,189.573,22.352,178.603,22.316,157.261"/>
				</defs>
				<clipPath id="SVGID_223_">
					<use xlink:href="#SVGID_222_"  overflow="visible"/>
				</clipPath>
				
					<linearGradient id="SVGID_224_" gradientUnits="userSpaceOnUse" x1="-884.0566" y1="534.8789" x2="-879.4302" y2="534.8789" gradientTransform="matrix(6.7156 0 0 -10.1452 5957.8149 5600.708)">
					<stop  offset="0" style="stop-color:#DB9A28"/>
					<stop  offset="0.9376" style="stop-color:#955C03"/>
					<stop  offset="1" style="stop-color:#905800"/>
				</linearGradient>
				<rect x="20.845" y="157.261" clip-path="url(#SVGID_223_)" fill="url(#SVGID_224_)" width="31.069" height="33.984"/>
			</g>
		</g>
	</g>
	<path fill="#FAEFE1" d="M42.106,93.594l1.473-1.481L20.85,92.39l1.468,1.443C28.853,93.741,35.452,93.655,42.106,93.594"/>
	<g>
		<g>
			<g>
				<defs>
					<polyline id="SVGID_225_" points="20.845,157.261 22.316,157.261 22.318,93.833 20.85,92.39 20.845,157.261 					"/>
				</defs>
				<clipPath id="SVGID_226_">
					<use xlink:href="#SVGID_225_"  overflow="visible"/>
				</clipPath>
				<rect x="20.845" y="92.39" clip-path="url(#SVGID_226_)" fill="#DB9A28" width="1.473" height="64.871"/>
			</g>
		</g>
		<g>
			<g>
				<defs>
					<polyline id="SVGID_227_" points="20.845,157.261 22.316,157.261 22.318,93.833 20.85,92.39 20.845,157.261 					"/>
				</defs>
				<clipPath id="SVGID_228_">
					<use xlink:href="#SVGID_227_"  overflow="visible"/>
				</clipPath>
				
					<linearGradient id="SVGID_229_" gradientUnits="userSpaceOnUse" x1="-999.2217" y1="459.3447" x2="-994.5957" y2="459.3447" gradientTransform="matrix(0 -14.0223 -3.1179 0 1453.7714 -13854.123)">
					<stop  offset="0" style="stop-color:#DB9A28"/>
					<stop  offset="0.9376" style="stop-color:#955C03"/>
					<stop  offset="1" style="stop-color:#905800"/>
				</linearGradient>
				<rect x="20.845" y="92.39" clip-path="url(#SVGID_228_)" fill="url(#SVGID_229_)" width="1.473" height="64.871"/>
			</g>
		</g>
	</g>
	<path fill="#C27913" d="M115.955,36.567c30.536-6.091,64.771-7.06,104.609-2.964l1.465-1.333
		c-33.256-3.497-69.896-4.42-106.364,2.855C79.268,42.413,43.042,57.898,12.361,87.462l1.466,0.642
		C41.056,62.028,75.414,44.691,115.955,36.567"/>
	<path fill="#FFD568" d="M220.564,33.604c0.146,35.881,0.227,71.934,0.227,107.501c0,8.087-0.009,16.156-0.014,24.187
		c-0.031,25.094-9.146,45.93-26.375,60.242c-14.842,12.537-60.154,32.854-77.125,39.951v1.6
		c13.396-5.58,62.211-27.031,78.074-40.426c17.784-14.773,26.871-36.066,26.895-61.367c0.036-44.402-0.027-88.892-0.217-133.022
		L220.564,33.604"/>
	<g>
		<g>
			<g>
				<defs>
					<path id="SVGID_230_" d="M40.15,225.534c-17.22-14.32-26.341-35.148-26.359-60.24c-0.007-7.906-0.011-15.938-0.011-24.076
						c0-17.317,0.016-35.097,0.047-53.114l-1.466-0.642c-0.043,25.91-0.068,51.89-0.039,77.831
						c0.018,25.301,9.101,46.592,26.897,61.365c15.865,13.396,64.693,34.846,78.058,40.426v-1.6
						C100.287,258.366,54.919,237.999,40.15,225.534"/>
				</defs>
				<clipPath id="SVGID_231_">
					<use xlink:href="#SVGID_230_"  overflow="visible"/>
				</clipPath>
				<path clip-path="url(#SVGID_231_)" fill="#C27913" d="M40.15,225.534c-17.22-14.32-26.341-35.148-26.359-60.24
					c-0.007-7.906-0.011-15.938-0.011-24.076c0-17.317,0.016-35.097,0.047-53.114l-1.466-0.642
					c-0.043,25.91-0.068,51.89-0.039,77.831c0.018,25.301,9.101,46.592,26.897,61.365c15.865,13.396,64.693,34.846,78.058,40.426
					v-1.6C100.287,258.366,54.919,237.999,40.15,225.534"/>
			</g>
		</g>
		<g>
			<g>
				<defs>
					<path id="SVGID_232_" d="M40.15,225.534c-17.22-14.32-26.341-35.148-26.359-60.24c-0.007-7.906-0.011-15.938-0.011-24.076
						c0-17.317,0.016-35.097,0.047-53.114l-1.466-0.642c-0.043,25.91-0.068,51.89-0.039,77.831
						c0.018,25.301,9.101,46.592,26.897,61.365c15.865,13.396,64.693,34.846,78.058,40.426v-1.6
						C100.287,258.366,54.919,237.999,40.15,225.534"/>
				</defs>
				<clipPath id="SVGID_233_">
					<use xlink:href="#SVGID_232_"  overflow="visible"/>
				</clipPath>
				
					<linearGradient id="SVGID_234_" gradientUnits="userSpaceOnUse" x1="-970.4736" y1="584.2676" x2="-965.8477" y2="584.2676" gradientTransform="matrix(0 -38.8261 -25.494 0 14960.1113 -37412.6328)">
					<stop  offset="0" style="stop-color:#C27913"/>
					<stop  offset="0.3" style="stop-color:#DB9A28"/>
					<stop  offset="1" style="stop-color:#C27913"/>
				</linearGradient>
				<rect x="12.293" y="87.462" clip-path="url(#SVGID_233_)" fill="url(#SVGID_234_)" width="104.984" height="179.623"/>
			</g>
		</g>
	</g>
	<g>
		<g>
			<g>
				<defs>
					<path id="SVGID_235_" d="M194.863,161.698c-0.137-6.379-3.637-9.826-12.446-15.057c-16.59-9.839-19.651-17.99-19.698-28.862
						c-0.1-16.492,13.815-26.019,26.928-26.266c10.97-0.21,18.303,4.056,21.758,6.807c0.019,5.839,0.031,11.689,0.035,17.535
						c-4.088-4.346-10.729-8.328-17.701-8.452c-5.654-0.106-11.563,2.388-11.744,9.625c-0.163,7.391,5.771,10.341,13.165,14.794
						c16.599,10.014,19.61,18.858,19.291,30.624c-0.427,12.895-8.999,27.08-28.778,27.297c-7.925,0.082-15.795-2.367-22.119-6.107
						c0.026-6.248,0.047-12.506,0.055-18.785c5.179,4.652,12.881,8.203,19.272,8.203
						C190.215,173.052,195.021,168.745,194.863,161.698 M112.508,108.995c1.653-0.802,4.486-1.461,7.242-1.461
						c11.877,0,16.811,9.479,16.829,32.435c-0.011,22.38-5.652,33.169-17.435,33.169c-2.752,0-5.166-0.688-6.639-1.238
						C112.503,150.976,112.505,129.917,112.508,108.995z M112.548,230.987c-0.009-13.979-0.024-28.143-0.026-42.408
						c2.027,0.596,5.02,1.139,9.207,1.133c22.645-0.021,35.694-20.41,35.694-50.287c-0.014-29.795-13.432-48.272-37.823-48.288
						c-11.118,0-20.116,2.472-27.493,7.283c-0.102,44.204-0.041,89.247,0.176,132.508
						C99.033,230.966,105.792,230.983,112.548,230.987z M52.545,172.558c4.086,0.027,7.346-0.895,9.528-2.402
						c-0.072-25.562-0.05-51.282,0.075-76.747c6.711-0.057,13.458-0.103,20.222-0.131c-0.099,29.363-0.106,59.116-0.018,88.542
						c-7.762,5.27-18.146,8.068-30.43,7.955c-19.836-0.201-29.567-11.182-29.605-32.521c0-21.145,0.002-42.319,0.002-63.419
						c6.535-0.093,13.143-0.165,19.791-0.239c-0.102,21.469-0.138,43.086-0.102,64.648C42.025,163.97,43.38,172.495,52.545,172.558z
						"/>
				</defs>
				<clipPath id="SVGID_236_">
					<use xlink:href="#SVGID_235_"  overflow="visible"/>
				</clipPath>
				<path clip-path="url(#SVGID_236_)" fill="#DA9017" d="M194.863,161.698c-0.137-6.379-3.637-9.826-12.446-15.057
					c-16.59-9.839-19.651-17.99-19.698-28.862c-0.1-16.492,13.815-26.019,26.928-26.266c10.97-0.21,18.303,4.056,21.758,6.807
					c0.019,5.839,0.031,11.689,0.035,17.535c-4.088-4.346-10.729-8.328-17.701-8.452c-5.654-0.106-11.563,2.388-11.744,9.625
					c-0.163,7.391,5.771,10.341,13.165,14.794c16.599,10.014,19.61,18.858,19.291,30.624c-0.427,12.895-8.999,27.08-28.778,27.297
					c-7.925,0.082-15.795-2.367-22.119-6.107c0.026-6.248,0.047-12.506,0.055-18.785c5.179,4.652,12.881,8.203,19.272,8.203
					C190.215,173.052,195.021,168.745,194.863,161.698 M112.508,108.995c1.653-0.802,4.486-1.461,7.242-1.461
					c11.877,0,16.811,9.479,16.829,32.435c-0.011,22.38-5.652,33.169-17.435,33.169c-2.752,0-5.166-0.688-6.639-1.238
					C112.503,150.976,112.505,129.917,112.508,108.995z M112.548,230.987c-0.009-13.979-0.024-28.143-0.026-42.408
					c2.027,0.596,5.02,1.139,9.207,1.133c22.645-0.021,35.694-20.41,35.694-50.287c-0.014-29.795-13.432-48.272-37.823-48.288
					c-11.118,0-20.116,2.472-27.493,7.283c-0.102,44.204-0.041,89.247,0.176,132.508
					C99.033,230.966,105.792,230.983,112.548,230.987z M52.545,172.558c4.086,0.027,7.346-0.895,9.528-2.402
					c-0.072-25.562-0.05-51.282,0.075-76.747c6.711-0.057,13.458-0.103,20.222-0.131c-0.099,29.363-0.106,59.116-0.018,88.542
					c-7.762,5.27-18.146,8.068-30.43,7.955c-19.836-0.201-29.567-11.182-29.605-32.521c0-21.145,0.002-42.319,0.002-63.419
					c6.535-0.093,13.143-0.165,19.791-0.239c-0.102,21.469-0.138,43.086-0.102,64.648C42.025,163.97,43.38,172.495,52.545,172.558z"
					/>
			</g>
		</g>
		<g>
			<g>
				<defs>
					<path id="SVGID_237_" d="M194.863,161.698c-0.137-6.379-3.637-9.826-12.446-15.057c-16.59-9.839-19.651-17.99-19.698-28.862
						c-0.1-16.492,13.815-26.019,26.928-26.266c10.97-0.21,18.303,4.056,21.758,6.807c0.019,5.839,0.031,11.689,0.035,17.535
						c-4.088-4.346-10.729-8.328-17.701-8.452c-5.654-0.106-11.563,2.388-11.744,9.625c-0.163,7.391,5.771,10.341,13.165,14.794
						c16.599,10.014,19.61,18.858,19.291,30.624c-0.427,12.895-8.999,27.08-28.778,27.297c-7.925,0.082-15.795-2.367-22.119-6.107
						c0.026-6.248,0.047-12.506,0.055-18.785c5.179,4.652,12.881,8.203,19.272,8.203
						C190.215,173.052,195.021,168.745,194.863,161.698 M112.508,108.995c1.653-0.802,4.486-1.461,7.242-1.461
						c11.877,0,16.811,9.479,16.829,32.435c-0.011,22.38-5.652,33.169-17.435,33.169c-2.752,0-5.166-0.688-6.639-1.238
						C112.503,150.976,112.505,129.917,112.508,108.995z M112.548,230.987c-0.009-13.979-0.024-28.143-0.026-42.408
						c2.027,0.596,5.02,1.139,9.207,1.133c22.645-0.021,35.694-20.41,35.694-50.287c-0.014-29.795-13.432-48.272-37.823-48.288
						c-11.118,0-20.116,2.472-27.493,7.283c-0.102,44.204-0.041,89.247,0.176,132.508
						C99.033,230.966,105.792,230.983,112.548,230.987z M52.545,172.558c4.086,0.027,7.346-0.895,9.528-2.402
						c-0.072-25.562-0.05-51.282,0.075-76.747c6.711-0.057,13.458-0.103,20.222-0.131c-0.099,29.363-0.106,59.116-0.018,88.542
						c-7.762,5.27-18.146,8.068-30.43,7.955c-19.836-0.201-29.567-11.182-29.605-32.521c0-21.145,0.002-42.319,0.002-63.419
						c6.535-0.093,13.143-0.165,19.791-0.239c-0.102,21.469-0.138,43.086-0.102,64.648C42.025,163.97,43.38,172.495,52.545,172.558z
						"/>
				</defs>
				<clipPath id="SVGID_238_">
					<use xlink:href="#SVGID_237_"  overflow="visible"/>
				</clipPath>
				
					<radialGradient id="SVGID_239_" cx="112.9077" cy="647.6328" r="132.3328" gradientTransform="matrix(1 0 0 1 -56.7402 -532.5547)" gradientUnits="userSpaceOnUse">
					<stop  offset="0" style="stop-color:#FFE7B0"/>
					<stop  offset="0.5275" style="stop-color:#FEBF52"/>
					<stop  offset="0.5568" style="stop-color:#F9B94C"/>
					<stop  offset="1" style="stop-color:#DA9017"/>
				</radialGradient>
				<rect x="21.833" y="91.076" clip-path="url(#SVGID_238_)" fill="url(#SVGID_239_)" width="193.333" height="140.667"/>
			</g>
		</g>
	</g>
</g>
</svg>
