<svg width="36" height="36" viewBox="0 0 36 36" fill="none" xmlns="http://www.w3.org/2000/svg">
<path d="M35.28 18.4C35.28 16.92 35.1599 15.84 34.9 14.72H18V21.3999H27.9199C27.72 23.06 26.64 25.56 24.24 27.2399L24.2063 27.4635L29.5498 31.603L29.92 31.64C33.3199 28.5 35.28 23.8799 35.28 18.4Z" fill="#4285F4"/>
<path d="M18 36C22.8599 36 26.9398 34.3999 29.9199 31.64L24.2399 27.2399C22.7199 28.2999 20.6799 29.0399 18 29.0399C13.24 29.0399 9.20003 25.9 7.75989 21.56L7.5488 21.578L1.99258 25.878L1.91992 26.0799C4.87989 31.9599 10.9599 36 18 36Z" fill="#34A853"/>
<path d="M7.75992 21.56C7.37993 20.44 7.16001 19.2399 7.16001 18C7.16001 16.7599 7.37993 15.5599 7.73993 14.4399L7.72986 14.2014L2.10402 9.83234L1.91995 9.91989C0.700007 12.3599 0 15.1 0 18C0 20.9 0.700007 23.6399 1.91995 26.0799L7.75992 21.56Z" fill="#FBBC05"/>
<path d="M18 6.95995C21.3799 6.95995 23.6599 8.41994 24.9599 9.64003L30.0399 4.68C26.92 1.78001 22.8599 0 18 0C10.9599 0 4.87989 4.03997 1.91992 9.91992L7.7399 14.44C9.20003 10.1 13.24 6.95995 18 6.95995Z" fill="#EB4335"/>
</svg>
