<svg width="138" height="48" viewBox="0 0 138 48" fill="none" xmlns="http://www.w3.org/2000/svg">
<path d="M32.101 25.0839C32.044 19.1105 36.9811 16.2405 37.2031 16.1038C34.4243 12.0437 30.1079 11.4857 28.5704 11.423C24.8975 11.0472 21.4011 13.5869 19.5334 13.5869C17.6656 13.5869 14.7899 11.4743 11.7434 11.5369C7.73455 11.5938 4.03887 13.8659 1.9718 17.4534C-2.18512 24.6625 0.912639 35.368 4.97276 41.2276C6.96011 44.0919 9.3176 47.3206 12.4267 47.201C15.422 47.0814 16.5495 45.2649 20.1598 45.2649C23.77 45.2649 24.7893 47.201 27.9497 47.1441C31.1671 47.0814 33.2057 44.2172 35.1759 41.3415C37.4423 38.0102 38.3819 34.7929 38.4388 34.6221C38.3648 34.5936 32.1693 32.219 32.101 25.0839Z" fill="black"/>
<path d="M26.1617 7.53941C27.813 5.54067 28.9234 2.76749 28.6216 0C26.2471 0.0968051 23.3714 1.58305 21.6688 3.58179C20.1427 5.34706 18.8045 8.17149 19.1689 10.882C21.8054 11.087 24.516 9.53245 26.1617 7.53941ZM52.9254 30.9548L50.1921 39.2402H46.6786L55.6246 12.9092H59.7245L68.7046 39.2402H65.0716L62.2586 30.9548H52.9254ZM61.5581 28.2955L58.9843 20.7163C58.3977 18.9966 58.0105 17.4363 57.6176 15.9102H57.5436C57.1507 17.4705 56.7236 19.0706 56.2168 20.6764L53.6429 28.2899L61.5581 28.2955ZM71.3696 26.5018C71.3696 24.0817 71.2956 22.1228 71.2102 20.3291H74.2965L74.456 23.5749H74.53C75.9365 21.2686 78.1631 19.902 81.2494 19.902C85.8221 19.902 89.2558 23.7685 89.2558 29.5142C89.2558 36.3133 85.1159 39.6673 80.6629 39.6673C78.1631 39.6673 75.9764 38.574 74.8432 36.7005H74.7692V46.9732H71.3696V26.5018ZM74.7635 31.5414C74.7635 32.0539 74.8375 32.5151 74.9229 32.9479C75.5493 35.3281 77.6164 36.9738 80.0821 36.9738C83.7151 36.9738 85.8277 34.007 85.8277 29.6679C85.8277 25.8754 83.8347 22.641 80.2017 22.641C77.8613 22.641 75.6746 24.3208 75.0027 26.9004C74.8831 27.3275 74.7692 27.84 74.7692 28.3069L74.7635 31.5414ZM92.8091 26.5018C92.8091 24.0817 92.7351 22.1228 92.6497 20.3291H95.736L95.8955 23.5749H95.9695C97.376 21.2686 99.6025 19.902 102.689 19.902C107.262 19.902 110.695 23.7685 110.695 29.5142C110.695 36.3133 106.555 39.6673 102.102 39.6673C99.6025 39.6673 97.4159 38.574 96.2827 36.7005H96.2087V46.9732H92.8091V26.5018ZM96.2087 31.5414C96.2087 32.0539 96.2827 32.5151 96.3681 32.9479C96.9945 35.3281 99.0616 36.9738 101.527 36.9738C105.16 36.9738 107.273 34.007 107.273 29.6679C107.273 25.8754 105.28 22.641 101.647 22.641C99.3064 22.641 97.1198 24.3208 96.4478 26.9004C96.3282 27.3275 96.2144 27.84 96.2144 28.3069L96.2087 31.5414ZM114.254 11.5027H117.694V39.2345H114.254V11.5027ZM124.607 30.4082C124.681 35.0548 127.653 36.9738 131.087 36.9738C133.547 36.9738 135.033 36.5468 136.32 36.0001L136.907 38.4601C135.699 39.0067 133.627 39.6331 130.62 39.6331C124.8 39.6331 121.321 35.8065 121.321 30.1007C121.321 24.3949 124.681 19.902 130.187 19.902C136.36 19.902 138 25.3288 138 28.808C138 29.5142 137.926 30.0551 137.88 30.4082H124.607ZM134.686 27.9482C134.726 25.7615 133.786 22.362 129.92 22.362C126.44 22.362 124.92 25.5679 124.647 27.9482H134.686Z" fill="black"/>
</svg>
