<?xml version="1.0" standalone="no"?>
<!DOCTYPE svg PUBLIC "-//W3C//DTD SVG 20010904//EN"
 "http://www.w3.org/TR/2001/REC-SVG-20010904/DTD/svg10.dtd">
<svg version="1.0" xmlns="http://www.w3.org/2000/svg"
 width="1932.000000pt" height="540.000000pt" viewBox="0 0 1932.000000 540.000000"
 preserveAspectRatio="xMidYMid meet">

<g transform="translate(0.000000,540.000000) scale(0.100000,-0.100000)"
fill="#132A55" stroke="none">
<path d="M0 2700 l0 -2700 103 0 c274 0 718 78 1092 190 392 118 700 246 1475
610 650 306 974 442 1360 571 618 206 1090 286 1735 296 960 15 1683 -88 3365
-478 1074 -249 1627 -357 2260 -443 913 -124 1869 -159 2630 -96 1276 105
2652 481 4085 1116 244 108 832 401 1050 522 l160 89 3 1512 2 1511 -9660 0
-9660 0 0 -2700z"/>
</g>
</svg>
