<svg width="19" height="21" viewBox="0 0 19 21" fill="none" xmlns="http://www.w3.org/2000/svg">
<path d="M16.5905 5.42555C16.6261 5.13659 16.6446 4.84239 16.6446 4.54383C16.6446 2.03437 14.6103 0 12.1008 0H4.50709C4.02942 0 3.6216 0.344941 3.54236 0.815965L0.744275 17.4468C0.643868 18.0436 1.1039 18.5874 1.709 18.5874H4.48621C4.96388 18.5874 5.37937 18.2427 5.45857 17.7716C5.45857 17.7716 5.4632 17.744 5.47157 17.6943H5.47161L5.08459 19.9947C4.99616 20.5207 5.4016 21 5.93492 21H8.36457C8.78559 21 9.14505 20.696 9.21486 20.2808L9.90511 16.1784C10.0241 15.4712 10.6363 14.9534 11.3534 14.9534H11.9917C15.4588 14.9534 18.2693 12.1428 18.2693 8.67579C18.2693 7.33421 17.6062 6.14832 16.5905 5.42555Z" fill="#002987"/>
<path d="M16.5903 5.42554C16.1558 8.96023 13.1432 11.6972 9.49106 11.6972H7.37199C6.89371 11.6972 6.48064 12.0158 6.35107 12.4662L5.08443 19.9946C4.99596 20.5206 5.4014 21 5.93472 21H8.36437C8.78539 21 9.14485 20.696 9.21466 20.2808L9.90491 16.1784C10.0239 15.4712 10.6361 14.9534 11.3532 14.9534H11.9915C15.4586 14.9534 18.2691 12.1428 18.2691 8.67578C18.2691 7.3342 17.606 6.14831 16.5903 5.42554Z" fill="#0085CC"/>
<path d="M7.37252 11.6973H9.4916C13.1437 11.6973 16.1563 8.96026 16.5908 5.42561C15.9392 4.96189 15.1428 4.68823 14.2821 4.68823H8.7511C8.12139 4.68823 7.58371 5.14297 7.4792 5.76395L6.35156 12.4662C6.48113 12.0158 6.89424 11.6973 7.37252 11.6973Z" fill="#00186A"/>
</svg>
