<svg width="202" height="43" viewBox="0 0 202 43" fill="none" xmlns="http://www.w3.org/2000/svg">
<path d="M201.263 19.4378V15.8983H196.868V10.3957L196.72 10.4412L192.592 11.7044L192.51 11.7291V15.8985H185.994V13.5758C185.994 12.4943 186.236 11.6666 186.712 11.1147C187.186 10.5693 187.863 10.2921 188.726 10.2921C189.347 10.2921 189.99 10.4383 190.636 10.7266L190.798 10.7991V7.07146L190.722 7.04343C190.119 6.82654 189.298 6.71732 188.281 6.71732C186.999 6.71732 185.834 6.99631 184.818 7.54924C183.802 8.10295 183.002 8.89341 182.442 9.89841C181.884 10.9023 181.6 12.0617 181.6 13.3447V15.8983H178.54V19.4378H181.6V34.3492H185.994V19.4378H192.51V28.9137C192.51 32.8164 194.351 34.7941 197.982 34.7941C198.578 34.7941 199.206 34.7242 199.847 34.5873C200.5 34.4467 200.944 34.3064 201.206 34.1565L201.264 34.1222V30.5499L201.085 30.6681C200.846 30.827 200.55 30.9569 200.201 31.0534C199.852 31.1517 199.56 31.201 199.333 31.201C198.483 31.201 197.854 30.9718 197.463 30.5196C197.069 30.0632 196.868 29.2652 196.868 28.1488V19.4378H201.263ZM168.728 31.2016C167.133 31.2016 165.876 30.6728 164.99 29.6312C164.098 28.5843 163.647 27.0918 163.647 25.1955C163.647 23.239 164.098 21.7077 164.99 20.6424C165.877 19.584 167.122 19.0469 168.692 19.0469C170.216 19.0469 171.428 19.5599 172.297 20.5725C173.17 21.5903 173.613 23.1093 173.613 25.0886C173.613 27.0922 173.197 28.6312 172.375 29.6608C171.559 30.6825 170.332 31.2016 168.728 31.2016ZM168.923 15.4538C165.881 15.4538 163.464 16.3453 161.741 18.1036C160.019 19.8621 159.146 22.2955 159.146 25.337C159.146 28.2259 159.999 30.5496 161.68 32.2424C163.361 33.9359 165.648 34.7937 168.478 34.7937C171.428 34.7937 173.796 33.8897 175.518 32.1071C177.24 30.3264 178.113 27.9159 178.113 24.9455C178.113 22.0115 177.294 19.6705 175.679 17.9889C174.063 16.3066 171.789 15.4538 168.923 15.4538ZM152.062 15.4538C149.993 15.4538 148.281 15.9832 146.973 17.0269C145.657 18.0769 144.99 19.454 144.99 21.1204C144.99 21.9865 145.134 22.756 145.418 23.4086C145.703 24.0633 146.144 24.6398 146.731 25.1236C147.313 25.6036 148.211 26.1063 149.401 26.6177C150.402 27.0295 151.148 27.3778 151.622 27.6523C152.086 27.9214 152.414 28.1918 152.6 28.4552C152.781 28.713 152.872 29.0658 152.872 29.5011C152.872 30.7407 151.944 31.3439 150.034 31.3439C149.325 31.3439 148.517 31.1959 147.632 30.9043C146.753 30.6171 145.923 30.1964 145.172 29.6571L144.99 29.5262V33.7564L145.057 33.7875C145.678 34.0745 146.462 34.3165 147.386 34.5069C148.308 34.6975 149.146 34.7945 149.874 34.7945C152.119 34.7945 153.928 34.2626 155.247 33.2126C156.575 32.1554 157.248 30.7458 157.248 29.0218C157.248 27.7781 156.886 26.7116 156.172 25.8514C155.463 24.9983 154.232 24.215 152.515 23.5227C151.147 22.9736 150.27 22.5179 149.909 22.168C149.56 21.83 149.383 21.352 149.383 20.7467C149.383 20.2102 149.602 19.7803 150.05 19.4322C150.502 19.0823 151.131 18.9044 151.92 18.9044C152.652 18.9044 153.401 19.02 154.146 19.2466C154.89 19.4732 155.544 19.7768 156.09 20.1481L156.269 20.2707V16.2581L156.2 16.2285C155.697 16.0126 155.033 15.8278 154.227 15.6779C153.424 15.529 152.696 15.4538 152.062 15.4538ZM133.536 31.2016C131.942 31.2016 130.684 30.6728 129.798 29.6312C128.906 28.5843 128.455 27.0922 128.455 25.1955C128.455 23.239 128.907 21.7077 129.799 20.6424C130.685 19.584 131.93 19.0469 133.501 19.0469C135.024 19.0469 136.236 19.5599 137.105 20.5725C137.979 21.5903 138.421 23.1093 138.421 25.0886C138.421 27.0922 138.005 28.6312 137.183 29.6608C136.367 30.6825 135.141 31.2016 133.536 31.2016ZM133.732 15.4538C130.689 15.4538 128.272 16.3453 126.55 18.1036C124.828 19.8621 123.954 22.2955 123.954 25.337C123.954 28.2271 124.807 30.5496 126.488 32.2424C128.169 33.9359 130.457 34.7937 133.287 34.7937C136.236 34.7937 138.605 33.8897 140.327 32.1071C142.049 30.3264 142.921 27.9159 142.921 24.9455C142.921 22.0115 142.103 19.6705 140.487 17.9889C138.87 16.3066 136.597 15.4538 133.732 15.4538ZM117.285 19.0936V15.8983H112.945V34.3488H117.285V24.9106C117.285 23.3058 117.649 21.9873 118.367 20.9915C119.076 20.0075 120.02 19.5089 121.174 19.5089C121.565 19.5089 122.004 19.5733 122.479 19.7008C122.949 19.8276 123.29 19.9652 123.491 20.1101L123.673 20.2423V15.8667L123.603 15.8366C123.199 15.6648 122.627 15.5782 121.903 15.5782C120.813 15.5782 119.837 15.9287 119.001 16.6187C118.267 17.2251 117.737 18.0567 117.331 19.0936H117.285ZM105.172 15.4538C103.181 15.4538 101.405 15.8808 99.8947 16.7224C98.381 17.566 97.2103 18.7704 96.4138 20.3019C95.6208 21.8296 95.2182 23.6142 95.2182 25.6043C95.2182 27.3476 95.6085 28.9474 96.3801 30.3574C97.1521 31.7697 98.2447 32.8746 99.6278 33.6409C101.009 34.4062 102.605 34.7943 104.373 34.7943C106.435 34.7943 108.196 34.3819 109.608 33.5687L109.665 33.536V29.5597L109.483 29.6929C108.843 30.1588 108.128 30.5307 107.359 30.7986C106.592 31.0663 105.893 31.2016 105.28 31.2016C103.577 31.2016 102.21 30.6687 101.217 29.6181C100.223 28.5662 99.7185 27.0891 99.7185 25.2303C99.7185 23.3599 100.244 21.8448 101.281 20.7269C102.314 19.6123 103.684 19.0469 105.351 19.0469C106.778 19.0469 108.168 19.5299 109.483 20.4839L109.665 20.6161V16.4265L109.606 16.3934C109.111 16.1163 108.436 15.8876 107.599 15.7141C106.764 15.541 105.948 15.4538 105.172 15.4538ZM92.229 15.8985H87.8889V34.3488H92.229V15.8985ZM90.1034 8.03851C89.389 8.03851 88.766 8.28168 88.2542 8.76355C87.7402 9.24677 87.4795 9.85519 87.4795 10.5732C87.4795 11.28 87.7371 11.8773 88.2462 12.3477C88.752 12.8167 89.377 13.0544 90.1036 13.0544C90.83 13.0544 91.4573 12.8167 91.9691 12.3484C92.4843 11.8773 92.7456 11.2802 92.7456 10.5732C92.7456 9.88031 92.4913 9.27812 91.9903 8.78301C91.4898 8.28888 90.8547 8.03851 90.1034 8.03851ZM79.2745 14.5372V34.3488H83.7038V8.60331H77.5735L69.7815 27.7263L62.2198 8.60331H55.8398V34.3486H60.0022V14.5352H60.1451L68.1301 34.3488H71.2713L79.1316 14.5372H79.2745Z" fill="#706D6E"/>
<path d="M20.4171 20.4171H0V0H20.4171V20.4171Z" fill="#F1511B"/>
<path d="M42.9602 20.4171H22.5435V0H42.9602V20.4171Z" fill="#80CC28"/>
<path d="M20.4165 42.9679H0V22.5509H20.4165V42.9679Z" fill="#00ADEF"/>
<path d="M42.9602 42.9679H22.5435V22.5509H42.9602V42.9679Z" fill="#FBBC09"/>
</svg>
