<svg width="150" height="30" viewBox="0 0 150 30" fill="none" xmlns="http://www.w3.org/2000/svg">
<path d="M76.8785 14.3547C75.6455 14.3547 74.7567 14.7591 73.8554 15.171V24.492C74.7187 24.5742 75.2135 24.5742 76.0326 24.5742C78.9921 24.5742 79.3978 23.2189 79.3978 21.3265V16.8747C79.3978 15.4772 78.9341 14.3547 76.8785 14.3547ZM57.2233 13.846C55.1699 13.846 54.7013 14.9733 54.7013 16.3695V17.1539H59.7426V16.3695C59.7426 14.9733 59.274 13.846 57.2233 13.846ZM19.1472 23.5479C19.1472 24.6523 19.6684 25.226 20.8185 25.226C22.0522 25.226 22.7827 24.8237 23.6833 24.4104V22.1994H20.9857C19.7085 22.1994 19.1472 22.4372 19.1472 23.5479ZM95.9981 14.3547C93.9412 14.3547 93.2286 15.4772 93.2286 16.8747V21.9748C93.2286 23.3758 93.9412 24.5017 95.9981 24.5017C98.0495 24.5017 98.7676 23.3758 98.7676 21.9748V16.8747C98.7669 15.4772 98.0488 14.3547 95.9981 14.3547ZM9.06734 29.2665H3.02106V14.6319H0V9.58917H3.02175V6.5605C3.02175 2.44602 4.72685 0 9.57327 0H13.6083V5.04409H11.0862C9.19936 5.04409 9.07494 5.74908 9.07494 7.06436L9.06734 9.58848H13.6359L13.1016 14.6312H9.06734V29.2665ZM29.731 29.3045H24.6917L24.474 28.03C22.1731 29.3045 20.1197 29.5112 18.765 29.5112C15.0694 29.5112 13.1023 27.0424 13.1023 23.628C13.1023 19.5999 15.3977 18.1623 19.5039 18.1623H23.6833V17.2915C23.6833 15.2353 23.4476 14.6319 20.2856 14.6319H15.1157L15.6209 9.58917H21.2719C28.2097 9.58917 29.731 11.7808 29.731 17.3322V29.3045ZM46.8669 15.0017C43.7311 14.4639 42.8306 14.3457 41.3218 14.3457C38.6117 14.3457 37.7927 14.9436 37.7927 17.2452V21.5988C37.7927 23.9004 38.6117 24.501 41.3218 24.501C42.8306 24.501 43.7311 24.3807 46.8669 23.8409V28.7599C44.1203 29.3757 42.3309 29.5375 40.8186 29.5375C34.3272 29.5375 31.7471 26.1238 31.7471 21.1924V17.6599C31.7471 12.7243 34.3272 9.30441 40.8186 9.30441C42.3309 9.30441 44.1203 9.46683 46.8669 10.0854V15.0017ZM65.7882 21.1924H54.7006V21.5988C54.7006 23.9004 55.5203 24.501 58.2296 24.501C60.6653 24.501 62.152 24.3807 65.2822 23.8409V28.7599C62.2632 29.3757 60.6902 29.5375 57.7285 29.5375C51.2365 29.5375 48.655 26.1238 48.655 21.1924V17.1532C48.655 12.8383 50.5702 9.30441 57.2226 9.30441C63.875 9.30441 65.7882 12.7975 65.7882 17.1532V21.1924ZM85.4427 21.2857C85.4427 26.0519 84.0804 29.5285 75.828 29.5285C72.8477 29.5285 71.0997 29.2665 67.8105 28.7606V1.51503L73.8547 0.506622V10.037C75.161 9.55185 76.8516 9.3051 78.3901 9.3051C84.435 9.3051 85.442 12.0151 85.442 16.3702V21.2857H85.4427ZM104.818 21.3894C104.818 25.5011 103.121 29.4891 96.0182 29.4891C88.9123 29.4891 87.1831 25.5011 87.1831 21.3894V17.4193C87.1831 13.3055 88.9123 9.31685 96.0182 9.31685C103.121 9.31685 104.818 13.3055 104.818 17.4193V21.3894ZM124.18 21.3894C124.18 25.5011 122.481 29.4891 115.38 29.4891C108.274 29.4891 106.545 25.5011 106.545 21.3894V17.4193C106.545 13.3055 108.274 9.31685 115.38 9.31685C122.481 9.31685 124.18 13.3055 124.18 17.4193V21.3894ZM144.05 29.2665H137.499L131.958 20.0167V29.2665H125.912V1.51433L131.958 0.50593V18.3718L137.499 9.58917H144.05L138.001 19.1735L144.05 29.2665ZM115.359 14.3547C113.305 14.3547 112.593 15.4772 112.593 16.8747V21.9748C112.593 23.3758 113.305 24.5017 115.359 24.5017C117.41 24.5017 118.135 23.3758 118.135 21.9748V16.8747C118.135 15.4772 117.41 14.3547 115.359 14.3547ZM147.501 25.8149C148.519 25.8149 149.33 26.645 149.33 27.6817C149.33 28.7343 148.519 29.5554 147.494 29.5554C146.474 29.5554 145.646 28.7343 145.646 27.6817C145.646 26.645 146.474 25.8149 147.494 25.8149H147.501ZM147.494 26.1052C146.673 26.1052 146.002 26.8108 146.002 27.6817C146.002 28.5685 146.674 29.2651 147.501 29.2651C148.329 29.2734 148.991 28.5685 148.991 27.69C148.991 26.8115 148.329 26.1052 147.501 26.1052H147.494ZM147.146 28.7682H146.814V26.685C146.989 26.6608 147.154 26.6367 147.403 26.6367C147.718 26.6367 147.924 26.703 148.051 26.7936C148.173 26.8855 148.239 27.0258 148.239 27.2241C148.239 27.4992 148.058 27.6644 147.835 27.7315V27.7474C148.016 27.7812 148.14 27.9457 148.182 28.2519C148.231 28.5761 148.281 28.6998 148.313 28.7675H147.966C147.917 28.6998 147.866 28.5097 147.825 28.2353C147.776 27.9706 147.642 27.8711 147.377 27.8711H147.147V28.7682H147.146ZM147.146 27.6153H147.387C147.659 27.6153 147.891 27.5151 147.891 27.2573C147.891 27.0749 147.759 26.8931 147.387 26.8931C147.278 26.8931 147.203 26.9014 147.146 26.909V27.6153Z" fill="#3B5998"/>
</svg>
