<svg width="119" height="40" viewBox="0 0 119 40" fill="none" xmlns="http://www.w3.org/2000/svg">
<path d="M118.924 9.52322C117.306 0.116541 89.3902 -2.819 56.5695 2.96627C42.7859 5.39715 30.3401 8.98256 20.6479 13.0162C22.1367 13.0492 23.2409 13.3949 23.9118 14.0723C24.4363 14.604 24.7012 15.3337 24.7012 16.2428V17.1759H21.4829V16.352C21.4829 15.6655 21.0764 15.2401 20.3562 15.2401C19.7511 15.2401 19.3783 15.5167 19.258 16.0616C19.2177 16.277 19.2221 16.4985 19.271 16.712C19.6154 18.1372 24.3942 19.0223 24.914 21.6524C24.9822 21.9909 25.0746 22.7151 24.9288 23.7515C24.6307 25.8727 22.7898 26.6912 20.4463 26.6912C17.1753 26.6912 15.8465 25.1226 15.8465 22.96L15.8489 21.9369H19.2989L19.3007 23.2114C19.3007 23.9279 19.8151 24.3233 20.5157 24.3233C21.1795 24.3233 21.5671 24.0527 21.7011 23.4994C21.7633 23.245 21.7906 22.87 21.6773 22.5831C21.039 20.9617 16.5767 20.2045 16.0273 17.5828C15.9046 16.9935 15.8945 16.4918 15.9964 15.8576C16.0487 15.5431 16.1449 15.2378 16.2821 14.9508C5.53134 20.0412 -0.757679 25.6423 0.0732701 30.4782C1.69309 39.8861 29.6087 42.8187 62.4288 37.0334C76.856 34.4909 89.8264 30.6847 99.6976 26.4194C99.5548 26.4266 99.4161 26.4422 99.268 26.4422C97.0217 26.4422 95.016 25.5901 94.808 23.2654C94.7712 22.8424 94.7647 22.6653 94.7635 22.4241L94.7647 17.0799C94.7647 16.8495 94.7914 16.445 94.8169 16.2362C95.083 13.9895 96.8373 13.063 99.2691 13.063C101.151 13.063 103.458 13.6097 103.712 16.238C103.746 16.568 103.742 16.9203 103.742 17.0361V17.5407H100.491V16.7877C100.491 16.7715 100.487 16.49 100.451 16.3142C100.398 16.046 100.172 15.4243 99.246 15.4243C98.3315 15.4243 98.0944 16.0472 98.0352 16.3148C98.0014 16.4618 97.9854 16.673 97.9854 16.9071V22.7151C97.9824 22.9168 97.9925 23.0746 98.0126 23.1904C98.0286 23.2816 98.1928 24.0821 99.2573 24.0821C100.314 24.0821 100.478 23.2816 100.492 23.1904C100.52 23.0332 100.524 22.846 100.523 22.7151V20.9155H99.2437V18.9773H103.766V22.4253C103.765 22.6599 103.762 22.8334 103.723 23.2654C103.668 23.8751 103.478 24.3911 103.181 24.8322C113.65 19.7994 119.745 14.289 118.924 9.52322ZM33.8215 26.1949L32.175 14.868H32.1158L30.4272 26.1949H26.957L29.291 13.4033H34.953L37.2728 26.1949H33.8215ZM50.5128 26.1949L50.4364 15.0871H50.3806L48.3388 26.1949H45.082L43.0503 15.0871H42.9922L42.9181 26.1949H39.6909L39.9707 13.4033H45.1614L46.6728 22.9054H46.7469L48.2624 13.4033H53.4508L53.7293 26.1949H50.5128ZM65.7099 23.7161C65.3626 26.1937 62.9652 26.627 61.2707 26.627C58.4572 26.627 56.7171 25.4095 56.7171 22.9318L56.7189 21.9212H60.1274L60.1298 23.1802C60.1298 23.8637 60.6057 24.2819 61.3406 24.2819C61.9962 24.2819 62.3802 24.0155 62.5136 23.4682C62.5752 23.2132 62.6007 22.8412 62.4916 22.5603C61.8634 20.9695 57.436 20.1901 56.8979 17.6092C56.7746 17.0241 56.7657 16.5272 56.867 15.8996C57.2416 13.5599 59.4594 13.0738 61.2446 13.0738C62.8413 13.0738 64.0036 13.4267 64.7006 14.1324C65.2204 14.6592 65.4835 15.3823 65.4835 16.2818V17.2047H62.2961V16.3904C62.2961 15.6931 61.8687 15.2899 61.1818 15.2899C60.5725 15.2899 60.2039 15.5641 60.083 16.1036C60.0437 16.3167 60.049 16.5359 60.0984 16.7469C60.4398 18.1654 65.1765 19.0325 65.6951 21.638C65.7621 21.9705 65.854 22.6839 65.7099 23.7161ZM77.5151 22.5537C77.5198 22.7938 77.4967 23.2732 77.4837 23.3962C77.2893 25.5037 75.8005 26.5748 73.0699 26.5748C70.3288 26.5748 68.8387 25.5037 68.6455 23.3962C68.6236 23.1167 68.6131 22.8365 68.6141 22.5561V13.4003H71.8751V22.8448C71.8715 23.056 71.8822 23.212 71.9029 23.3206C71.9432 23.5306 72.1495 24.2123 73.0699 24.2123C73.9874 24.2123 74.1937 23.53 74.2369 23.323C74.2553 23.2114 74.2666 23.0476 74.2666 22.8442V13.4003H77.5151V22.5537ZM91.5648 26.0647H87.0272L83.9813 15.9326H83.9304L84.0993 26.0647H80.9367V13.4033H85.6646L88.4798 23.1364H88.5456L88.3791 13.4033H91.5648V26.0647Z" fill="#2D4F9E"/>
</svg>
