<svg width="153" height="34" viewBox="0 0 153 34" fill="none" xmlns="http://www.w3.org/2000/svg">
<path d="M0 20.7562C0 19.0266 0.289555 17.4128 0.868666 15.9148C1.44778 14.4171 2.25841 13.112 3.30087 12.0001C4.34333 10.8883 5.59039 10.0157 7.04205 9.38277C8.49372 8.74951 10.0842 8.43274 11.8137 8.43274C13.1266 8.43274 14.3195 8.62597 15.3928 9.01185C16.4661 9.39802 17.5046 10.0313 18.5082 10.9113V8.89609H24.392V32.6166H18.5082V30.6011C17.5046 31.4814 16.4661 32.1146 15.3928 32.5005C14.3195 32.8867 13.1266 33.0796 11.8137 33.0796C10.0842 33.0796 8.49342 32.7631 7.04205 32.1299C5.59039 31.4969 4.34333 30.6244 3.30087 29.5125C2.25841 28.4004 1.44778 27.0956 0.868666 25.5976C0.289555 24.0998 0 22.486 0 20.7562ZM12.5783 27.5434C13.0416 27.5434 13.528 27.4934 14.0377 27.3929C14.5472 27.2924 15.0608 27.1225 15.5782 26.8832C16.0954 26.6439 16.6013 26.3235 17.0954 25.9218C17.5896 25.5204 18.0604 25.0262 18.5082 24.4393V17.073C18.0604 16.4864 17.5896 15.9962 17.0954 15.6022C16.601 15.2086 16.0954 14.8879 15.578 14.6408C15.0605 14.3937 14.5472 14.22 14.0374 14.1197C13.528 14.0192 13.0414 13.9693 12.5783 13.969C11.6672 13.969 10.8138 14.1389 10.0187 14.4787C9.22299 14.8185 8.53201 15.2935 7.94542 15.9034C7.35853 16.5134 6.89907 17.2316 6.56704 18.0578C6.23501 18.8839 6.06899 19.7834 6.06899 20.7562C6.06899 21.7292 6.23501 22.6287 6.56704 23.4549C6.89907 24.2811 7.35853 24.9993 7.94542 25.6092C8.53231 26.2194 9.22329 26.6942 10.0184 27.034C10.814 27.3735 11.6672 27.5434 12.5783 27.5434ZM39.1001 14.2885C36.3123 14.3088 33.8902 16.2516 33.8902 19.1349V32.6166H28.0064V19.297C28.0393 13.7428 32.8493 8.50752 39.0158 8.43274H39.1803C45.3468 8.50752 50.1568 13.7428 50.1897 19.297V32.6166H44.3058V19.1349C44.3058 16.2516 41.8841 14.3088 39.0959 14.2885H39.1001ZM52.9748 20.7562C52.9748 19.0266 53.2644 17.4128 53.8435 15.9148C54.4226 14.4171 55.2336 13.112 56.2757 12.0001C57.3182 10.8883 58.5652 10.0157 60.0169 9.38277C61.4686 8.74951 63.059 8.43274 64.7889 8.43274C66.1014 8.43274 67.2983 8.62597 68.3793 9.01185C69.4604 9.39802 70.495 10.0235 71.4833 10.8883V1.78464H77.3672V32.6166H71.4833V30.6244C70.495 31.5044 69.4604 32.1338 68.3793 32.5122C67.2983 32.8906 66.1014 33.0796 64.7889 33.0796C63.059 33.0796 61.4686 32.7631 60.0169 32.1299C58.5652 31.4969 57.3182 30.6244 56.2757 29.5125C55.2336 28.4007 54.4226 27.0956 53.8438 25.5976C53.2644 24.0998 52.9748 22.486 52.9748 20.7562ZM65.5531 27.5434C66.0165 27.5434 66.5029 27.4934 67.0126 27.3929C67.522 27.2924 68.0356 27.1225 68.5531 26.8832C69.0703 26.6439 69.5761 26.3235 70.0703 25.9218C70.5644 25.5204 71.0353 25.0262 71.4833 24.4393V17.073C71.0353 16.4864 70.5644 15.9962 70.0703 15.6022C69.5761 15.2086 69.0703 14.8879 68.5531 14.6408C68.0356 14.3937 67.522 14.22 67.0126 14.1197C66.5029 14.0192 66.0165 13.9693 65.5531 13.969C64.642 13.969 63.7889 14.1389 62.9935 14.4787C62.1981 14.8185 61.5069 15.2935 60.9206 15.9034C60.3334 16.5134 59.8739 17.2316 59.5419 18.0578C59.2099 18.8839 59.0438 19.7834 59.0441 20.7562C59.0441 21.7292 59.2099 22.6287 59.5419 23.4549C59.8739 24.2811 60.3334 24.9993 60.9203 25.6092C61.5072 26.2194 62.1981 26.6942 62.9935 27.034C63.7889 27.3735 64.642 27.5434 65.5531 27.5434ZM104.92 27.5434C105.801 27.5434 106.631 27.3774 107.411 27.0453C108.178 26.7217 108.872 26.2448 109.449 25.6439C110.028 25.0418 110.484 24.3275 110.816 23.5013C111.148 22.6751 111.314 21.7604 111.314 20.7562C111.314 19.7679 111.144 18.8606 110.804 18.0344C110.464 17.2082 110.001 16.4939 109.414 15.8918C108.833 15.2932 108.141 14.8132 107.376 14.4787C106.604 14.1389 105.785 13.9693 104.92 13.969C104.04 13.969 103.21 14.1389 102.43 14.4787C101.663 14.8094 100.971 15.2898 100.392 15.8918C99.8128 16.4939 99.3533 17.2082 99.0135 18.0344C98.6737 18.8606 98.5038 19.7679 98.5038 20.7565C98.5038 21.7601 98.6698 22.6751 99.0019 23.5013C99.3339 24.3275 99.7895 25.0418 100.369 25.6439C100.946 26.2448 101.639 26.7217 102.407 27.0453C103.187 27.3774 104.025 27.5434 104.92 27.5434ZM104.92 33.0796C103.206 33.0796 101.593 32.7709 100.079 32.1532C98.5654 31.5355 97.2415 30.6746 96.1066 29.5703C94.9714 28.4662 94.0755 27.1611 93.4192 25.6556C92.763 24.1498 92.4351 22.5168 92.4351 20.7562C92.4351 19.0422 92.763 17.4359 93.4192 15.9381C94.0758 14.4401 94.9675 13.1353 96.0949 12.0235C97.222 10.9113 98.5463 10.0352 100.067 9.39413C101.589 8.7534 103.206 8.43274 104.92 8.43274C106.634 8.43274 108.248 8.7534 109.762 9.39413C111.275 10.0352 112.596 10.9113 113.723 12.0235C114.851 13.1353 115.742 14.4404 116.398 15.9381C117.055 17.4362 117.383 19.0422 117.383 20.7562C117.383 22.5168 117.055 24.1498 116.398 25.6556C115.742 27.1611 114.846 28.4662 113.711 29.5703C112.576 30.6746 111.256 31.5355 109.75 32.1532C108.245 32.7709 106.635 33.0796 104.92 33.0796ZM122.961 7.03881C122.484 7.03881 122.034 6.94578 121.609 6.75942C121.192 6.57848 120.813 6.32073 120.492 5.99964C120.171 5.67819 119.913 5.29918 119.732 4.8824C119.546 4.45619 119.45 3.9956 119.453 3.53034C119.453 3.05383 119.546 2.59946 119.732 2.16752C119.911 1.74639 120.169 1.36339 120.492 1.03921C120.814 0.718124 121.193 0.46038 121.609 0.279427C122.036 0.0928655 122.496 -0.0023082 122.961 4.25065e-05C123.438 4.25065e-05 123.892 0.0930711 124.324 0.279427C124.745 0.458394 125.128 0.716293 125.452 1.03921C125.775 1.3634 126.033 1.74639 126.212 2.16752C126.399 2.59946 126.492 3.05383 126.492 3.53064C126.492 4.00715 126.399 4.45794 126.212 4.8827C126.031 5.29937 125.774 5.67828 125.452 5.99964C125.128 6.3226 124.745 6.5805 124.324 6.75942C123.894 6.94535 123.43 7.04046 122.961 7.03881ZM120.019 8.89609H125.903V32.6166H120.019V8.89609ZM128.608 20.7562C128.608 19.0266 128.898 17.4128 129.477 15.9148C130.056 14.4171 130.866 13.112 131.909 12.0001C132.951 10.8883 134.198 10.0157 135.65 9.38277C137.101 8.74951 138.692 8.43274 140.422 8.43274C141.734 8.43274 142.931 8.62597 144.012 9.01185C145.093 9.39802 146.128 10.0235 147.116 10.8883V1.78464H153V32.6166H147.116V30.6244C146.128 31.5044 145.093 32.1338 144.012 32.5122C142.931 32.8906 141.734 33.0796 140.422 33.0796C138.692 33.0796 137.101 32.7631 135.65 32.1299C134.198 31.4969 132.951 30.6244 131.909 29.5125C130.866 28.4007 130.056 27.0956 129.477 25.5976C128.898 24.0998 128.608 22.486 128.608 20.7562ZM141.186 27.5434C141.649 27.5434 142.136 27.4934 142.645 27.3929C143.155 27.2924 143.668 27.1225 144.186 26.8832C144.703 26.6439 145.209 26.3235 145.703 25.9218C146.197 25.5204 146.668 25.0262 147.116 24.4393V17.073C146.668 16.4864 146.197 15.9962 145.703 15.6022C145.209 15.2086 144.703 14.8879 144.186 14.6408C143.668 14.3937 143.155 14.22 142.645 14.1197C142.136 14.0192 141.649 13.9693 141.186 13.969C140.275 13.969 139.422 14.1389 138.627 14.4787C137.831 14.8185 137.14 15.2935 136.553 15.9034C135.967 16.5134 135.507 17.2316 135.175 18.0578C134.843 18.8839 134.677 19.7834 134.677 20.7562C134.677 21.7292 134.843 22.6287 135.175 23.4549C135.507 24.2811 135.967 24.9993 136.553 25.6092C137.14 26.2194 137.831 26.6942 138.626 27.034C139.422 27.3735 140.275 27.5434 141.186 27.5434ZM91.8743 14.2173C87.9312 14.2173 86.1923 16.2516 86.1923 19.1349V32.6166H80.3085V19.297C80.3414 13.7428 83.5498 8.28258 91.8743 8.28258" fill="#77C159"/>
</svg>
