<?xml version="1.0" standalone="no"?>
<!DOCTYPE svg PUBLIC "-//W3C//DTD SVG 20010904//EN"
 "http://www.w3.org/TR/2001/REC-SVG-20010904/DTD/svg10.dtd">
<svg version="1.0" xmlns="http://www.w3.org/2000/svg"
 width="6376.000000pt" height="1782.000000pt" viewBox="0 0 6376.000000 1782.000000"
 preserveAspectRatio="xMidYMid meet">

<g transform="translate(0.000000,1782.000000) scale(0.100000,-0.100000)"
fill="#000000" stroke="none">
<path d="M43270 16020 l-5595 -5 -53 -22 c-170 -69 -300 -223 -332 -392 -7
-36 -10 -1012 -10 -2887 l0 -2834 1604 0 c1274 0 1605 3 1609 13 4 9 8 8 16
-3 7 -10 11 -11 11 -2 0 9 39 12 160 12 121 0 160 -3 160 -12 0 -9 4 -8 10 2
6 9 10 10 10 3 0 -7 24 -14 58 -18 158 -20 296 -139 318 -274 4 -23 10 -41 14
-41 13 0 24 -335 22 -625 0 -38 -1 -117 -1 -175 -1 -58 -3 -338 -6 -622 l-6
-517 128 -4 c70 -1 -270 -3 -757 -2 -852 0 -857 0 -137 2 l747 3 0 931 c0 634
-4 953 -11 1002 -15 97 -42 152 -102 210 -53 51 -92 71 -167 88 -64 15 -6031
13 -6097 -1 -50 -12 -111 -37 -129 -55 -6 -5 -26 -24 -45 -40 -19 -17 -44 -49
-55 -70 -52 -96 -49 147 -49 -4190 l0 -4040 23 -65 c13 -36 31 -74 41 -85 62
-67 94 -92 137 -109 27 -11 52 -24 56 -30 9 -14 129 -16 1611 -19 854 -1 1263
1 1252 8 -47 28 -53 41 -8 17 40 -21 48 -29 35 -34 -9 -4 -514 -8 -1122 -9
-694 -1 -1031 -5 -905 -10 110 -4 259 -12 330 -18 72 -6 308 -16 525 -21 369
-10 536 -9 1030 5 107 3 1086 7 2175 8 2017 3 2075 4 2075 38 0 6 5 7 10 4 6
-3 10 -1 10 4 0 6 4 11 10 11 17 0 114 62 154 99 21 20 54 60 73 89 33 51 54
72 33 32 -50 -94 -128 -168 -235 -224 -16 -8 -26 -15 -22 -16 12 0 60 26 109
59 86 59 172 175 162 220 -4 18 -3 22 4 13 14 -20 32 38 37 118 l4 65 -9 -60
c-5 -33 -13 -71 -20 -85 -9 -23 -10 -22 -4 10 3 19 12 89 19 155 l12 120 5
-70 c4 -68 12 2969 10 3878 l-1 457 2665 0 2664 0 0 -659 0 -659 23 -6 c12 -3
87 -6 167 -6 l145 -1 -40 -21 c-22 -11 -47 -26 -55 -33 -19 -16 -1176 -20
-1560 -5 -135 5 -394 10 -577 10 -373 1 -367 3 -449 -78 -78 -75 -74 -17 -74
-1095 0 -526 -3 -975 -6 -997 l-7 -40 -766 0 c-659 0 -770 -2 -787 -15 -17
-13 74 -14 767 -15 l787 0 6 -31 c3 -17 6 -76 6 -130 l0 -99 -1022 0 c-993 1
-1193 5 -1224 31 -12 10 -14 4 -14 -39 0 -59 7 -65 85 -77 28 -5 526 -7 1107
-6 l1057 2 6 -23 c2 -13 6 -153 7 -313 l3 -290 27 -50 c26 -50 80 -107 129
-137 77 -48 79 -48 974 -48 736 0 846 -2 873 -15 89 -45 383 -70 732 -62 283
6 483 27 546 57 39 19 66 20 815 20 816 0 838 1 907 46 49 31 81 69 82 94 0
14 5 41 11 60 6 22 10 178 11 410 1 372 1 375 23 405 12 17 35 54 50 82 l27
53 2858 0 2858 0 81 -139 c45 -77 81 -142 81 -145 0 -4 -1330 -6 -2955 -6
l-2955 0 0 -28 c0 -16 -7 -37 -15 -48 -16 -21 -21 -154 -6 -154 5 0 12 6 14
13 3 7 6 5 6 -5 1 -17 37 -18 549 -21 379 -2 564 -7 602 -15 246 -55 896 -86
1615 -78 642 6 1004 29 1160 73 55 16 168 18 1255 20 l1195 3 39 -70 c52 -91
75 -112 125 -114 22 0 45 4 50 9 6 7 -8 39 -39 93 -70 117 -38 101 40 -21 60
-93 71 -105 124 -131 32 -17 66 -38 75 -47 27 -29 170 -42 471 -41 354 1 572
22 505 49 -11 4 -48 8 -82 8 -45 0 -63 4 -63 13 0 50 -130 317 -379 777 -38
71 -67 133 -65 137 3 5 18 15 34 23 l29 15 61 -107 c116 -204 381 -746 387
-791 l6 -43 41 7 c65 10 166 44 226 74 58 29 133 101 145 139 6 21 8 21 305
21 l299 0 17 -35 c35 -75 150 -145 298 -184 44 -12 85 -21 91 -21 6 0 17 24
25 52 23 91 429 888 452 888 4 0 21 -8 37 -18 l30 -18 -71 -130 c-228 -419
-360 -688 -381 -775 -6 -23 -11 -26 -63 -27 -60 -2 -90 -15 -57 -26 74 -23
604 -34 793 -16 85 8 105 14 190 57 l95 48 66 100 c56 84 89 122 89 102 0 -3
-20 -40 -45 -81 -25 -42 -45 -81 -45 -86 0 -18 72 -17 106 1 12 6 43 47 68 90
l47 79 342 0 c188 0 394 5 457 10 133 12 351 50 495 86 140 35 444 138 420
142 -70 11 -65 -1 -65 147 l0 135 -160 0 -160 0 0 -134 0 -134 -152 -7 c-84
-3 -280 -5 -435 -3 l-283 3 37 60 c61 101 213 379 213 390 0 5 -14 -11 -31
-37 l-31 -47 -21 20 c-12 11 -32 22 -45 26 l-23 5 27 47 c15 25 64 106 110
179 50 79 77 132 69 132 -24 0 -81 -57 -125 -125 -42 -65 -43 -65 -67 -49 -39
25 -67 11 -103 -52 -17 -31 -33 -54 -36 -51 -2 2 76 143 174 313 384 664 436
758 482 872 80 200 115 354 165 730 52 394 57 469 62 1057 4 389 8 562 16 567
16 10 -46 364 -89 509 -181 616 -555 1185 -1046 1595 l-43 37 -5 1396 -5 1396
-22 47 c-32 69 -108 141 -176 167 l-58 21 -3389 0 -3390 0 0 2138 c0 1394 -4
2160 -10 2202 -29 182 -175 350 -359 413 l-66 22 -2275 0 c-1251 0 -4793 -2
-7870 -5z m17851 -8529 c280 -281 474 -570 608 -908 l33 -82 106 -3 106 -3 8
-45 c10 -55 58 -366 58 -374 0 -3 -36 -6 -80 -6 l-80 0 0 -101 c0 -450 -109
-1037 -278 -1501 -106 -290 -259 -620 -377 -818 l-40 -65 -6 55 c-4 30 -13
126 -20 212 l-12 158 -59 82 c-34 47 -74 91 -96 104 -20 12 -52 40 -70 63
l-32 40 0 1701 0 1701 33 -22 c17 -13 107 -97 198 -188z m-22613 122 c-76 -2
-200 -2 -275 0 -76 1 -14 3 137 3 151 0 213 -2 138 -3z m500 0 c-54 -2 -142
-2 -195 0 -54 1 -10 3 97 3 107 0 151 -2 98 -3z m-1131 -14 c-31 -5 -76 -15
-100 -23 -87 -30 -85 -29 -62 -15 36 23 129 48 175 47 44 0 44 -1 -13 -9z
m1592 0 c-30 -4 -86 -19 -124 -34 -80 -30 -98 -27 -26 4 63 27 115 39 166 39
34 0 32 -2 -16 -9z m2362 -9 c35 -11 75 -27 89 -36 16 -10 18 -13 5 -8 -94 33
-137 46 -180 53 -46 8 -47 9 -14 10 20 0 65 -8 100 -19z m-2581 -42 c-29 -18
-56 -39 -58 -47 -3 -8 12 -2 34 14 29 21 23 12 -22 -31 -33 -32 -75 -81 -92
-109 -18 -27 -32 -44 -32 -37 0 15 40 72 84 120 16 17 25 32 19 32 -23 0 -96
-103 -125 -176 -41 -106 -48 -190 -48 -581 0 -298 -2 -343 -15 -343 -12 0 -15
18 -15 98 0 264 -13 584 -25 649 -18 91 -62 169 -130 232 -99 89 -199 107
-641 110 -206 1 -252 -1 -320 -17 -123 -30 -160 -49 -220 -112 -13 -14 -24
-21 -24 -16 0 5 -9 1 -21 -10 -17 -16 -22 -16 -29 -4 -6 9 -10 10 -10 3 0 -6
-9 -14 -20 -18 -11 -3 -19 -9 -18 -13 1 -4 -3 -16 -9 -28 -7 -11 -12 -29 -13
-40 0 -10 -4 -48 -9 -84 l-9 -65 2 90 c2 79 6 98 35 160 19 39 47 86 64 105
66 75 173 125 302 140 33 4 366 8 740 9 l679 1 -54 -32z m-1601 -29 c-24 -17
-60 -46 -79 -63 l-35 -31 30 34 c34 38 103 91 118 91 6 0 -10 -14 -34 -31z
m4360 -18 c39 -30 131 -157 130 -180 0 -14 -1 -14 -6 -1 -3 8 -20 38 -38 65
-32 48 -55 73 -120 130 -35 31 -15 23 34 -14z m-4065 -82 c-150 -19 -268 -121
-305 -261 -17 -64 -19 -111 -19 -438 0 -283 3 -378 14 -420 19 -72 12 -77 -9
-8 -14 44 -18 118 -22 449 -3 218 -3 413 1 433 4 20 18 48 31 62 14 15 25 30
25 33 0 11 73 85 106 109 41 28 126 51 189 50 l50 -1 -61 -8z m-415 -21 c-17
-32 -49 -72 -49 -62 0 11 49 84 56 84 2 0 -1 -10 -7 -22z m1176 -8 c75 -37
110 -66 148 -123 58 -87 62 -119 62 -537 0 -434 -4 -468 -70 -564 -32 -47 -58
-71 -115 -106 l-73 -45 -251 -1 -251 -2 222 8 c216 8 322 24 338 50 3 6 14 10
23 10 10 0 24 8 32 18 20 22 59 111 63 139 2 12 6 26 10 29 4 4 2 13 -5 21 -6
7 -8 16 -5 20 12 11 -13 31 -32 26 -20 -5 -35 11 -44 45 -3 14 -1 20 6 15 7
-4 8 0 4 11 -5 12 3 31 25 59 64 80 82 132 82 237 0 70 -4 105 -18 134 -22 49
-31 41 -10 -10 32 -76 6 -207 -56 -277 -25 -29 -88 -69 -75 -47 5 7 -2 9 -22
5 -22 -4 -24 -4 -8 4 62 28 124 121 132 197 21 206 -215 333 -384 206 -33 -24
-82 -101 -84 -131 -1 -9 -4 -2 -8 14 -4 17 -5 41 -2 55 5 30 90 116 134 135
20 9 25 14 13 15 -10 0 -39 -14 -65 -31 -43 -29 -45 -30 -22 -5 29 31 16 34
-46 12 -22 -8 -46 -11 -52 -6 -8 4 -15 36 -17 76 -6 87 -49 180 -116 246 -51
51 -61 84 -32 113 14 14 47 16 268 13 244 -3 252 -4 301 -28z m-613 -55 c20
-14 41 -25 45 -25 20 -1 77 -87 95 -143 29 -92 6 -210 -51 -261 -21 -19 -21
-19 -21 12 0 17 10 51 22 74 49 93 12 224 -81 285 -25 17 -56 34 -67 37 -12 4
-24 16 -27 26 -8 29 39 26 85 -5z m976 -63 c-6 -24 -13 -41 -15 -38 -2 2 1 23
7 46 6 23 13 40 15 38 2 -2 -1 -23 -7 -46z m-1609 -39 c-7 -21 -15 -90 -19
-153 l-7 -115 -1 93 c-2 87 25 255 35 225 3 -7 -1 -30 -8 -50z m4716 -49 c8
-44 14 -110 13 -149 0 -61 -2 -55 -13 55 -7 69 -16 139 -20 155 -4 17 -5 27
-1 24 4 -4 14 -42 21 -85z m-3134 -95 l-8 -124 -1 90 c-2 84 6 170 14 162 2
-2 0 -59 -5 -128z m-1023 -10 c-3 -20 -5 -19 -9 9 -3 20 -2 29 4 23 5 -5 7
-19 5 -32z m-578 -2721 c0 -1414 -2 -2569 -5 -2567 -3 4 -9 5098 -6 5132 9 80
11 -407 11 -2565z m930 2568 c0 -2 -8 -10 -17 -17 -16 -13 -17 -12 -4 4 13 16
21 21 21 13z m670 -2566 c0 -1413 -3 -2570 -7 -2570 -5 0 -7 1029 -6 2288 2
2912 2 2852 8 2852 3 0 5 -1156 5 -2570z m3147 -1287 c-1 -709 -2 -129 -2
1287 0 1416 1 1996 2 1288 2 -709 2 -1867 0 -2575z m14583 3822 c55 -28 75
-101 45 -159 -16 -30 -16 -30 45 -91 33 -33 60 -65 60 -70 0 -5 -30 21 -67 57
-52 52 -71 65 -83 58 -8 -5 -35 -10 -58 -10 -37 0 -50 6 -78 34 -28 28 -34 42
-34 76 0 52 13 76 53 100 38 24 78 25 117 5z m-18398 -267 c10 -21 16 -38 13
-38 -7 0 -45 78 -44 92 0 9 2 8 6 -2 3 -8 14 -32 25 -52z m-1297 -97 l330 -36
3 -47 c3 -39 0 -48 -13 -48 -9 0 -172 18 -361 40 -377 44 -410 46 -449 28 -45
-20 -58 -60 -80 -255 l-6 -53 456 0 455 0 0 -44 0 -44 -562 -4 c-604 -3 -591
-2 -626 -55 -15 -25 -17 -64 -17 -439 0 -227 3 -415 6 -419 4 -3 94 57 200
135 204 147 262 176 330 167 68 -9 120 -44 283 -188 87 -77 171 -146 187 -154
41 -22 93 -18 149 10 l49 25 -2 -57 -2 -57 -57 -19 c-114 -38 -168 -13 -384
178 -181 160 -188 165 -242 165 -54 0 -63 -5 -197 -105 -60 -45 -146 -106
-190 -136 -65 -44 -84 -64 -108 -109 -27 -52 -29 -60 -24 -147 5 -101 20 -137
63 -153 15 -6 253 -10 585 -10 l559 0 0 -50 0 -51 -572 3 c-563 3 -574 3 -620
25 -31 14 -56 36 -75 64 l-28 43 0 636 c0 607 1 638 19 678 25 55 76 85 180
107 44 9 83 18 88 21 4 3 8 20 8 37 0 61 30 219 49 255 42 82 112 115 221 105
36 -4 214 -22 395 -42z m1391 -18 c-3 -3 -22 12 -43 32 l-38 38 43 -33 c24
-18 41 -35 38 -37z m158 -23 c-22 -5 -56 -5 -75 0 -27 6 -19 8 41 8 65 0 70
-1 34 -8z m17006 3 c0 -5 -7 -30 -15 -57 -8 -27 -26 -110 -41 -185 -35 -192
-28 -181 -119 -181 l-76 0 1 33 c0 17 -3 54 -8 81 -9 48 -4 90 28 254 l13 62
108 0 c60 0 109 -3 109 -7z m-16631 -343 c4 0 7 -17 5 -37 -1 -21 -4 -68 -5
-105 -1 -37 -6 -65 -11 -62 -4 3 -8 -2 -8 -11 0 -9 -4 -14 -8 -11 -5 3 -7 -16
-6 -42 2 -27 -1 -41 -6 -33 -4 8 -17 12 -29 8 -23 -6 -55 18 -45 34 8 14 35
-10 27 -25 -3 -6 -2 -8 2 -3 5 4 10 16 12 27 2 14 -1 18 -14 13 -10 -4 -14 -2
-9 5 3 6 1 14 -5 18 -7 4 -9 3 -6 -3 4 -6 0 -13 -8 -17 -8 -3 -17 0 -21 6 -5
7 -2 8 7 3 8 -5 11 -5 7 0 -4 4 -3 15 3 24 6 9 -3 0 -21 -19 -27 -30 -31 -31
-25 -12 6 21 5 23 -13 13 -27 -14 -32 -14 -26 3 3 8 1 17 -5 21 -6 3 -11 1
-11 -4 0 -6 -4 -11 -10 -11 -20 0 7 39 49 71 50 38 131 152 131 183 0 12 7 34
15 50 8 15 16 56 17 90 1 33 4 8 5 -56 2 -65 7 -118 12 -118z m-313 168 l19
-23 -25 20 c-14 11 -27 21 -29 22 -2 2 0 3 6 3 5 0 18 -10 29 -22z m-992 -150
c13 -21 14 -29 5 -21 -8 6 -23 26 -33 45 -13 21 -14 29 -5 21 8 -6 23 -26 33
-45z m86 -85 c0 -8 -38 17 -51 33 -9 11 -2 9 19 -6 17 -13 32 -25 32 -27z m55
-23 c3 -5 -4 -6 -15 -3 -11 3 -22 9 -25 13 -3 5 4 6 15 3 11 -3 22 -9 25 -13z
m95 -31 c34 -7 34 -7 5 -7 -16 -1 -43 5 -60 13 -24 12 -25 14 -5 8 14 -3 41
-10 60 -14z m23990 -985 c-22 -735 -79 -1072 -231 -1377 -51 -103 -612 -1068
-617 -1063 -2 3 37 81 88 173 52 92 129 236 171 319 l79 150 -10 105 c-12 139
-35 210 -61 193 -5 -3 -9 -1 -9 5 0 5 -9 11 -19 13 -17 3 -14 11 26 78 71 119
224 433 281 578 133 337 257 799 297 1110 4 29 9 51 11 49 2 -2 0 -152 -6
-333z m-21850 -409 l0 -205 45 0 c41 0 45 -2 45 -25 l0 -25 -110 0 c-110 0
-110 0 -110 24 0 22 5 25 43 28 l42 3 3 164 3 164 -44 -36 c-33 -27 -47 -33
-56 -24 -6 6 -11 14 -11 18 0 10 129 119 141 119 5 0 9 -83 9 -205z m1155 191
c22 -10 41 -29 57 -58 20 -38 23 -57 23 -158 0 -101 -3 -121 -24 -163 -51
-105 -171 -105 -222 0 -21 42 -24 63 -24 158 0 94 3 117 23 156 35 71 95 95
167 65z m-773 -128 l3 -133 38 -3 c28 -2 37 -8 37 -22 0 -14 -9 -20 -37 -22
l-38 -3 -3 -67 c-3 -59 -5 -68 -22 -68 -17 0 -19 9 -22 68 l-3 67 -94 3 c-82
2 -93 5 -89 20 10 37 193 292 210 292 15 0 18 -15 20 -132z m488 107 c0 -23
-3 -24 -72 -27 l-73 -3 -3 -56 -3 -57 47 -7 c58 -8 100 -46 109 -98 22 -114
-56 -197 -172 -184 -52 6 -57 9 -49 34 5 16 16 19 66 18 71 0 99 21 107 82 8
59 -26 94 -95 101 l-52 5 0 108 0 109 95 0 c94 0 95 0 95 -25z m7700 -290
c-10 -12 -45 -15 -197 -15 -164 0 -184 2 -173 15 10 12 45 15 197 15 164 0
184 -2 173 -15z m-8005 -99 c0 -36 -26 -56 -49 -37 -31 26 -11 75 29 69 15 -2
20 -11 20 -32z m9504 -130 c17 -69 15 -241 -4 -256 -13 -11 -15 2 -15 111 0
68 -4 138 -9 156 -9 31 -5 47 9 38 4 -3 13 -25 19 -49z m-2344 -615 c-13 -14
-15 4 -15 170 0 135 3 188 13 198 10 10 13 -24 15 -170 2 -153 0 -185 -13
-198z m8880 183 c14 9 30 14 36 11 29 -19 359 -550 359 -579 0 -3 -14 -13 -31
-21 l-30 -16 46 -87 c26 -48 43 -82 37 -77 -8 9 -196 310 -241 387 -24 42 -41
43 -41 5 0 -18 -4 -37 -8 -43 -5 -5 -15 -36 -22 -69 -8 -33 -15 -67 -17 -75
-2 -8 -5 -25 -6 -37 -2 -17 -14 -25 -61 -39 -32 -10 -60 -24 -63 -31 -9 -22
-26 -15 -65 26 -20 21 -41 40 -48 43 -15 5 -15 183 0 183 1 0 3 7 5 16 1 8 12
33 23 55 48 94 72 137 72 129 0 -5 11 6 25 25 14 19 32 38 40 42 12 7 9 17
-15 58 -16 28 -37 65 -46 83 l-17 32 21 -19 c20 -18 23 -18 47 -2z m4059 5
c20 -9 29 -9 41 1 25 20 18 0 -26 -73 l-41 -69 28 -31 c16 -18 35 -39 44 -47
24 -24 89 -153 106 -210 15 -49 17 -183 3 -174 -4 2 -24 -16 -45 -41 -42 -48
-55 -53 -74 -30 -6 8 -35 21 -64 29 l-52 15 -14 63 c-7 35 -14 65 -15 68 -14
49 -25 91 -29 114 -3 16 -7 30 -10 33 -5 5 -55 -71 -195 -299 -101 -165 -147
-228 -76 -105 20 34 46 81 58 105 23 46 23 44 -23 72 -20 12 -1 51 146 286
131 212 193 304 205 304 4 0 19 -5 33 -11z m-11900 -172 c21 -16 24 -60 6 -82
-16 -20 -59 -19 -82 2 -51 46 20 121 76 80z m56 -107 c0 -24 -26 -38 -42 -22
-16 16 -2 42 22 42 13 0 20 -7 20 -20z m-347 -180 c-19 -279 215 -497 483
-450 161 27 281 132 334 291 18 53 21 79 17 147 l-5 83 36 -3 c30 -3 37 -8 44
-33 14 -48 1 -167 -28 -244 -20 -55 -39 -85 -80 -125 -217 -219 -536 -221
-754 -4 -88 87 -130 184 -130 302 0 97 5 105 77 115 8 1 10 -22 6 -79z m12475
-92 c-8 -13 -77 -126 -153 -253 -76 -126 -143 -234 -148 -240 -13 -14 -12 -10
73 135 102 174 230 380 237 380 3 0 -1 -10 -9 -22z m-4475 -238 c126 -213 164
-278 150 -265 -8 8 -211 343 -281 465 l-14 25 20 -25 c12 -14 68 -104 125
-200z m4527 30 c-6 -11 -13 -20 -16 -20 -2 0 0 9 6 20 6 11 13 20 16 20 2 0 0
-9 -6 -20z m-4667 -97 c74 -126 89 -153 84 -153 -3 0 -30 44 -62 98 -32 53
-66 112 -77 130 -11 17 -17 32 -14 32 3 0 34 -48 69 -107z m717 47 c6 -11 8
-20 6 -20 -3 0 -10 9 -16 20 -6 11 -8 20 -6 20 3 0 10 -9 16 -20z m3927 13
c-24 -46 -120 -203 -124 -203 -5 0 -9 -7 62 113 32 53 59 97 62 97 2 0 2 -3 0
-7z m155 -125 c-64 -108 -95 -158 -99 -158 -5 0 -7 -3 56 103 29 48 55 87 57
87 3 0 -3 -15 -14 -32z m-4951 -65 c63 -106 61 -103 56 -103 -3 0 -24 33 -48
73 -23 39 -49 82 -57 95 -8 12 -12 22 -9 22 3 0 29 -39 58 -87z m4659 -43 c-6
-11 -13 -20 -16 -20 -2 0 0 9 6 20 6 11 13 20 16 20 2 0 0 -9 -6 -20z m-4988
-67 c91 -137 198 -320 180 -309 -14 8 -71 -25 -74 -44 -2 -9 -12 0 -27 23 -13
21 -32 46 -41 55 -10 10 -38 54 -62 100 -44 80 -45 83 -36 143 12 93 18 96 60
32z m4773 7 c-9 -16 -18 -30 -21 -30 -2 0 2 14 11 30 9 17 18 30 21 30 2 0 -2
-13 -11 -30z m-3975 0 c6 -11 8 -20 6 -20 -3 0 -10 9 -16 20 -6 11 -8 20 -6
20 3 0 10 -9 16 -20z m4370 -20 c-6 -11 -13 -20 -16 -20 -2 0 0 9 6 20 6 11
13 20 16 20 2 0 0 -9 -6 -20z m-430 -40 c-6 -11 -13 -20 -16 -20 -2 0 0 9 6
20 6 11 13 20 16 20 2 0 0 -9 -6 -20z m-3900 -10 c6 -11 8 -20 6 -20 -3 0 -10
9 -16 20 -6 11 -8 20 -6 20 3 0 10 -9 16 -20z m4089 -492 c-45 -79 -89 -150
-97 -158 -8 -8 -2 8 14 36 95 166 159 272 162 269 2 -2 -33 -68 -79 -147z
m-4259 -36 c39 -68 70 -125 67 -128 -4 -4 -157 255 -166 280 -6 21 27 -31 99
-152z m2339 82 c-17 -41 -37 -106 -46 -145 l-15 -69 -166 2 -166 3 -17 70 c-9
39 -29 101 -43 139 -14 37 -26 70 -26 72 0 2 114 4 254 4 l254 0 -29 -76z
m-10726 -14 c90 0 136 -4 132 -10 -8 -12 -312 -14 -319 -1 -9 13 7 23 29 17
11 -3 82 -6 158 -6z m12963 -29 c-7 -10 41 -44 62 -44 7 0 10 -7 7 -15 -11
-30 -116 -212 -122 -212 -4 0 -3 3 0 7 10 9 -53 45 -69 39 -9 -3 -2 18 17 57
37 73 98 177 105 177 3 0 3 -4 0 -9z m-4835 -146 c29 -55 46 -95 38 -88 -22
17 -81 -19 -73 -44 7 -22 -33 44 -94 156 -25 46 -40 81 -34 77 14 -9 72 20 72
37 1 21 37 -34 91 -138z m4657 65 c45 -25 45 -26 28 -59 -16 -29 -19 -31 -76
-31 l-60 0 30 53 c17 28 37 63 43 77 l12 25 3 -28 c2 -15 11 -31 20 -37z
m-4468 -82 c0 -5 -25 -8 -55 -8 -51 0 -57 2 -75 32 l-19 32 31 18 c16 11 32
28 35 39 5 16 13 8 44 -43 21 -35 38 -66 39 -70z m-19061 -577 c7 -23 10 -45
8 -47 -12 -12 -29 94 -32 201 l-3 120 7 -115 c5 -63 14 -135 20 -159z m1601 0
c6 -23 9 -45 6 -48 -3 -3 -7 5 -10 18 -22 94 -25 125 -24 209 l1 95 7 -115 c4
-63 13 -135 20 -159z m21085 189 c-8 -30 -17 -67 -20 -82 -5 -24 -10 -28 -41
-28 -25 0 -33 4 -28 13 15 28 99 155 101 154 1 -1 -5 -27 -12 -57z m-2840 -26
c43 -67 44 -69 22 -76 -40 -11 -43 -8 -55 57 -7 35 -15 72 -19 82 -10 28 3 12
52 -63z m-8785 -104 l0 -100 -145 0 -145 0 0 100 0 100 145 0 145 0 0 -100z
m380 0 l0 -100 -145 0 -145 0 0 100 0 100 145 0 145 0 0 -100z m380 0 l0 -100
-145 0 -145 0 0 100 0 100 145 0 145 0 0 -100z m380 0 l0 -100 -145 0 -145 0
0 100 0 100 145 0 145 0 0 -100z m-10538 -200 c50 -74 91 -111 168 -154 36
-20 59 -36 52 -36 -30 0 -112 52 -167 108 -40 39 -105 135 -104 154 0 9 2 9 7
-2 4 -8 24 -40 44 -70z m-1600 2 c15 -26 43 -62 63 -81 19 -19 34 -36 31 -38
-9 -9 -98 94 -125 145 -23 44 4 21 31 -26z m1873 -222 c18 -5 -275 -8 -750 -6
-449 1 -792 6 -807 12 -36 12 1516 6 1557 -6z m260 -3 c7 -6 -24 -7 -90 -3
-151 10 -183 25 -40 19 66 -3 125 -10 130 -16z m2125 10 c-48 -15 -2080 -22
-2080 -7 0 7 326 11 1023 13 562 1 1038 3 1057 4 l35 1 -35 -11z"/>
<path d="M38436 7227 c-11 -37 9 -84 53 -124 50 -45 110 -46 169 -2 23 17 42
33 42 36 0 3 -15 -6 -32 -19 -63 -48 -118 -48 -176 0 -28 23 -35 37 -41 82 -7
49 -8 52 -15 27z"/>
<path d="M38530 7010 l-25 -8 25 0 c14 0 39 4 55 8 l30 8 -30 0 c-16 0 -41 -4
-55 -8z"/>
<path d="M38628 7003 c6 -2 18 -2 25 0 6 3 1 5 -13 5 -14 0 -19 -2 -12 -5z"/>
<path d="M38730 6978 c0 -2 23 -25 50 -51 27 -27 47 -41 44 -33 -5 13 -94 93
-94 84z"/>
<path d="M38346 6833 c-6 -14 -5 -15 5 -6 7 7 10 15 7 18 -3 3 -9 -2 -12 -12z"/>
<path d="M38781 6391 c-17 -11 -5 -51 15 -51 8 0 14 9 14 20 0 11 -6 20 -12
20 -9 0 -8 4 2 10 8 5 11 10 5 10 -5 0 -16 -4 -24 -9z"/>
<path d="M56674 6890 c-32 -13 -64 -59 -64 -92 0 -62 44 -107 104 -108 30 0
45 7 72 34 51 51 43 119 -18 156 -35 21 -60 24 -94 10z"/>
<path d="M38801 5948 c10 -19 42 -19 60 -1 8 8 8 13 0 18 -6 3 -10 3 -9 -2 2
-4 -1 -8 -7 -8 -5 0 -9 2 -8 5 1 3 -9 5 -22 5 -19 0 -21 -3 -14 -17z"/>
<path d="M38942 5900 c0 -14 2 -19 5 -12 2 6 2 18 0 25 -3 6 -5 1 -5 -13z"/>
<path d="M41121 4766 c-49 -53 -51 -251 -3 -316 45 -61 113 -26 133 69 13 62
7 178 -12 213 -32 63 -78 76 -118 34z"/>
<path d="M40393 4718 c-6 -13 -34 -53 -62 -90 l-50 -68 64 0 65 0 0 90 c0 50
-2 90 -3 90 -2 0 -9 -10 -14 -22z"/>
<path d="M34724 9853 c-15 -16 -54 -18 -408 -20 -361 -3 -491 -11 -506 -33 -3
-4 -27 -19 -53 -35 -49 -28 -106 -102 -107 -137 0 -9 -5 -18 -10 -20 -15 -5
-35 -127 -26 -161 15 -60 65 -20 66 53 1 76 24 133 75 185 79 79 80 79 495 82
l365 3 -25 -23 c-14 -12 -39 -51 -56 -84 -17 -34 -34 -59 -37 -56 -4 3 -2 -9
3 -28 15 -50 13 -502 -1 -493 -8 5 -10 43 -7 123 3 88 2 105 -5 71 -11 -53
-88 -139 -124 -140 -35 0 -27 18 15 37 84 40 99 182 24 244 -30 26 -89 41
-125 34 -32 -7 -43 -15 -98 -69 -33 -32 -37 -23 -11 27 18 37 89 77 134 77 52
0 119 -31 141 -66 25 -38 37 -43 37 -14 0 10 -23 42 -52 71 -53 53 -90 66
-110 38 -7 -11 -11 -11 -15 -1 -2 6 -13 12 -23 12 -26 0 -60 47 -60 81 0 21
-5 29 -18 29 -10 0 -33 13 -52 30 -19 16 -39 29 -43 30 -5 0 -15 6 -23 14 -12
13 -10 15 18 19 18 2 -16 4 -77 5 -109 2 -185 -10 -185 -28 0 -6 -7 -10 -15
-10 -20 0 -85 -69 -85 -91 0 -9 -6 -19 -12 -21 -10 -4 -13 -70 -13 -285 0
-253 2 -281 18 -297 9 -10 17 -23 17 -30 0 -21 52 -62 101 -80 39 -15 78 -17
275 -14 235 3 234 3 316 46 4 2 6 -27 3 -65 -2 -37 -7 -142 -10 -233 -3 -91
-8 -183 -10 -205 -3 -22 -7 -89 -10 -150 -11 -261 -19 -334 -39 -347 -8 -6 -7
-11 4 -18 13 -9 13 -10 0 -10 -13 0 -13 -1 0 -10 10 -6 11 -10 3 -10 -8 0 -13
-13 -13 -29 0 -17 -5 -33 -11 -37 -8 -4 -7 -9 2 -14 9 -6 10 -13 3 -22 -6 -7
-11 -26 -12 -41 -1 -15 -6 -36 -12 -47 -5 -10 -7 -26 -4 -34 4 -11 2 -15 -8
-11 -9 4 -15 0 -15 -9 0 -8 6 -12 16 -9 11 4 13 3 6 -5 -6 -6 -25 -12 -42 -14
-17 -1 -29 -6 -27 -10 3 -4 0 -8 -5 -8 -6 0 -11 -7 -11 -15 0 -8 -4 -15 -10
-15 -5 0 -10 6 -10 13 0 8 -4 7 -10 -3 -5 -8 -10 -10 -10 -4 0 7 -9 14 -21 17
-15 4 -23 0 -26 -13 -6 -21 -43 -23 -43 -3 0 7 -6 13 -14 13 -8 0 -21 3 -30 6
-11 4 -16 0 -16 -12 0 -16 2 -17 11 -4 7 10 9 11 7 2 -6 -24 -23 -17 -26 11
-2 15 -7 27 -10 27 -12 0 -13 -48 -2 -55 6 -3 10 -12 10 -18 0 -8 -3 -7 -9 2
-5 8 -18 12 -28 9 -13 -4 -19 0 -20 13 -1 11 5 19 13 19 8 0 14 4 14 9 0 11
-31 24 -38 16 -3 -3 1 -5 9 -5 12 0 12 -2 -1 -9 -19 -13 -31 -4 -23 16 4 11 3
14 -6 9 -7 -5 -10 -14 -7 -22 3 -7 -1 -20 -10 -28 -8 -8 -13 -20 -12 -27 2 -6
-3 -13 -10 -14 -7 -2 -8 -1 -2 2 6 3 4 11 -5 20 -9 8 -13 23 -10 33 3 10 -2
23 -12 31 -16 13 -17 12 -5 -2 7 -9 9 -24 6 -33 -6 -15 -8 -15 -20 1 -11 15
-13 15 -14 2 0 -8 5 -20 12 -27 8 -8 9 -12 1 -12 -6 0 -14 6 -16 13 -4 9 -8 9
-15 -1 -7 -11 -15 -8 -38 13 -25 23 -29 25 -33 10 -2 -15 -5 -15 -13 -4 -7 11
-11 11 -15 2 -2 -7 -11 -13 -19 -13 -9 0 -12 -4 -9 -10 3 -5 1 -10 -4 -10 -6
0 -11 11 -11 24 0 19 -5 24 -20 23 -23 -1 -28 -27 -5 -27 8 0 15 -4 15 -10 0
-5 -6 -7 -14 -4 -11 4 -13 -1 -10 -18 3 -19 2 -19 -8 5 -7 15 -15 27 -19 27
-10 0 -20 -30 -13 -42 3 -5 -3 -4 -14 3 -13 8 -22 27 -25 49 -2 19 -5 -302 -7
-715 -2 -412 -5 -768 -7 -790 -3 -22 -5 -1068 -6 -2325 l-2 -2285 24 -69 c13
-38 34 -79 47 -91 13 -12 24 -27 24 -32 0 -13 58 -58 86 -67 12 -4 31 -15 43
-25 40 -35 147 -41 674 -40 276 1 489 4 472 6 -65 8 -135 25 -135 32 0 4 -21
17 -47 29 -27 12 -61 33 -76 47 -37 33 -84 124 -92 180 -4 25 -11 45 -16 45
-5 0 -9 1703 -9 4050 0 2355 4 4050 9 4050 5 0 12 16 15 35 10 49 41 117 66
140 12 11 34 32 50 48 15 15 52 38 82 52 l53 25 -47 0 c-31 0 -52 -6 -64 -17z
m-774 -142 c0 -5 15 -12 33 -16 43 -9 95 -61 103 -102 3 -18 10 -33 15 -33 5
0 9 -13 9 -30 0 -16 -4 -30 -8 -30 -5 0 -15 -18 -22 -41 -16 -48 -36 -66 -26
-23 30 129 11 184 -84 235 -62 33 -75 49 -40 49 11 0 20 -4 20 -9z m270 -527
c0 -2 -9 0 -20 6 -11 6 -20 13 -20 16 0 2 9 0 20 -6 11 -6 20 -13 20 -16z m88
-1606 c2 -9 -6 -18 -18 -21 -14 -4 -20 0 -20 12 0 33 32 41 38 9z m-123 -27
c2 -12 0 -19 -6 -16 -5 4 -9 16 -9 27 0 26 9 19 15 -11z m-205 1 c0 -5 -7 -9
-15 -9 -8 0 -12 4 -9 9 3 4 9 8 15 8 5 0 9 -4 9 -8z m-210 -12 c0 -5 -7 -7
-15 -4 -8 4 -15 8 -15 10 0 2 7 4 15 4 8 0 15 -4 15 -10z"/>
<path d="M34293 9733 c9 -2 23 -2 30 0 6 3 -1 5 -18 5 -16 0 -22 -2 -12 -5z"/>
<path d="M33540 9260 c0 -5 5 -10 10 -10 6 0 10 5 10 10 0 6 -4 10 -10 10 -5
0 -10 -4 -10 -10z"/>
<path d="M33540 8990 c0 -5 5 -10 10 -10 6 0 10 5 10 10 0 6 -4 10 -10 10 -5
0 -10 -4 -10 -10z"/>
<path d="M33540 8880 c0 -11 5 -20 10 -20 6 0 10 9 10 20 0 11 -4 20 -10 20
-5 0 -10 -9 -10 -20z"/>
<path d="M33540 8615 c0 -8 5 -15 10 -15 6 0 10 7 10 15 0 8 -4 15 -10 15 -5
0 -10 -7 -10 -15z"/>
<path d="M33808 7613 c7 -3 16 -2 19 1 4 3 -2 6 -13 5 -11 0 -14 -3 -6 -6z"/>
<path d="M34200 7600 c-13 -8 -12 -10 3 -10 9 0 17 5 17 10 0 12 -1 12 -20 0z"/>
<path d="M33828 7586 c-19 -14 -23 -26 -10 -26 4 0 13 9 20 20 14 23 13 24
-10 6z"/>
<path d="M45490 5331 c-80 -26 -157 -100 -178 -169 -55 -184 67 -355 254 -356
273 0 365 361 127 501 -48 28 -154 41 -203 24z"/>
<path d="M53055 2278 c4 -18 13 -45 21 -59 14 -28 69 -79 85 -79 5 0 9 38 9
85 l0 85 -61 0 -61 0 7 -32z"/>
</g>
</svg>
