<svg width="22" height="22" viewBox="0 0 22 22" fill="none" xmlns="http://www.w3.org/2000/svg">
<path d="M21.0196 6.65321L13.8937 1.46807C12.1692 0.213119 9.83231 0.213119 8.10789 1.46807L0.981058 6.65415C0.481276 7.02404 0.142902 7.57202 0.0360593 8.18452C0.00445027 8.37077 0.0853785 8.55814 0.242662 8.66278L8.31544 14.0478C9.94131 15.1316 12.0593 15.1316 13.6852 14.0478L21.757 8.66278C21.9143 8.55814 21.9952 8.37077 21.9636 8.18452C21.8569 7.57193 21.519 7.02373 21.0196 6.65321Z" fill="#0D2A54"/>
<path d="M3.34838 2.34814H18.6522C18.9164 2.34814 19.1305 2.56228 19.1305 2.82641V12.3913C19.1305 12.6554 18.9164 12.8696 18.6522 12.8696H3.34838C3.08425 12.8696 2.87012 12.6554 2.87012 12.3913V2.82636C2.87016 2.56223 3.08425 2.34814 3.34838 2.34814Z" fill="#4CAF50"/>
<path d="M11.0006 10.0001C9.71504 10.0001 8.71166 9.44727 8.61509 8.68591C8.57976 8.42416 8.76332 8.18335 9.02506 8.14802C9.28681 8.11269 9.52763 8.29624 9.56296 8.558C9.56327 8.56046 9.56358 8.56293 9.5639 8.56539C9.58206 8.70407 10.1062 9.04365 10.9986 9.04365C11.9733 9.04365 12.4334 8.66107 12.4334 8.56539C12.4334 8.56539 12.4171 8.26504 11.0369 8.0948L10.9355 8.08139C10.2373 7.99625 8.60742 7.79445 8.60742 6.64665C8.60742 5.82885 9.63563 5.21191 10.9986 5.21191C12.2842 5.21191 13.2875 5.76478 13.3841 6.52519C13.4174 6.78721 13.232 7.02659 12.97 7.05986C12.7087 7.08994 12.471 6.90616 12.4343 6.64571C12.4162 6.50704 11.892 6.16745 10.9996 6.16745C10.0718 6.16745 9.56484 6.52614 9.56484 6.64571C9.56484 6.64571 9.58111 6.94607 10.9661 7.11536L11.0617 7.12778C11.7619 7.21481 13.3869 7.41473 13.3869 8.56252C13.3918 9.38319 12.3636 10.0001 11.0006 10.0001Z" fill="#FAFAFA"/>
<path d="M11.0007 10.9566C10.7366 10.9566 10.5225 10.7424 10.5225 10.4783V4.73937C10.5225 4.47524 10.7366 4.26111 11.0007 4.26111C11.2649 4.26111 11.479 4.47524 11.479 4.73937V10.4783C11.479 10.7424 11.2649 10.9566 11.0007 10.9566Z" fill="#FAFAFA"/>
<path d="M16.7389 5.21763H14.8259C14.5618 5.21763 14.3477 5.0035 14.3477 4.73937C14.3477 4.47524 14.5618 4.26111 14.8259 4.26111H16.7389C17.003 4.26111 17.2172 4.47524 17.2172 4.73937C17.2172 5.0035 17.003 5.21763 16.7389 5.21763Z" fill="#FAFAFA"/>
<path d="M7.17446 10.9566H5.26146C4.99734 10.9566 4.7832 10.7425 4.7832 10.4784C4.7832 10.2143 4.99734 10.0001 5.26146 10.0001H7.17446C7.43858 10.0001 7.65272 10.2143 7.65272 10.4784C7.65267 10.7425 7.43858 10.9566 7.17446 10.9566Z" fill="#FAFAFA"/>
<path d="M21.9623 8.17606C21.9138 7.91642 21.6639 7.74532 21.4043 7.79388C21.3409 7.80576 21.2805 7.83033 21.2267 7.86616L13.1559 13.2502C11.8546 14.1334 10.1463 14.1334 8.84501 13.2502L0.773172 7.86616C0.553478 7.71954 0.256532 7.77882 0.10992 7.99851C0.0740964 8.05222 0.0495265 8.11257 0.0376451 8.17606C0.0121785 8.31873 -0.000330632 8.46346 0.000341901 8.60841V19.082C-0.0215379 20.3781 1.00946 21.4476 2.30547 21.4732H19.6945C20.9906 21.4476 22.0215 20.3781 21.9996 19.082V8.60841C22.0003 8.46346 21.9878 8.31873 21.9623 8.17606Z" fill="#2A5BA2"/>
</svg>
